G04 (created by PCBNEW-RS274X (2011-05-25)-stable) date mar 27 dic 2011 13:05:06 UYST*
G01*
G70*
G90*
%MOIN*%
G04 Gerber Fmt 3.4, Leading zero omitted, Abs format*
%FSLAX34Y34*%
G04 APERTURE LIST*
%ADD10C,0.006000*%
%ADD11R,0.055000X0.055000*%
%ADD12C,0.055000*%
G04 APERTURE END LIST*
G54D10*
G54D11*
X82531Y-58836D03*
G54D12*
X82531Y-57836D03*
X82531Y-56836D03*
X82531Y-55836D03*
X82531Y-54836D03*
X82531Y-53836D03*
X82531Y-52836D03*
X82531Y-51836D03*
X95259Y-54229D03*
X95259Y-55229D03*
X96767Y-54265D03*
X96767Y-55265D03*
X80114Y-55836D03*
X80114Y-54836D03*
G54D11*
X86921Y-59674D03*
G54D12*
X87921Y-59674D03*
X88921Y-59674D03*
G54D11*
X93224Y-53233D03*
G54D12*
X93224Y-54233D03*
X93224Y-55233D03*
X93224Y-56233D03*
X93224Y-57233D03*
G54D11*
X93224Y-53233D03*
G54D12*
X93224Y-54233D03*
X93224Y-55233D03*
X93224Y-56233D03*
X93224Y-57233D03*
G54D11*
X86921Y-59674D03*
G54D12*
X87921Y-59674D03*
X88921Y-59674D03*
X80114Y-55836D03*
X80114Y-54836D03*
X96767Y-54265D03*
X96767Y-55265D03*
X95259Y-54229D03*
X95259Y-55229D03*
G54D11*
X82531Y-58836D03*
G54D12*
X82531Y-57836D03*
X82531Y-56836D03*
X82531Y-55836D03*
X82531Y-54836D03*
X82531Y-53836D03*
X82531Y-52836D03*
X82531Y-51836D03*
G54D11*
X82531Y-58836D03*
G54D12*
X82531Y-57836D03*
X82531Y-56836D03*
X82531Y-55836D03*
X82531Y-54836D03*
X82531Y-53836D03*
X82531Y-52836D03*
X82531Y-51836D03*
X95259Y-54229D03*
X95259Y-55229D03*
X96767Y-54265D03*
X96767Y-55265D03*
X80114Y-55836D03*
X80114Y-54836D03*
G54D11*
X86921Y-59674D03*
G54D12*
X87921Y-59674D03*
X88921Y-59674D03*
G54D11*
X93224Y-53233D03*
G54D12*
X93224Y-54233D03*
X93224Y-55233D03*
X93224Y-56233D03*
X93224Y-57233D03*
G54D11*
X93224Y-53233D03*
G54D12*
X93224Y-54233D03*
X93224Y-55233D03*
X93224Y-56233D03*
X93224Y-57233D03*
G54D11*
X86921Y-59674D03*
G54D12*
X87921Y-59674D03*
X88921Y-59674D03*
X80114Y-55836D03*
X80114Y-54836D03*
X96767Y-54265D03*
X96767Y-55265D03*
X95259Y-54229D03*
X95259Y-55229D03*
G54D11*
X82531Y-58836D03*
G54D12*
X82531Y-57836D03*
X82531Y-56836D03*
X82531Y-55836D03*
X82531Y-54836D03*
X82531Y-53836D03*
X82531Y-52836D03*
X82531Y-51836D03*
G54D11*
X82531Y-58836D03*
G54D12*
X82531Y-57836D03*
X82531Y-56836D03*
X82531Y-55836D03*
X82531Y-54836D03*
X82531Y-53836D03*
X82531Y-52836D03*
X82531Y-51836D03*
X95259Y-54229D03*
X95259Y-55229D03*
X96767Y-54265D03*
X96767Y-55265D03*
X80114Y-55836D03*
X80114Y-54836D03*
G54D11*
X86921Y-59674D03*
G54D12*
X87921Y-59674D03*
X88921Y-59674D03*
G54D11*
X93224Y-53233D03*
G54D12*
X93224Y-54233D03*
X93224Y-55233D03*
X93224Y-56233D03*
X93224Y-57233D03*
G54D11*
X93224Y-53233D03*
G54D12*
X93224Y-54233D03*
X93224Y-55233D03*
X93224Y-56233D03*
X93224Y-57233D03*
G54D11*
X86921Y-59674D03*
G54D12*
X87921Y-59674D03*
X88921Y-59674D03*
X80114Y-55836D03*
X80114Y-54836D03*
X96767Y-54265D03*
X96767Y-55265D03*
X95259Y-54229D03*
X95259Y-55229D03*
G54D11*
X82531Y-58836D03*
G54D12*
X82531Y-57836D03*
X82531Y-56836D03*
X82531Y-55836D03*
X82531Y-54836D03*
X82531Y-53836D03*
X82531Y-52836D03*
X82531Y-51836D03*
G54D11*
X82531Y-58836D03*
G54D12*
X82531Y-57836D03*
X82531Y-56836D03*
X82531Y-55836D03*
X82531Y-54836D03*
X82531Y-53836D03*
X82531Y-52836D03*
X82531Y-51836D03*
X95259Y-54229D03*
X95259Y-55229D03*
X96767Y-54265D03*
X96767Y-55265D03*
X80114Y-55836D03*
X80114Y-54836D03*
G54D11*
X86921Y-59674D03*
G54D12*
X87921Y-59674D03*
X88921Y-59674D03*
G54D11*
X93224Y-53233D03*
G54D12*
X93224Y-54233D03*
X93224Y-55233D03*
X93224Y-56233D03*
X93224Y-57233D03*
G54D11*
X93224Y-53233D03*
G54D12*
X93224Y-54233D03*
X93224Y-55233D03*
X93224Y-56233D03*
X93224Y-57233D03*
G54D11*
X86921Y-59674D03*
G54D12*
X87921Y-59674D03*
X88921Y-59674D03*
X80114Y-55836D03*
X80114Y-54836D03*
X96767Y-54265D03*
X96767Y-55265D03*
X95259Y-54229D03*
X95259Y-55229D03*
G54D11*
X82531Y-58836D03*
G54D12*
X82531Y-57836D03*
X82531Y-56836D03*
X82531Y-55836D03*
X82531Y-54836D03*
X82531Y-53836D03*
X82531Y-52836D03*
X82531Y-51836D03*
G54D11*
X15453Y-58277D03*
G54D12*
X15453Y-57277D03*
X15453Y-56277D03*
X15453Y-55277D03*
X15453Y-54277D03*
X15453Y-53277D03*
X15453Y-52277D03*
X15453Y-51277D03*
X28181Y-53670D03*
X28181Y-54670D03*
X29689Y-53706D03*
X29689Y-54706D03*
X13036Y-55277D03*
X13036Y-54277D03*
G54D11*
X19843Y-59115D03*
G54D12*
X20843Y-59115D03*
X21843Y-59115D03*
G54D11*
X26146Y-52674D03*
G54D12*
X26146Y-53674D03*
X26146Y-54674D03*
X26146Y-55674D03*
X26146Y-56674D03*
G54D11*
X26146Y-52674D03*
G54D12*
X26146Y-53674D03*
X26146Y-54674D03*
X26146Y-55674D03*
X26146Y-56674D03*
G54D11*
X19843Y-59115D03*
G54D12*
X20843Y-59115D03*
X21843Y-59115D03*
X13036Y-55277D03*
X13036Y-54277D03*
X29689Y-53706D03*
X29689Y-54706D03*
X28181Y-53670D03*
X28181Y-54670D03*
G54D11*
X15453Y-58277D03*
G54D12*
X15453Y-57277D03*
X15453Y-56277D03*
X15453Y-55277D03*
X15453Y-54277D03*
X15453Y-53277D03*
X15453Y-52277D03*
X15453Y-51277D03*
G54D11*
X15453Y-58277D03*
G54D12*
X15453Y-57277D03*
X15453Y-56277D03*
X15453Y-55277D03*
X15453Y-54277D03*
X15453Y-53277D03*
X15453Y-52277D03*
X15453Y-51277D03*
X28181Y-53670D03*
X28181Y-54670D03*
X29689Y-53706D03*
X29689Y-54706D03*
X13036Y-55277D03*
X13036Y-54277D03*
G54D11*
X19843Y-59115D03*
G54D12*
X20843Y-59115D03*
X21843Y-59115D03*
G54D11*
X26146Y-52674D03*
G54D12*
X26146Y-53674D03*
X26146Y-54674D03*
X26146Y-55674D03*
X26146Y-56674D03*
G54D11*
X26146Y-52674D03*
G54D12*
X26146Y-53674D03*
X26146Y-54674D03*
X26146Y-55674D03*
X26146Y-56674D03*
G54D11*
X19843Y-59115D03*
G54D12*
X20843Y-59115D03*
X21843Y-59115D03*
X13036Y-55277D03*
X13036Y-54277D03*
X29689Y-53706D03*
X29689Y-54706D03*
X28181Y-53670D03*
X28181Y-54670D03*
G54D11*
X15453Y-58277D03*
G54D12*
X15453Y-57277D03*
X15453Y-56277D03*
X15453Y-55277D03*
X15453Y-54277D03*
X15453Y-53277D03*
X15453Y-52277D03*
X15453Y-51277D03*
G54D11*
X15453Y-58277D03*
G54D12*
X15453Y-57277D03*
X15453Y-56277D03*
X15453Y-55277D03*
X15453Y-54277D03*
X15453Y-53277D03*
X15453Y-52277D03*
X15453Y-51277D03*
X28181Y-53670D03*
X28181Y-54670D03*
X29689Y-53706D03*
X29689Y-54706D03*
X13036Y-55277D03*
X13036Y-54277D03*
G54D11*
X19843Y-59115D03*
G54D12*
X20843Y-59115D03*
X21843Y-59115D03*
G54D11*
X26146Y-52674D03*
G54D12*
X26146Y-53674D03*
X26146Y-54674D03*
X26146Y-55674D03*
X26146Y-56674D03*
G54D11*
X26146Y-52674D03*
G54D12*
X26146Y-53674D03*
X26146Y-54674D03*
X26146Y-55674D03*
X26146Y-56674D03*
G54D11*
X19843Y-59115D03*
G54D12*
X20843Y-59115D03*
X21843Y-59115D03*
X13036Y-55277D03*
X13036Y-54277D03*
X29689Y-53706D03*
X29689Y-54706D03*
X28181Y-53670D03*
X28181Y-54670D03*
G54D11*
X15453Y-58277D03*
G54D12*
X15453Y-57277D03*
X15453Y-56277D03*
X15453Y-55277D03*
X15453Y-54277D03*
X15453Y-53277D03*
X15453Y-52277D03*
X15453Y-51277D03*
G54D11*
X15453Y-58277D03*
G54D12*
X15453Y-57277D03*
X15453Y-56277D03*
X15453Y-55277D03*
X15453Y-54277D03*
X15453Y-53277D03*
X15453Y-52277D03*
X15453Y-51277D03*
X28181Y-53670D03*
X28181Y-54670D03*
X29689Y-53706D03*
X29689Y-54706D03*
X13036Y-55277D03*
X13036Y-54277D03*
G54D11*
X19843Y-59115D03*
G54D12*
X20843Y-59115D03*
X21843Y-59115D03*
G54D11*
X26146Y-52674D03*
G54D12*
X26146Y-53674D03*
X26146Y-54674D03*
X26146Y-55674D03*
X26146Y-56674D03*
G54D11*
X26146Y-52674D03*
G54D12*
X26146Y-53674D03*
X26146Y-54674D03*
X26146Y-55674D03*
X26146Y-56674D03*
G54D11*
X19843Y-59115D03*
G54D12*
X20843Y-59115D03*
X21843Y-59115D03*
X13036Y-55277D03*
X13036Y-54277D03*
X29689Y-53706D03*
X29689Y-54706D03*
X28181Y-53670D03*
X28181Y-54670D03*
G54D11*
X15453Y-58277D03*
G54D12*
X15453Y-57277D03*
X15453Y-56277D03*
X15453Y-55277D03*
X15453Y-54277D03*
X15453Y-53277D03*
X15453Y-52277D03*
X15453Y-51277D03*
G54D11*
X49331Y-58037D03*
G54D12*
X49331Y-57037D03*
X49331Y-56037D03*
X49331Y-55037D03*
X49331Y-54037D03*
X49331Y-53037D03*
X49331Y-52037D03*
X49331Y-51037D03*
X62059Y-53430D03*
X62059Y-54430D03*
X63567Y-53466D03*
X63567Y-54466D03*
X46914Y-55037D03*
X46914Y-54037D03*
G54D11*
X53721Y-58875D03*
G54D12*
X54721Y-58875D03*
X55721Y-58875D03*
G54D11*
X60024Y-52434D03*
G54D12*
X60024Y-53434D03*
X60024Y-54434D03*
X60024Y-55434D03*
X60024Y-56434D03*
G54D11*
X60024Y-52434D03*
G54D12*
X60024Y-53434D03*
X60024Y-54434D03*
X60024Y-55434D03*
X60024Y-56434D03*
G54D11*
X53721Y-58875D03*
G54D12*
X54721Y-58875D03*
X55721Y-58875D03*
X46914Y-55037D03*
X46914Y-54037D03*
X63567Y-53466D03*
X63567Y-54466D03*
X62059Y-53430D03*
X62059Y-54430D03*
G54D11*
X49331Y-58037D03*
G54D12*
X49331Y-57037D03*
X49331Y-56037D03*
X49331Y-55037D03*
X49331Y-54037D03*
X49331Y-53037D03*
X49331Y-52037D03*
X49331Y-51037D03*
G54D11*
X49331Y-58037D03*
G54D12*
X49331Y-57037D03*
X49331Y-56037D03*
X49331Y-55037D03*
X49331Y-54037D03*
X49331Y-53037D03*
X49331Y-52037D03*
X49331Y-51037D03*
X62059Y-53430D03*
X62059Y-54430D03*
X63567Y-53466D03*
X63567Y-54466D03*
X46914Y-55037D03*
X46914Y-54037D03*
G54D11*
X53721Y-58875D03*
G54D12*
X54721Y-58875D03*
X55721Y-58875D03*
G54D11*
X60024Y-52434D03*
G54D12*
X60024Y-53434D03*
X60024Y-54434D03*
X60024Y-55434D03*
X60024Y-56434D03*
G54D11*
X60024Y-52434D03*
G54D12*
X60024Y-53434D03*
X60024Y-54434D03*
X60024Y-55434D03*
X60024Y-56434D03*
G54D11*
X53721Y-58875D03*
G54D12*
X54721Y-58875D03*
X55721Y-58875D03*
X46914Y-55037D03*
X46914Y-54037D03*
X63567Y-53466D03*
X63567Y-54466D03*
X62059Y-53430D03*
X62059Y-54430D03*
G54D11*
X49331Y-58037D03*
G54D12*
X49331Y-57037D03*
X49331Y-56037D03*
X49331Y-55037D03*
X49331Y-54037D03*
X49331Y-53037D03*
X49331Y-52037D03*
X49331Y-51037D03*
G54D11*
X49331Y-58037D03*
G54D12*
X49331Y-57037D03*
X49331Y-56037D03*
X49331Y-55037D03*
X49331Y-54037D03*
X49331Y-53037D03*
X49331Y-52037D03*
X49331Y-51037D03*
X62059Y-53430D03*
X62059Y-54430D03*
X63567Y-53466D03*
X63567Y-54466D03*
X46914Y-55037D03*
X46914Y-54037D03*
G54D11*
X53721Y-58875D03*
G54D12*
X54721Y-58875D03*
X55721Y-58875D03*
G54D11*
X60024Y-52434D03*
G54D12*
X60024Y-53434D03*
X60024Y-54434D03*
X60024Y-55434D03*
X60024Y-56434D03*
G54D11*
X60024Y-52434D03*
G54D12*
X60024Y-53434D03*
X60024Y-54434D03*
X60024Y-55434D03*
X60024Y-56434D03*
G54D11*
X53721Y-58875D03*
G54D12*
X54721Y-58875D03*
X55721Y-58875D03*
X46914Y-55037D03*
X46914Y-54037D03*
X63567Y-53466D03*
X63567Y-54466D03*
X62059Y-53430D03*
X62059Y-54430D03*
G54D11*
X49331Y-58037D03*
G54D12*
X49331Y-57037D03*
X49331Y-56037D03*
X49331Y-55037D03*
X49331Y-54037D03*
X49331Y-53037D03*
X49331Y-52037D03*
X49331Y-51037D03*
G54D11*
X49331Y-58037D03*
G54D12*
X49331Y-57037D03*
X49331Y-56037D03*
X49331Y-55037D03*
X49331Y-54037D03*
X49331Y-53037D03*
X49331Y-52037D03*
X49331Y-51037D03*
X62059Y-53430D03*
X62059Y-54430D03*
X63567Y-53466D03*
X63567Y-54466D03*
X46914Y-55037D03*
X46914Y-54037D03*
G54D11*
X53721Y-58875D03*
G54D12*
X54721Y-58875D03*
X55721Y-58875D03*
G54D11*
X60024Y-52434D03*
G54D12*
X60024Y-53434D03*
X60024Y-54434D03*
X60024Y-55434D03*
X60024Y-56434D03*
G54D11*
X60024Y-52434D03*
G54D12*
X60024Y-53434D03*
X60024Y-54434D03*
X60024Y-55434D03*
X60024Y-56434D03*
G54D11*
X53721Y-58875D03*
G54D12*
X54721Y-58875D03*
X55721Y-58875D03*
X46914Y-55037D03*
X46914Y-54037D03*
X63567Y-53466D03*
X63567Y-54466D03*
X62059Y-53430D03*
X62059Y-54430D03*
G54D11*
X49331Y-58037D03*
G54D12*
X49331Y-57037D03*
X49331Y-56037D03*
X49331Y-55037D03*
X49331Y-54037D03*
X49331Y-53037D03*
X49331Y-52037D03*
X49331Y-51037D03*
G54D11*
X50130Y-39037D03*
G54D12*
X50130Y-38037D03*
X50130Y-37037D03*
X50130Y-36037D03*
X50130Y-35037D03*
X50130Y-34037D03*
X50130Y-33037D03*
X50130Y-32037D03*
X62858Y-34430D03*
X62858Y-35430D03*
X64366Y-34466D03*
X64366Y-35466D03*
X47713Y-36037D03*
X47713Y-35037D03*
G54D11*
X54520Y-39875D03*
G54D12*
X55520Y-39875D03*
X56520Y-39875D03*
G54D11*
X60823Y-33434D03*
G54D12*
X60823Y-34434D03*
X60823Y-35434D03*
X60823Y-36434D03*
X60823Y-37434D03*
G54D11*
X60823Y-33434D03*
G54D12*
X60823Y-34434D03*
X60823Y-35434D03*
X60823Y-36434D03*
X60823Y-37434D03*
G54D11*
X54520Y-39875D03*
G54D12*
X55520Y-39875D03*
X56520Y-39875D03*
X47713Y-36037D03*
X47713Y-35037D03*
X64366Y-34466D03*
X64366Y-35466D03*
X62858Y-34430D03*
X62858Y-35430D03*
G54D11*
X50130Y-39037D03*
G54D12*
X50130Y-38037D03*
X50130Y-37037D03*
X50130Y-36037D03*
X50130Y-35037D03*
X50130Y-34037D03*
X50130Y-33037D03*
X50130Y-32037D03*
G54D11*
X50130Y-39037D03*
G54D12*
X50130Y-38037D03*
X50130Y-37037D03*
X50130Y-36037D03*
X50130Y-35037D03*
X50130Y-34037D03*
X50130Y-33037D03*
X50130Y-32037D03*
X62858Y-34430D03*
X62858Y-35430D03*
X64366Y-34466D03*
X64366Y-35466D03*
X47713Y-36037D03*
X47713Y-35037D03*
G54D11*
X54520Y-39875D03*
G54D12*
X55520Y-39875D03*
X56520Y-39875D03*
G54D11*
X60823Y-33434D03*
G54D12*
X60823Y-34434D03*
X60823Y-35434D03*
X60823Y-36434D03*
X60823Y-37434D03*
G54D11*
X60823Y-33434D03*
G54D12*
X60823Y-34434D03*
X60823Y-35434D03*
X60823Y-36434D03*
X60823Y-37434D03*
G54D11*
X54520Y-39875D03*
G54D12*
X55520Y-39875D03*
X56520Y-39875D03*
X47713Y-36037D03*
X47713Y-35037D03*
X64366Y-34466D03*
X64366Y-35466D03*
X62858Y-34430D03*
X62858Y-35430D03*
G54D11*
X50130Y-39037D03*
G54D12*
X50130Y-38037D03*
X50130Y-37037D03*
X50130Y-36037D03*
X50130Y-35037D03*
X50130Y-34037D03*
X50130Y-33037D03*
X50130Y-32037D03*
G54D11*
X50130Y-39037D03*
G54D12*
X50130Y-38037D03*
X50130Y-37037D03*
X50130Y-36037D03*
X50130Y-35037D03*
X50130Y-34037D03*
X50130Y-33037D03*
X50130Y-32037D03*
X62858Y-34430D03*
X62858Y-35430D03*
X64366Y-34466D03*
X64366Y-35466D03*
X47713Y-36037D03*
X47713Y-35037D03*
G54D11*
X54520Y-39875D03*
G54D12*
X55520Y-39875D03*
X56520Y-39875D03*
G54D11*
X60823Y-33434D03*
G54D12*
X60823Y-34434D03*
X60823Y-35434D03*
X60823Y-36434D03*
X60823Y-37434D03*
G54D11*
X60823Y-33434D03*
G54D12*
X60823Y-34434D03*
X60823Y-35434D03*
X60823Y-36434D03*
X60823Y-37434D03*
G54D11*
X54520Y-39875D03*
G54D12*
X55520Y-39875D03*
X56520Y-39875D03*
X47713Y-36037D03*
X47713Y-35037D03*
X64366Y-34466D03*
X64366Y-35466D03*
X62858Y-34430D03*
X62858Y-35430D03*
G54D11*
X50130Y-39037D03*
G54D12*
X50130Y-38037D03*
X50130Y-37037D03*
X50130Y-36037D03*
X50130Y-35037D03*
X50130Y-34037D03*
X50130Y-33037D03*
X50130Y-32037D03*
G54D11*
X50130Y-39037D03*
G54D12*
X50130Y-38037D03*
X50130Y-37037D03*
X50130Y-36037D03*
X50130Y-35037D03*
X50130Y-34037D03*
X50130Y-33037D03*
X50130Y-32037D03*
X62858Y-34430D03*
X62858Y-35430D03*
X64366Y-34466D03*
X64366Y-35466D03*
X47713Y-36037D03*
X47713Y-35037D03*
G54D11*
X54520Y-39875D03*
G54D12*
X55520Y-39875D03*
X56520Y-39875D03*
G54D11*
X60823Y-33434D03*
G54D12*
X60823Y-34434D03*
X60823Y-35434D03*
X60823Y-36434D03*
X60823Y-37434D03*
G54D11*
X60823Y-33434D03*
G54D12*
X60823Y-34434D03*
X60823Y-35434D03*
X60823Y-36434D03*
X60823Y-37434D03*
G54D11*
X54520Y-39875D03*
G54D12*
X55520Y-39875D03*
X56520Y-39875D03*
X47713Y-36037D03*
X47713Y-35037D03*
X64366Y-34466D03*
X64366Y-35466D03*
X62858Y-34430D03*
X62858Y-35430D03*
G54D11*
X50130Y-39037D03*
G54D12*
X50130Y-38037D03*
X50130Y-37037D03*
X50130Y-36037D03*
X50130Y-35037D03*
X50130Y-34037D03*
X50130Y-33037D03*
X50130Y-32037D03*
G54D11*
X16252Y-39277D03*
G54D12*
X16252Y-38277D03*
X16252Y-37277D03*
X16252Y-36277D03*
X16252Y-35277D03*
X16252Y-34277D03*
X16252Y-33277D03*
X16252Y-32277D03*
X28980Y-34670D03*
X28980Y-35670D03*
X30488Y-34706D03*
X30488Y-35706D03*
X13835Y-36277D03*
X13835Y-35277D03*
G54D11*
X20642Y-40115D03*
G54D12*
X21642Y-40115D03*
X22642Y-40115D03*
G54D11*
X26945Y-33674D03*
G54D12*
X26945Y-34674D03*
X26945Y-35674D03*
X26945Y-36674D03*
X26945Y-37674D03*
G54D11*
X26945Y-33674D03*
G54D12*
X26945Y-34674D03*
X26945Y-35674D03*
X26945Y-36674D03*
X26945Y-37674D03*
G54D11*
X20642Y-40115D03*
G54D12*
X21642Y-40115D03*
X22642Y-40115D03*
X13835Y-36277D03*
X13835Y-35277D03*
X30488Y-34706D03*
X30488Y-35706D03*
X28980Y-34670D03*
X28980Y-35670D03*
G54D11*
X16252Y-39277D03*
G54D12*
X16252Y-38277D03*
X16252Y-37277D03*
X16252Y-36277D03*
X16252Y-35277D03*
X16252Y-34277D03*
X16252Y-33277D03*
X16252Y-32277D03*
G54D11*
X16252Y-39277D03*
G54D12*
X16252Y-38277D03*
X16252Y-37277D03*
X16252Y-36277D03*
X16252Y-35277D03*
X16252Y-34277D03*
X16252Y-33277D03*
X16252Y-32277D03*
X28980Y-34670D03*
X28980Y-35670D03*
X30488Y-34706D03*
X30488Y-35706D03*
X13835Y-36277D03*
X13835Y-35277D03*
G54D11*
X20642Y-40115D03*
G54D12*
X21642Y-40115D03*
X22642Y-40115D03*
G54D11*
X26945Y-33674D03*
G54D12*
X26945Y-34674D03*
X26945Y-35674D03*
X26945Y-36674D03*
X26945Y-37674D03*
G54D11*
X26945Y-33674D03*
G54D12*
X26945Y-34674D03*
X26945Y-35674D03*
X26945Y-36674D03*
X26945Y-37674D03*
G54D11*
X20642Y-40115D03*
G54D12*
X21642Y-40115D03*
X22642Y-40115D03*
X13835Y-36277D03*
X13835Y-35277D03*
X30488Y-34706D03*
X30488Y-35706D03*
X28980Y-34670D03*
X28980Y-35670D03*
G54D11*
X16252Y-39277D03*
G54D12*
X16252Y-38277D03*
X16252Y-37277D03*
X16252Y-36277D03*
X16252Y-35277D03*
X16252Y-34277D03*
X16252Y-33277D03*
X16252Y-32277D03*
G54D11*
X16252Y-39277D03*
G54D12*
X16252Y-38277D03*
X16252Y-37277D03*
X16252Y-36277D03*
X16252Y-35277D03*
X16252Y-34277D03*
X16252Y-33277D03*
X16252Y-32277D03*
X28980Y-34670D03*
X28980Y-35670D03*
X30488Y-34706D03*
X30488Y-35706D03*
X13835Y-36277D03*
X13835Y-35277D03*
G54D11*
X20642Y-40115D03*
G54D12*
X21642Y-40115D03*
X22642Y-40115D03*
G54D11*
X26945Y-33674D03*
G54D12*
X26945Y-34674D03*
X26945Y-35674D03*
X26945Y-36674D03*
X26945Y-37674D03*
G54D11*
X26945Y-33674D03*
G54D12*
X26945Y-34674D03*
X26945Y-35674D03*
X26945Y-36674D03*
X26945Y-37674D03*
G54D11*
X20642Y-40115D03*
G54D12*
X21642Y-40115D03*
X22642Y-40115D03*
X13835Y-36277D03*
X13835Y-35277D03*
X30488Y-34706D03*
X30488Y-35706D03*
X28980Y-34670D03*
X28980Y-35670D03*
G54D11*
X16252Y-39277D03*
G54D12*
X16252Y-38277D03*
X16252Y-37277D03*
X16252Y-36277D03*
X16252Y-35277D03*
X16252Y-34277D03*
X16252Y-33277D03*
X16252Y-32277D03*
G54D11*
X16252Y-39277D03*
G54D12*
X16252Y-38277D03*
X16252Y-37277D03*
X16252Y-36277D03*
X16252Y-35277D03*
X16252Y-34277D03*
X16252Y-33277D03*
X16252Y-32277D03*
X28980Y-34670D03*
X28980Y-35670D03*
X30488Y-34706D03*
X30488Y-35706D03*
X13835Y-36277D03*
X13835Y-35277D03*
G54D11*
X20642Y-40115D03*
G54D12*
X21642Y-40115D03*
X22642Y-40115D03*
G54D11*
X26945Y-33674D03*
G54D12*
X26945Y-34674D03*
X26945Y-35674D03*
X26945Y-36674D03*
X26945Y-37674D03*
G54D11*
X26945Y-33674D03*
G54D12*
X26945Y-34674D03*
X26945Y-35674D03*
X26945Y-36674D03*
X26945Y-37674D03*
G54D11*
X20642Y-40115D03*
G54D12*
X21642Y-40115D03*
X22642Y-40115D03*
X13835Y-36277D03*
X13835Y-35277D03*
X30488Y-34706D03*
X30488Y-35706D03*
X28980Y-34670D03*
X28980Y-35670D03*
G54D11*
X16252Y-39277D03*
G54D12*
X16252Y-38277D03*
X16252Y-37277D03*
X16252Y-36277D03*
X16252Y-35277D03*
X16252Y-34277D03*
X16252Y-33277D03*
X16252Y-32277D03*
G54D11*
X83330Y-39836D03*
G54D12*
X83330Y-38836D03*
X83330Y-37836D03*
X83330Y-36836D03*
X83330Y-35836D03*
X83330Y-34836D03*
X83330Y-33836D03*
X83330Y-32836D03*
X96058Y-35229D03*
X96058Y-36229D03*
X97566Y-35265D03*
X97566Y-36265D03*
X80913Y-36836D03*
X80913Y-35836D03*
G54D11*
X87720Y-40674D03*
G54D12*
X88720Y-40674D03*
X89720Y-40674D03*
G54D11*
X94023Y-34233D03*
G54D12*
X94023Y-35233D03*
X94023Y-36233D03*
X94023Y-37233D03*
X94023Y-38233D03*
G54D11*
X94023Y-34233D03*
G54D12*
X94023Y-35233D03*
X94023Y-36233D03*
X94023Y-37233D03*
X94023Y-38233D03*
G54D11*
X87720Y-40674D03*
G54D12*
X88720Y-40674D03*
X89720Y-40674D03*
X80913Y-36836D03*
X80913Y-35836D03*
X97566Y-35265D03*
X97566Y-36265D03*
X96058Y-35229D03*
X96058Y-36229D03*
G54D11*
X83330Y-39836D03*
G54D12*
X83330Y-38836D03*
X83330Y-37836D03*
X83330Y-36836D03*
X83330Y-35836D03*
X83330Y-34836D03*
X83330Y-33836D03*
X83330Y-32836D03*
G54D11*
X83330Y-39836D03*
G54D12*
X83330Y-38836D03*
X83330Y-37836D03*
X83330Y-36836D03*
X83330Y-35836D03*
X83330Y-34836D03*
X83330Y-33836D03*
X83330Y-32836D03*
X96058Y-35229D03*
X96058Y-36229D03*
X97566Y-35265D03*
X97566Y-36265D03*
X80913Y-36836D03*
X80913Y-35836D03*
G54D11*
X87720Y-40674D03*
G54D12*
X88720Y-40674D03*
X89720Y-40674D03*
G54D11*
X94023Y-34233D03*
G54D12*
X94023Y-35233D03*
X94023Y-36233D03*
X94023Y-37233D03*
X94023Y-38233D03*
G54D11*
X94023Y-34233D03*
G54D12*
X94023Y-35233D03*
X94023Y-36233D03*
X94023Y-37233D03*
X94023Y-38233D03*
G54D11*
X87720Y-40674D03*
G54D12*
X88720Y-40674D03*
X89720Y-40674D03*
X80913Y-36836D03*
X80913Y-35836D03*
X97566Y-35265D03*
X97566Y-36265D03*
X96058Y-35229D03*
X96058Y-36229D03*
G54D11*
X83330Y-39836D03*
G54D12*
X83330Y-38836D03*
X83330Y-37836D03*
X83330Y-36836D03*
X83330Y-35836D03*
X83330Y-34836D03*
X83330Y-33836D03*
X83330Y-32836D03*
G54D11*
X83330Y-39836D03*
G54D12*
X83330Y-38836D03*
X83330Y-37836D03*
X83330Y-36836D03*
X83330Y-35836D03*
X83330Y-34836D03*
X83330Y-33836D03*
X83330Y-32836D03*
X96058Y-35229D03*
X96058Y-36229D03*
X97566Y-35265D03*
X97566Y-36265D03*
X80913Y-36836D03*
X80913Y-35836D03*
G54D11*
X87720Y-40674D03*
G54D12*
X88720Y-40674D03*
X89720Y-40674D03*
G54D11*
X94023Y-34233D03*
G54D12*
X94023Y-35233D03*
X94023Y-36233D03*
X94023Y-37233D03*
X94023Y-38233D03*
G54D11*
X94023Y-34233D03*
G54D12*
X94023Y-35233D03*
X94023Y-36233D03*
X94023Y-37233D03*
X94023Y-38233D03*
G54D11*
X87720Y-40674D03*
G54D12*
X88720Y-40674D03*
X89720Y-40674D03*
X80913Y-36836D03*
X80913Y-35836D03*
X97566Y-35265D03*
X97566Y-36265D03*
X96058Y-35229D03*
X96058Y-36229D03*
G54D11*
X83330Y-39836D03*
G54D12*
X83330Y-38836D03*
X83330Y-37836D03*
X83330Y-36836D03*
X83330Y-35836D03*
X83330Y-34836D03*
X83330Y-33836D03*
X83330Y-32836D03*
G54D11*
X83330Y-39836D03*
G54D12*
X83330Y-38836D03*
X83330Y-37836D03*
X83330Y-36836D03*
X83330Y-35836D03*
X83330Y-34836D03*
X83330Y-33836D03*
X83330Y-32836D03*
X96058Y-35229D03*
X96058Y-36229D03*
X97566Y-35265D03*
X97566Y-36265D03*
X80913Y-36836D03*
X80913Y-35836D03*
G54D11*
X87720Y-40674D03*
G54D12*
X88720Y-40674D03*
X89720Y-40674D03*
G54D11*
X94023Y-34233D03*
G54D12*
X94023Y-35233D03*
X94023Y-36233D03*
X94023Y-37233D03*
X94023Y-38233D03*
G54D11*
X94023Y-34233D03*
G54D12*
X94023Y-35233D03*
X94023Y-36233D03*
X94023Y-37233D03*
X94023Y-38233D03*
G54D11*
X87720Y-40674D03*
G54D12*
X88720Y-40674D03*
X89720Y-40674D03*
X80913Y-36836D03*
X80913Y-35836D03*
X97566Y-35265D03*
X97566Y-36265D03*
X96058Y-35229D03*
X96058Y-36229D03*
G54D11*
X83330Y-39836D03*
G54D12*
X83330Y-38836D03*
X83330Y-37836D03*
X83330Y-36836D03*
X83330Y-35836D03*
X83330Y-34836D03*
X83330Y-33836D03*
X83330Y-32836D03*
G54D11*
X83330Y-20233D03*
G54D12*
X83330Y-19233D03*
X83330Y-18233D03*
X83330Y-17233D03*
X83330Y-16233D03*
X83330Y-15233D03*
X83330Y-14233D03*
X83330Y-13233D03*
X96058Y-15626D03*
X96058Y-16626D03*
X97566Y-15662D03*
X97566Y-16662D03*
X80913Y-17233D03*
X80913Y-16233D03*
G54D11*
X87720Y-21071D03*
G54D12*
X88720Y-21071D03*
X89720Y-21071D03*
G54D11*
X94023Y-14630D03*
G54D12*
X94023Y-15630D03*
X94023Y-16630D03*
X94023Y-17630D03*
X94023Y-18630D03*
G54D11*
X94023Y-14630D03*
G54D12*
X94023Y-15630D03*
X94023Y-16630D03*
X94023Y-17630D03*
X94023Y-18630D03*
G54D11*
X87720Y-21071D03*
G54D12*
X88720Y-21071D03*
X89720Y-21071D03*
X80913Y-17233D03*
X80913Y-16233D03*
X97566Y-15662D03*
X97566Y-16662D03*
X96058Y-15626D03*
X96058Y-16626D03*
G54D11*
X83330Y-20233D03*
G54D12*
X83330Y-19233D03*
X83330Y-18233D03*
X83330Y-17233D03*
X83330Y-16233D03*
X83330Y-15233D03*
X83330Y-14233D03*
X83330Y-13233D03*
G54D11*
X83330Y-20233D03*
G54D12*
X83330Y-19233D03*
X83330Y-18233D03*
X83330Y-17233D03*
X83330Y-16233D03*
X83330Y-15233D03*
X83330Y-14233D03*
X83330Y-13233D03*
X96058Y-15626D03*
X96058Y-16626D03*
X97566Y-15662D03*
X97566Y-16662D03*
X80913Y-17233D03*
X80913Y-16233D03*
G54D11*
X87720Y-21071D03*
G54D12*
X88720Y-21071D03*
X89720Y-21071D03*
G54D11*
X94023Y-14630D03*
G54D12*
X94023Y-15630D03*
X94023Y-16630D03*
X94023Y-17630D03*
X94023Y-18630D03*
G54D11*
X94023Y-14630D03*
G54D12*
X94023Y-15630D03*
X94023Y-16630D03*
X94023Y-17630D03*
X94023Y-18630D03*
G54D11*
X87720Y-21071D03*
G54D12*
X88720Y-21071D03*
X89720Y-21071D03*
X80913Y-17233D03*
X80913Y-16233D03*
X97566Y-15662D03*
X97566Y-16662D03*
X96058Y-15626D03*
X96058Y-16626D03*
G54D11*
X83330Y-20233D03*
G54D12*
X83330Y-19233D03*
X83330Y-18233D03*
X83330Y-17233D03*
X83330Y-16233D03*
X83330Y-15233D03*
X83330Y-14233D03*
X83330Y-13233D03*
G54D11*
X83330Y-20233D03*
G54D12*
X83330Y-19233D03*
X83330Y-18233D03*
X83330Y-17233D03*
X83330Y-16233D03*
X83330Y-15233D03*
X83330Y-14233D03*
X83330Y-13233D03*
X96058Y-15626D03*
X96058Y-16626D03*
X97566Y-15662D03*
X97566Y-16662D03*
X80913Y-17233D03*
X80913Y-16233D03*
G54D11*
X87720Y-21071D03*
G54D12*
X88720Y-21071D03*
X89720Y-21071D03*
G54D11*
X94023Y-14630D03*
G54D12*
X94023Y-15630D03*
X94023Y-16630D03*
X94023Y-17630D03*
X94023Y-18630D03*
G54D11*
X94023Y-14630D03*
G54D12*
X94023Y-15630D03*
X94023Y-16630D03*
X94023Y-17630D03*
X94023Y-18630D03*
G54D11*
X87720Y-21071D03*
G54D12*
X88720Y-21071D03*
X89720Y-21071D03*
X80913Y-17233D03*
X80913Y-16233D03*
X97566Y-15662D03*
X97566Y-16662D03*
X96058Y-15626D03*
X96058Y-16626D03*
G54D11*
X83330Y-20233D03*
G54D12*
X83330Y-19233D03*
X83330Y-18233D03*
X83330Y-17233D03*
X83330Y-16233D03*
X83330Y-15233D03*
X83330Y-14233D03*
X83330Y-13233D03*
G54D11*
X83330Y-20233D03*
G54D12*
X83330Y-19233D03*
X83330Y-18233D03*
X83330Y-17233D03*
X83330Y-16233D03*
X83330Y-15233D03*
X83330Y-14233D03*
X83330Y-13233D03*
X96058Y-15626D03*
X96058Y-16626D03*
X97566Y-15662D03*
X97566Y-16662D03*
X80913Y-17233D03*
X80913Y-16233D03*
G54D11*
X87720Y-21071D03*
G54D12*
X88720Y-21071D03*
X89720Y-21071D03*
G54D11*
X94023Y-14630D03*
G54D12*
X94023Y-15630D03*
X94023Y-16630D03*
X94023Y-17630D03*
X94023Y-18630D03*
G54D11*
X94023Y-14630D03*
G54D12*
X94023Y-15630D03*
X94023Y-16630D03*
X94023Y-17630D03*
X94023Y-18630D03*
G54D11*
X87720Y-21071D03*
G54D12*
X88720Y-21071D03*
X89720Y-21071D03*
X80913Y-17233D03*
X80913Y-16233D03*
X97566Y-15662D03*
X97566Y-16662D03*
X96058Y-15626D03*
X96058Y-16626D03*
G54D11*
X83330Y-20233D03*
G54D12*
X83330Y-19233D03*
X83330Y-18233D03*
X83330Y-17233D03*
X83330Y-16233D03*
X83330Y-15233D03*
X83330Y-14233D03*
X83330Y-13233D03*
G54D11*
X16252Y-19674D03*
G54D12*
X16252Y-18674D03*
X16252Y-17674D03*
X16252Y-16674D03*
X16252Y-15674D03*
X16252Y-14674D03*
X16252Y-13674D03*
X16252Y-12674D03*
X28980Y-15067D03*
X28980Y-16067D03*
X30488Y-15103D03*
X30488Y-16103D03*
X13835Y-16674D03*
X13835Y-15674D03*
G54D11*
X20642Y-20512D03*
G54D12*
X21642Y-20512D03*
X22642Y-20512D03*
G54D11*
X26945Y-14071D03*
G54D12*
X26945Y-15071D03*
X26945Y-16071D03*
X26945Y-17071D03*
X26945Y-18071D03*
G54D11*
X26945Y-14071D03*
G54D12*
X26945Y-15071D03*
X26945Y-16071D03*
X26945Y-17071D03*
X26945Y-18071D03*
G54D11*
X20642Y-20512D03*
G54D12*
X21642Y-20512D03*
X22642Y-20512D03*
X13835Y-16674D03*
X13835Y-15674D03*
X30488Y-15103D03*
X30488Y-16103D03*
X28980Y-15067D03*
X28980Y-16067D03*
G54D11*
X16252Y-19674D03*
G54D12*
X16252Y-18674D03*
X16252Y-17674D03*
X16252Y-16674D03*
X16252Y-15674D03*
X16252Y-14674D03*
X16252Y-13674D03*
X16252Y-12674D03*
G54D11*
X16252Y-19674D03*
G54D12*
X16252Y-18674D03*
X16252Y-17674D03*
X16252Y-16674D03*
X16252Y-15674D03*
X16252Y-14674D03*
X16252Y-13674D03*
X16252Y-12674D03*
X28980Y-15067D03*
X28980Y-16067D03*
X30488Y-15103D03*
X30488Y-16103D03*
X13835Y-16674D03*
X13835Y-15674D03*
G54D11*
X20642Y-20512D03*
G54D12*
X21642Y-20512D03*
X22642Y-20512D03*
G54D11*
X26945Y-14071D03*
G54D12*
X26945Y-15071D03*
X26945Y-16071D03*
X26945Y-17071D03*
X26945Y-18071D03*
G54D11*
X26945Y-14071D03*
G54D12*
X26945Y-15071D03*
X26945Y-16071D03*
X26945Y-17071D03*
X26945Y-18071D03*
G54D11*
X20642Y-20512D03*
G54D12*
X21642Y-20512D03*
X22642Y-20512D03*
X13835Y-16674D03*
X13835Y-15674D03*
X30488Y-15103D03*
X30488Y-16103D03*
X28980Y-15067D03*
X28980Y-16067D03*
G54D11*
X16252Y-19674D03*
G54D12*
X16252Y-18674D03*
X16252Y-17674D03*
X16252Y-16674D03*
X16252Y-15674D03*
X16252Y-14674D03*
X16252Y-13674D03*
X16252Y-12674D03*
G54D11*
X16252Y-19674D03*
G54D12*
X16252Y-18674D03*
X16252Y-17674D03*
X16252Y-16674D03*
X16252Y-15674D03*
X16252Y-14674D03*
X16252Y-13674D03*
X16252Y-12674D03*
X28980Y-15067D03*
X28980Y-16067D03*
X30488Y-15103D03*
X30488Y-16103D03*
X13835Y-16674D03*
X13835Y-15674D03*
G54D11*
X20642Y-20512D03*
G54D12*
X21642Y-20512D03*
X22642Y-20512D03*
G54D11*
X26945Y-14071D03*
G54D12*
X26945Y-15071D03*
X26945Y-16071D03*
X26945Y-17071D03*
X26945Y-18071D03*
G54D11*
X26945Y-14071D03*
G54D12*
X26945Y-15071D03*
X26945Y-16071D03*
X26945Y-17071D03*
X26945Y-18071D03*
G54D11*
X20642Y-20512D03*
G54D12*
X21642Y-20512D03*
X22642Y-20512D03*
X13835Y-16674D03*
X13835Y-15674D03*
X30488Y-15103D03*
X30488Y-16103D03*
X28980Y-15067D03*
X28980Y-16067D03*
G54D11*
X16252Y-19674D03*
G54D12*
X16252Y-18674D03*
X16252Y-17674D03*
X16252Y-16674D03*
X16252Y-15674D03*
X16252Y-14674D03*
X16252Y-13674D03*
X16252Y-12674D03*
G54D11*
X16252Y-19674D03*
G54D12*
X16252Y-18674D03*
X16252Y-17674D03*
X16252Y-16674D03*
X16252Y-15674D03*
X16252Y-14674D03*
X16252Y-13674D03*
X16252Y-12674D03*
X28980Y-15067D03*
X28980Y-16067D03*
X30488Y-15103D03*
X30488Y-16103D03*
X13835Y-16674D03*
X13835Y-15674D03*
G54D11*
X20642Y-20512D03*
G54D12*
X21642Y-20512D03*
X22642Y-20512D03*
G54D11*
X26945Y-14071D03*
G54D12*
X26945Y-15071D03*
X26945Y-16071D03*
X26945Y-17071D03*
X26945Y-18071D03*
G54D11*
X26945Y-14071D03*
G54D12*
X26945Y-15071D03*
X26945Y-16071D03*
X26945Y-17071D03*
X26945Y-18071D03*
G54D11*
X20642Y-20512D03*
G54D12*
X21642Y-20512D03*
X22642Y-20512D03*
X13835Y-16674D03*
X13835Y-15674D03*
X30488Y-15103D03*
X30488Y-16103D03*
X28980Y-15067D03*
X28980Y-16067D03*
G54D11*
X16252Y-19674D03*
G54D12*
X16252Y-18674D03*
X16252Y-17674D03*
X16252Y-16674D03*
X16252Y-15674D03*
X16252Y-14674D03*
X16252Y-13674D03*
X16252Y-12674D03*
G54D11*
X50130Y-19434D03*
G54D12*
X50130Y-18434D03*
X50130Y-17434D03*
X50130Y-16434D03*
X50130Y-15434D03*
X50130Y-14434D03*
X50130Y-13434D03*
X50130Y-12434D03*
X62858Y-14827D03*
X62858Y-15827D03*
X64366Y-14863D03*
X64366Y-15863D03*
X47713Y-16434D03*
X47713Y-15434D03*
G54D11*
X54520Y-20272D03*
G54D12*
X55520Y-20272D03*
X56520Y-20272D03*
G54D11*
X60823Y-13831D03*
G54D12*
X60823Y-14831D03*
X60823Y-15831D03*
X60823Y-16831D03*
X60823Y-17831D03*
G54D11*
X60823Y-13831D03*
G54D12*
X60823Y-14831D03*
X60823Y-15831D03*
X60823Y-16831D03*
X60823Y-17831D03*
G54D11*
X54520Y-20272D03*
G54D12*
X55520Y-20272D03*
X56520Y-20272D03*
X47713Y-16434D03*
X47713Y-15434D03*
X64366Y-14863D03*
X64366Y-15863D03*
X62858Y-14827D03*
X62858Y-15827D03*
G54D11*
X50130Y-19434D03*
G54D12*
X50130Y-18434D03*
X50130Y-17434D03*
X50130Y-16434D03*
X50130Y-15434D03*
X50130Y-14434D03*
X50130Y-13434D03*
X50130Y-12434D03*
G54D11*
X50130Y-19434D03*
G54D12*
X50130Y-18434D03*
X50130Y-17434D03*
X50130Y-16434D03*
X50130Y-15434D03*
X50130Y-14434D03*
X50130Y-13434D03*
X50130Y-12434D03*
X62858Y-14827D03*
X62858Y-15827D03*
X64366Y-14863D03*
X64366Y-15863D03*
X47713Y-16434D03*
X47713Y-15434D03*
G54D11*
X54520Y-20272D03*
G54D12*
X55520Y-20272D03*
X56520Y-20272D03*
G54D11*
X60823Y-13831D03*
G54D12*
X60823Y-14831D03*
X60823Y-15831D03*
X60823Y-16831D03*
X60823Y-17831D03*
G54D11*
X60823Y-13831D03*
G54D12*
X60823Y-14831D03*
X60823Y-15831D03*
X60823Y-16831D03*
X60823Y-17831D03*
G54D11*
X54520Y-20272D03*
G54D12*
X55520Y-20272D03*
X56520Y-20272D03*
X47713Y-16434D03*
X47713Y-15434D03*
X64366Y-14863D03*
X64366Y-15863D03*
X62858Y-14827D03*
X62858Y-15827D03*
G54D11*
X50130Y-19434D03*
G54D12*
X50130Y-18434D03*
X50130Y-17434D03*
X50130Y-16434D03*
X50130Y-15434D03*
X50130Y-14434D03*
X50130Y-13434D03*
X50130Y-12434D03*
G54D11*
X50130Y-19434D03*
G54D12*
X50130Y-18434D03*
X50130Y-17434D03*
X50130Y-16434D03*
X50130Y-15434D03*
X50130Y-14434D03*
X50130Y-13434D03*
X50130Y-12434D03*
X62858Y-14827D03*
X62858Y-15827D03*
X64366Y-14863D03*
X64366Y-15863D03*
X47713Y-16434D03*
X47713Y-15434D03*
G54D11*
X54520Y-20272D03*
G54D12*
X55520Y-20272D03*
X56520Y-20272D03*
G54D11*
X60823Y-13831D03*
G54D12*
X60823Y-14831D03*
X60823Y-15831D03*
X60823Y-16831D03*
X60823Y-17831D03*
G54D11*
X60823Y-13831D03*
G54D12*
X60823Y-14831D03*
X60823Y-15831D03*
X60823Y-16831D03*
X60823Y-17831D03*
G54D11*
X54520Y-20272D03*
G54D12*
X55520Y-20272D03*
X56520Y-20272D03*
X47713Y-16434D03*
X47713Y-15434D03*
X64366Y-14863D03*
X64366Y-15863D03*
X62858Y-14827D03*
X62858Y-15827D03*
G54D11*
X50130Y-19434D03*
G54D12*
X50130Y-18434D03*
X50130Y-17434D03*
X50130Y-16434D03*
X50130Y-15434D03*
X50130Y-14434D03*
X50130Y-13434D03*
X50130Y-12434D03*
G54D11*
X50130Y-19434D03*
G54D12*
X50130Y-18434D03*
X50130Y-17434D03*
X50130Y-16434D03*
X50130Y-15434D03*
X50130Y-14434D03*
X50130Y-13434D03*
X50130Y-12434D03*
X62858Y-14827D03*
X62858Y-15827D03*
X64366Y-14863D03*
X64366Y-15863D03*
X47713Y-16434D03*
X47713Y-15434D03*
G54D11*
X54520Y-20272D03*
G54D12*
X55520Y-20272D03*
X56520Y-20272D03*
G54D11*
X60823Y-13831D03*
G54D12*
X60823Y-14831D03*
X60823Y-15831D03*
X60823Y-16831D03*
X60823Y-17831D03*
G54D11*
X60823Y-13831D03*
G54D12*
X60823Y-14831D03*
X60823Y-15831D03*
X60823Y-16831D03*
X60823Y-17831D03*
G54D11*
X54520Y-20272D03*
G54D12*
X55520Y-20272D03*
X56520Y-20272D03*
X47713Y-16434D03*
X47713Y-15434D03*
X64366Y-14863D03*
X64366Y-15863D03*
X62858Y-14827D03*
X62858Y-15827D03*
G54D11*
X50130Y-19434D03*
G54D12*
X50130Y-18434D03*
X50130Y-17434D03*
X50130Y-16434D03*
X50130Y-15434D03*
X50130Y-14434D03*
X50130Y-13434D03*
X50130Y-12434D03*
M02*
