G04 (created by PCBNEW (2011-05-25)-stable) date lun 02 jul 2012 18:40:57 UYT*
G01*
G70*
G90*
%MOIN*%
G04 Gerber Fmt 3.4, Leading zero omitted, Abs format*
%FSLAX34Y34*%
G04 APERTURE LIST*
%ADD10C,0.001000*%
%ADD11C,0.015000*%
%ADD12C,0.008000*%
G04 APERTURE END LIST*
G54D10*
G54D11*
X33276Y-25693D02*
X33276Y-25689D01*
X50965Y-25693D02*
X33276Y-25693D01*
X54803Y-29531D02*
X50965Y-25693D01*
X54803Y-46811D02*
X54803Y-29531D01*
X29461Y-46811D02*
X54803Y-46811D01*
X29461Y-29480D02*
X29461Y-46811D01*
X33252Y-25689D02*
X29461Y-29480D01*
G54D10*
X35722Y-38033D02*
X36042Y-38353D01*
X36042Y-38033D02*
X35722Y-38353D01*
X35722Y-39033D02*
X36042Y-39353D01*
X36042Y-39033D02*
X35722Y-39353D01*
X37285Y-35033D02*
X37605Y-35353D01*
X37605Y-35033D02*
X37285Y-35353D01*
X37285Y-36033D02*
X37605Y-36353D01*
X37605Y-36033D02*
X37285Y-36353D01*
X37285Y-37033D02*
X37605Y-37353D01*
X37605Y-37033D02*
X37285Y-37353D01*
X37285Y-38033D02*
X37605Y-38353D01*
X37605Y-38033D02*
X37285Y-38353D01*
X37285Y-39033D02*
X37605Y-39353D01*
X37605Y-39033D02*
X37285Y-39353D01*
X37285Y-40033D02*
X37605Y-40353D01*
X37605Y-40033D02*
X37285Y-40353D01*
X37285Y-41033D02*
X37605Y-41353D01*
X37605Y-41033D02*
X37285Y-41353D01*
X37285Y-42033D02*
X37605Y-42353D01*
X37605Y-42033D02*
X37285Y-42353D01*
X38230Y-31171D02*
X38550Y-31491D01*
X38550Y-31171D02*
X38230Y-31491D01*
X38230Y-32171D02*
X38550Y-32491D01*
X38550Y-32171D02*
X38230Y-32491D01*
X40828Y-30163D02*
X41148Y-30483D01*
X41148Y-30163D02*
X40828Y-30483D01*
X40828Y-31163D02*
X41148Y-31483D01*
X41148Y-31163D02*
X40828Y-31483D01*
X40828Y-32163D02*
X41148Y-32483D01*
X41148Y-32163D02*
X40828Y-32483D01*
X41923Y-43222D02*
X42243Y-43542D01*
X42243Y-43222D02*
X41923Y-43542D01*
X42923Y-43222D02*
X43243Y-43542D01*
X43243Y-43222D02*
X42923Y-43542D01*
X43246Y-31104D02*
X43566Y-31424D01*
X43566Y-31104D02*
X43246Y-31424D01*
X43246Y-32104D02*
X43566Y-32424D01*
X43566Y-32104D02*
X43246Y-32424D01*
X43923Y-43222D02*
X44243Y-43542D01*
X44243Y-43222D02*
X43923Y-43542D01*
X45139Y-31525D02*
X45459Y-31845D01*
X45459Y-31525D02*
X45139Y-31845D01*
X45139Y-32525D02*
X45459Y-32845D01*
X45459Y-32525D02*
X45139Y-32845D01*
X45139Y-33525D02*
X45459Y-33845D01*
X45459Y-33525D02*
X45139Y-33845D01*
X46860Y-37171D02*
X47180Y-37491D01*
X47180Y-37171D02*
X46860Y-37491D01*
X46860Y-38171D02*
X47180Y-38491D01*
X47180Y-38171D02*
X46860Y-38491D01*
X46860Y-39171D02*
X47180Y-39491D01*
X47180Y-39171D02*
X46860Y-39491D01*
X46860Y-40171D02*
X47180Y-40491D01*
X47180Y-40171D02*
X46860Y-40491D01*
X47686Y-31553D02*
X48006Y-31873D01*
X48006Y-31553D02*
X47686Y-31873D01*
X47686Y-33651D02*
X48006Y-33971D01*
X48006Y-33651D02*
X47686Y-33971D01*
X48501Y-38277D02*
X48821Y-38597D01*
X48821Y-38277D02*
X48501Y-38597D01*
X48501Y-39277D02*
X48821Y-39597D01*
X48821Y-39277D02*
X48501Y-39597D01*
X48686Y-31553D02*
X49006Y-31873D01*
X49006Y-31553D02*
X48686Y-31873D01*
X48686Y-33651D02*
X49006Y-33971D01*
X49006Y-33651D02*
X48686Y-33971D01*
X49938Y-38277D02*
X50258Y-38597D01*
X50258Y-38277D02*
X49938Y-38597D01*
X49938Y-39277D02*
X50258Y-39597D01*
X50258Y-39277D02*
X49938Y-39597D01*
G54D12*
X29775Y-48091D02*
X29775Y-47291D01*
X29966Y-47291D01*
X30080Y-47329D01*
X30156Y-47405D01*
X30195Y-47481D01*
X30233Y-47634D01*
X30233Y-47748D01*
X30195Y-47900D01*
X30156Y-47977D01*
X30080Y-48053D01*
X29966Y-48091D01*
X29775Y-48091D01*
X30575Y-48091D02*
X30575Y-47557D01*
X30575Y-47710D02*
X30614Y-47634D01*
X30652Y-47596D01*
X30728Y-47557D01*
X30804Y-47557D01*
X31070Y-48091D02*
X31070Y-47557D01*
X31070Y-47291D02*
X31032Y-47329D01*
X31070Y-47367D01*
X31109Y-47329D01*
X31070Y-47291D01*
X31070Y-47367D01*
X31566Y-48091D02*
X31490Y-48053D01*
X31451Y-47977D01*
X31451Y-47291D01*
X31985Y-48091D02*
X31909Y-48053D01*
X31870Y-47977D01*
X31870Y-47291D01*
X32899Y-48091D02*
X32899Y-47291D01*
X33166Y-47862D01*
X33433Y-47291D01*
X33433Y-48091D01*
X34156Y-48091D02*
X34156Y-47672D01*
X34118Y-47596D01*
X34042Y-47557D01*
X33890Y-47557D01*
X33813Y-47596D01*
X34156Y-48053D02*
X34080Y-48091D01*
X33890Y-48091D01*
X33813Y-48053D01*
X33775Y-47977D01*
X33775Y-47900D01*
X33813Y-47824D01*
X33890Y-47786D01*
X34080Y-47786D01*
X34156Y-47748D01*
X34537Y-47557D02*
X34537Y-48357D01*
X34537Y-47596D02*
X34614Y-47557D01*
X34766Y-47557D01*
X34842Y-47596D01*
X34880Y-47634D01*
X34918Y-47710D01*
X34918Y-47938D01*
X34880Y-48015D01*
X34842Y-48053D01*
X34766Y-48091D01*
X34614Y-48091D01*
X34537Y-48053D01*
X35261Y-48015D02*
X35300Y-48053D01*
X35261Y-48091D01*
X35223Y-48053D01*
X35261Y-48015D01*
X35261Y-48091D01*
X35261Y-47596D02*
X35300Y-47634D01*
X35261Y-47672D01*
X35223Y-47634D01*
X35261Y-47596D01*
X35261Y-47672D01*
X29065Y-49287D02*
X29385Y-49607D01*
X29385Y-49287D02*
X29065Y-49607D01*
X29928Y-48971D02*
X30004Y-48971D01*
X30080Y-49009D01*
X30118Y-49047D01*
X30156Y-49123D01*
X30195Y-49276D01*
X30195Y-49466D01*
X30156Y-49618D01*
X30118Y-49695D01*
X30080Y-49733D01*
X30004Y-49771D01*
X29928Y-49771D01*
X29852Y-49733D01*
X29814Y-49695D01*
X29775Y-49618D01*
X29737Y-49466D01*
X29737Y-49276D01*
X29775Y-49123D01*
X29814Y-49047D01*
X29852Y-49009D01*
X29928Y-48971D01*
X30537Y-49695D02*
X30576Y-49733D01*
X30537Y-49771D01*
X30499Y-49733D01*
X30537Y-49695D01*
X30537Y-49771D01*
X31033Y-49314D02*
X30957Y-49276D01*
X30918Y-49237D01*
X30880Y-49161D01*
X30880Y-49123D01*
X30918Y-49047D01*
X30957Y-49009D01*
X31033Y-48971D01*
X31185Y-48971D01*
X31261Y-49009D01*
X31299Y-49047D01*
X31338Y-49123D01*
X31338Y-49161D01*
X31299Y-49237D01*
X31261Y-49276D01*
X31185Y-49314D01*
X31033Y-49314D01*
X30957Y-49352D01*
X30918Y-49390D01*
X30880Y-49466D01*
X30880Y-49618D01*
X30918Y-49695D01*
X30957Y-49733D01*
X31033Y-49771D01*
X31185Y-49771D01*
X31261Y-49733D01*
X31299Y-49695D01*
X31338Y-49618D01*
X31338Y-49466D01*
X31299Y-49390D01*
X31261Y-49352D01*
X31185Y-49314D01*
X32100Y-49771D02*
X31642Y-49771D01*
X31871Y-49771D02*
X31871Y-48971D01*
X31795Y-49085D01*
X31719Y-49161D01*
X31642Y-49199D01*
X32442Y-49771D02*
X32442Y-49237D01*
X32442Y-49314D02*
X32481Y-49276D01*
X32557Y-49237D01*
X32671Y-49237D01*
X32747Y-49276D01*
X32785Y-49352D01*
X32785Y-49771D01*
X32785Y-49352D02*
X32823Y-49276D01*
X32900Y-49237D01*
X33014Y-49237D01*
X33090Y-49276D01*
X33128Y-49352D01*
X33128Y-49771D01*
X33509Y-49771D02*
X33509Y-49237D01*
X33509Y-49314D02*
X33548Y-49276D01*
X33624Y-49237D01*
X33738Y-49237D01*
X33814Y-49276D01*
X33852Y-49352D01*
X33852Y-49771D01*
X33852Y-49352D02*
X33890Y-49276D01*
X33967Y-49237D01*
X34081Y-49237D01*
X34157Y-49276D01*
X34195Y-49352D01*
X34195Y-49771D01*
X35758Y-48933D02*
X35072Y-49961D01*
X36787Y-48971D02*
X36863Y-48971D01*
X36939Y-49009D01*
X36977Y-49047D01*
X37015Y-49123D01*
X37054Y-49276D01*
X37054Y-49466D01*
X37015Y-49618D01*
X36977Y-49695D01*
X36939Y-49733D01*
X36863Y-49771D01*
X36787Y-49771D01*
X36711Y-49733D01*
X36673Y-49695D01*
X36634Y-49618D01*
X36596Y-49466D01*
X36596Y-49276D01*
X36634Y-49123D01*
X36673Y-49047D01*
X36711Y-49009D01*
X36787Y-48971D01*
X37396Y-49695D02*
X37435Y-49733D01*
X37396Y-49771D01*
X37358Y-49733D01*
X37396Y-49695D01*
X37396Y-49771D01*
X37930Y-48971D02*
X38006Y-48971D01*
X38082Y-49009D01*
X38120Y-49047D01*
X38158Y-49123D01*
X38197Y-49276D01*
X38197Y-49466D01*
X38158Y-49618D01*
X38120Y-49695D01*
X38082Y-49733D01*
X38006Y-49771D01*
X37930Y-49771D01*
X37854Y-49733D01*
X37816Y-49695D01*
X37777Y-49618D01*
X37739Y-49466D01*
X37739Y-49276D01*
X37777Y-49123D01*
X37816Y-49047D01*
X37854Y-49009D01*
X37930Y-48971D01*
X38463Y-48971D02*
X38959Y-48971D01*
X38692Y-49276D01*
X38806Y-49276D01*
X38882Y-49314D01*
X38920Y-49352D01*
X38959Y-49428D01*
X38959Y-49618D01*
X38920Y-49695D01*
X38882Y-49733D01*
X38806Y-49771D01*
X38578Y-49771D01*
X38501Y-49733D01*
X38463Y-49695D01*
X39263Y-49047D02*
X39301Y-49009D01*
X39378Y-48971D01*
X39568Y-48971D01*
X39644Y-49009D01*
X39682Y-49047D01*
X39721Y-49123D01*
X39721Y-49199D01*
X39682Y-49314D01*
X39225Y-49771D01*
X39721Y-49771D01*
X40025Y-48971D02*
X40025Y-49123D01*
X40330Y-48971D02*
X40330Y-49123D01*
X41512Y-50076D02*
X41474Y-50037D01*
X41398Y-49923D01*
X41360Y-49847D01*
X41322Y-49733D01*
X41283Y-49542D01*
X41283Y-49390D01*
X41322Y-49199D01*
X41360Y-49085D01*
X41398Y-49009D01*
X41474Y-48895D01*
X41512Y-48857D01*
X41740Y-48971D02*
X42236Y-48971D01*
X41969Y-49276D01*
X42083Y-49276D01*
X42159Y-49314D01*
X42197Y-49352D01*
X42236Y-49428D01*
X42236Y-49618D01*
X42197Y-49695D01*
X42159Y-49733D01*
X42083Y-49771D01*
X41855Y-49771D01*
X41778Y-49733D01*
X41740Y-49695D01*
X42959Y-48971D02*
X42578Y-48971D01*
X42540Y-49352D01*
X42578Y-49314D01*
X42655Y-49276D01*
X42845Y-49276D01*
X42921Y-49314D01*
X42959Y-49352D01*
X42998Y-49428D01*
X42998Y-49618D01*
X42959Y-49695D01*
X42921Y-49733D01*
X42845Y-49771D01*
X42655Y-49771D01*
X42578Y-49733D01*
X42540Y-49695D01*
X43950Y-49771D02*
X43950Y-48971D01*
X44293Y-49771D02*
X44293Y-49352D01*
X44255Y-49276D01*
X44179Y-49237D01*
X44065Y-49237D01*
X43989Y-49276D01*
X43950Y-49314D01*
X44789Y-49771D02*
X44713Y-49733D01*
X44674Y-49695D01*
X44636Y-49618D01*
X44636Y-49390D01*
X44674Y-49314D01*
X44713Y-49276D01*
X44789Y-49237D01*
X44903Y-49237D01*
X44979Y-49276D01*
X45017Y-49314D01*
X45055Y-49390D01*
X45055Y-49618D01*
X45017Y-49695D01*
X44979Y-49733D01*
X44903Y-49771D01*
X44789Y-49771D01*
X45513Y-49771D02*
X45437Y-49733D01*
X45398Y-49657D01*
X45398Y-48971D01*
X46122Y-49733D02*
X46046Y-49771D01*
X45894Y-49771D01*
X45817Y-49733D01*
X45779Y-49657D01*
X45779Y-49352D01*
X45817Y-49276D01*
X45894Y-49237D01*
X46046Y-49237D01*
X46122Y-49276D01*
X46160Y-49352D01*
X46160Y-49428D01*
X45779Y-49504D01*
X46465Y-49733D02*
X46542Y-49771D01*
X46694Y-49771D01*
X46770Y-49733D01*
X46808Y-49657D01*
X46808Y-49618D01*
X46770Y-49542D01*
X46694Y-49504D01*
X46580Y-49504D01*
X46503Y-49466D01*
X46465Y-49390D01*
X46465Y-49352D01*
X46503Y-49276D01*
X46580Y-49237D01*
X46694Y-49237D01*
X46770Y-49276D01*
X47075Y-50076D02*
X47113Y-50037D01*
X47190Y-49923D01*
X47228Y-49847D01*
X47266Y-49733D01*
X47304Y-49542D01*
X47304Y-49390D01*
X47266Y-49199D01*
X47228Y-49085D01*
X47190Y-49009D01*
X47113Y-48895D01*
X47075Y-48857D01*
M02*
