M48
;DRILL file {PCBnew (2011-05-25)-stable} date lun 02 jul 2012 18:40:54 UYT
;FORMAT={-:-/ absolute / metric / decimal}
FMAT,2
METRIC,TZ
T1C0.813
%
G90
G05
M71
T1
X91.140Y97.010
X91.140Y99.550
X95.110Y89.390
X95.110Y91.930
X95.110Y94.470
X95.110Y97.010
X95.110Y99.550
X95.110Y102.090
X95.110Y104.630
X95.110Y107.170
X97.511Y79.581
X97.511Y82.121
X104.110Y77.020
X104.110Y79.560
X104.110Y82.100
X106.891Y110.190
X109.431Y110.190
X110.251Y79.411
X110.251Y81.951
X111.971Y110.190
X115.059Y80.480
X115.059Y83.020
X115.059Y85.560
X119.431Y94.821
X119.431Y97.361
X119.431Y99.901
X119.431Y102.441
X121.529Y80.551
X121.529Y85.880
X123.599Y97.630
X123.599Y100.170
X124.069Y80.551
X124.069Y85.880
X127.249Y97.630
X127.249Y100.170
T0
M30
