G04 (created by PCBNEW-RS274X (2011-05-25)-stable) date lun 21 nov 2011 16:39:51 UYST*
G01*
G70*
G90*
%MOIN*%
G04 Gerber Fmt 3.4, Leading zero omitted, Abs format*
%FSLAX34Y34*%
G04 APERTURE LIST*
%ADD10C,0.006000*%
%ADD11R,0.060000X0.060000*%
%ADD12C,0.060000*%
%ADD13C,0.055000*%
%ADD14R,0.055000X0.055000*%
G04 APERTURE END LIST*
G54D10*
G54D11*
X84500Y-58000D03*
G54D12*
X85500Y-58000D03*
G54D11*
X95000Y-56000D03*
G54D12*
X94000Y-56000D03*
X93000Y-56000D03*
X92000Y-56000D03*
X91000Y-56000D03*
G54D11*
X98000Y-52000D03*
G54D12*
X98000Y-53000D03*
X98000Y-54000D03*
X98000Y-55000D03*
X98000Y-56000D03*
G54D13*
X88000Y-58000D03*
X88000Y-57000D03*
X89000Y-61000D03*
X88000Y-61000D03*
X96500Y-62500D03*
X97500Y-62500D03*
X94000Y-62500D03*
X95000Y-62500D03*
X91500Y-62500D03*
X92500Y-62500D03*
G54D14*
X91000Y-61000D03*
G54D13*
X92000Y-61000D03*
X93000Y-61000D03*
X94000Y-61000D03*
X95000Y-61000D03*
X96000Y-61000D03*
X97000Y-61000D03*
X98000Y-61000D03*
X98000Y-58000D03*
X97000Y-58000D03*
X96000Y-58000D03*
X95000Y-58000D03*
X94000Y-58000D03*
X93000Y-58000D03*
X92000Y-58000D03*
X91000Y-58000D03*
G54D11*
X17000Y-57500D03*
G54D12*
X18000Y-57500D03*
G54D11*
X27500Y-55500D03*
G54D12*
X26500Y-55500D03*
X25500Y-55500D03*
X24500Y-55500D03*
X23500Y-55500D03*
G54D11*
X30500Y-51500D03*
G54D12*
X30500Y-52500D03*
X30500Y-53500D03*
X30500Y-54500D03*
X30500Y-55500D03*
G54D13*
X20500Y-57500D03*
X20500Y-56500D03*
X21500Y-60500D03*
X20500Y-60500D03*
X29000Y-62000D03*
X30000Y-62000D03*
X26500Y-62000D03*
X27500Y-62000D03*
X24000Y-62000D03*
X25000Y-62000D03*
G54D14*
X23500Y-60500D03*
G54D13*
X24500Y-60500D03*
X25500Y-60500D03*
X26500Y-60500D03*
X27500Y-60500D03*
X28500Y-60500D03*
X29500Y-60500D03*
X30500Y-60500D03*
X30500Y-57500D03*
X29500Y-57500D03*
X28500Y-57500D03*
X27500Y-57500D03*
X26500Y-57500D03*
X25500Y-57500D03*
X24500Y-57500D03*
X23500Y-57500D03*
G54D14*
X58000Y-60500D03*
G54D13*
X59000Y-60500D03*
X60000Y-60500D03*
X61000Y-60500D03*
X62000Y-60500D03*
X63000Y-60500D03*
X64000Y-60500D03*
X65000Y-60500D03*
X65000Y-57500D03*
X64000Y-57500D03*
X63000Y-57500D03*
X62000Y-57500D03*
X61000Y-57500D03*
X60000Y-57500D03*
X59000Y-57500D03*
X58000Y-57500D03*
X58500Y-62000D03*
X59500Y-62000D03*
X61000Y-62000D03*
X62000Y-62000D03*
X63500Y-62000D03*
X64500Y-62000D03*
X56000Y-60500D03*
X55000Y-60500D03*
X55000Y-57500D03*
X55000Y-56500D03*
G54D11*
X65000Y-51500D03*
G54D12*
X65000Y-52500D03*
X65000Y-53500D03*
X65000Y-54500D03*
X65000Y-55500D03*
G54D11*
X62000Y-55500D03*
G54D12*
X61000Y-55500D03*
X60000Y-55500D03*
X59000Y-55500D03*
X58000Y-55500D03*
G54D11*
X51500Y-57500D03*
G54D12*
X52500Y-57500D03*
G54D11*
X51500Y-37500D03*
G54D12*
X52500Y-37500D03*
G54D11*
X62000Y-35500D03*
G54D12*
X61000Y-35500D03*
X60000Y-35500D03*
X59000Y-35500D03*
X58000Y-35500D03*
G54D11*
X65000Y-31500D03*
G54D12*
X65000Y-32500D03*
X65000Y-33500D03*
X65000Y-34500D03*
X65000Y-35500D03*
G54D13*
X55000Y-37500D03*
X55000Y-36500D03*
X56000Y-40500D03*
X55000Y-40500D03*
X63500Y-42000D03*
X64500Y-42000D03*
X61000Y-42000D03*
X62000Y-42000D03*
X58500Y-42000D03*
X59500Y-42000D03*
G54D14*
X58000Y-40500D03*
G54D13*
X59000Y-40500D03*
X60000Y-40500D03*
X61000Y-40500D03*
X62000Y-40500D03*
X63000Y-40500D03*
X64000Y-40500D03*
X65000Y-40500D03*
X65000Y-37500D03*
X64000Y-37500D03*
X63000Y-37500D03*
X62000Y-37500D03*
X61000Y-37500D03*
X60000Y-37500D03*
X59000Y-37500D03*
X58000Y-37500D03*
G54D14*
X23500Y-40500D03*
G54D13*
X24500Y-40500D03*
X25500Y-40500D03*
X26500Y-40500D03*
X27500Y-40500D03*
X28500Y-40500D03*
X29500Y-40500D03*
X30500Y-40500D03*
X30500Y-37500D03*
X29500Y-37500D03*
X28500Y-37500D03*
X27500Y-37500D03*
X26500Y-37500D03*
X25500Y-37500D03*
X24500Y-37500D03*
X23500Y-37500D03*
X24000Y-42000D03*
X25000Y-42000D03*
X26500Y-42000D03*
X27500Y-42000D03*
X29000Y-42000D03*
X30000Y-42000D03*
X21500Y-40500D03*
X20500Y-40500D03*
X20500Y-37500D03*
X20500Y-36500D03*
G54D11*
X30500Y-31500D03*
G54D12*
X30500Y-32500D03*
X30500Y-33500D03*
X30500Y-34500D03*
X30500Y-35500D03*
G54D11*
X27500Y-35500D03*
G54D12*
X26500Y-35500D03*
X25500Y-35500D03*
X24500Y-35500D03*
X23500Y-35500D03*
G54D11*
X17000Y-37500D03*
G54D12*
X18000Y-37500D03*
G54D14*
X91000Y-41000D03*
G54D13*
X92000Y-41000D03*
X93000Y-41000D03*
X94000Y-41000D03*
X95000Y-41000D03*
X96000Y-41000D03*
X97000Y-41000D03*
X98000Y-41000D03*
X98000Y-38000D03*
X97000Y-38000D03*
X96000Y-38000D03*
X95000Y-38000D03*
X94000Y-38000D03*
X93000Y-38000D03*
X92000Y-38000D03*
X91000Y-38000D03*
X91500Y-42500D03*
X92500Y-42500D03*
X94000Y-42500D03*
X95000Y-42500D03*
X96500Y-42500D03*
X97500Y-42500D03*
X89000Y-41000D03*
X88000Y-41000D03*
X88000Y-38000D03*
X88000Y-37000D03*
G54D11*
X98000Y-32000D03*
G54D12*
X98000Y-33000D03*
X98000Y-34000D03*
X98000Y-35000D03*
X98000Y-36000D03*
G54D11*
X95000Y-36000D03*
G54D12*
X94000Y-36000D03*
X93000Y-36000D03*
X92000Y-36000D03*
X91000Y-36000D03*
G54D11*
X84500Y-38000D03*
G54D12*
X85500Y-38000D03*
G54D11*
X84500Y-19500D03*
G54D12*
X85500Y-19500D03*
G54D11*
X95000Y-17500D03*
G54D12*
X94000Y-17500D03*
X93000Y-17500D03*
X92000Y-17500D03*
X91000Y-17500D03*
G54D11*
X98000Y-13500D03*
G54D12*
X98000Y-14500D03*
X98000Y-15500D03*
X98000Y-16500D03*
X98000Y-17500D03*
G54D13*
X88000Y-19500D03*
X88000Y-18500D03*
X89000Y-22500D03*
X88000Y-22500D03*
X96500Y-24000D03*
X97500Y-24000D03*
X94000Y-24000D03*
X95000Y-24000D03*
X91500Y-24000D03*
X92500Y-24000D03*
G54D14*
X91000Y-22500D03*
G54D13*
X92000Y-22500D03*
X93000Y-22500D03*
X94000Y-22500D03*
X95000Y-22500D03*
X96000Y-22500D03*
X97000Y-22500D03*
X98000Y-22500D03*
X98000Y-19500D03*
X97000Y-19500D03*
X96000Y-19500D03*
X95000Y-19500D03*
X94000Y-19500D03*
X93000Y-19500D03*
X92000Y-19500D03*
X91000Y-19500D03*
G54D11*
X17000Y-19000D03*
G54D12*
X18000Y-19000D03*
G54D11*
X27500Y-17000D03*
G54D12*
X26500Y-17000D03*
X25500Y-17000D03*
X24500Y-17000D03*
X23500Y-17000D03*
G54D11*
X30500Y-13000D03*
G54D12*
X30500Y-14000D03*
X30500Y-15000D03*
X30500Y-16000D03*
X30500Y-17000D03*
G54D13*
X20500Y-19000D03*
X20500Y-18000D03*
X21500Y-22000D03*
X20500Y-22000D03*
X29000Y-23500D03*
X30000Y-23500D03*
X26500Y-23500D03*
X27500Y-23500D03*
X24000Y-23500D03*
X25000Y-23500D03*
G54D14*
X23500Y-22000D03*
G54D13*
X24500Y-22000D03*
X25500Y-22000D03*
X26500Y-22000D03*
X27500Y-22000D03*
X28500Y-22000D03*
X29500Y-22000D03*
X30500Y-22000D03*
X30500Y-19000D03*
X29500Y-19000D03*
X28500Y-19000D03*
X27500Y-19000D03*
X26500Y-19000D03*
X25500Y-19000D03*
X24500Y-19000D03*
X23500Y-19000D03*
G54D14*
X58000Y-22000D03*
G54D13*
X59000Y-22000D03*
X60000Y-22000D03*
X61000Y-22000D03*
X62000Y-22000D03*
X63000Y-22000D03*
X64000Y-22000D03*
X65000Y-22000D03*
X65000Y-19000D03*
X64000Y-19000D03*
X63000Y-19000D03*
X62000Y-19000D03*
X61000Y-19000D03*
X60000Y-19000D03*
X59000Y-19000D03*
X58000Y-19000D03*
X58500Y-23500D03*
X59500Y-23500D03*
X61000Y-23500D03*
X62000Y-23500D03*
X63500Y-23500D03*
X64500Y-23500D03*
X56000Y-22000D03*
X55000Y-22000D03*
X55000Y-19000D03*
X55000Y-18000D03*
G54D11*
X65000Y-13000D03*
G54D12*
X65000Y-14000D03*
X65000Y-15000D03*
X65000Y-16000D03*
X65000Y-17000D03*
G54D11*
X62000Y-17000D03*
G54D12*
X61000Y-17000D03*
X60000Y-17000D03*
X59000Y-17000D03*
X58000Y-17000D03*
G54D11*
X51500Y-19000D03*
G54D12*
X52500Y-19000D03*
M02*
