G04 (created by PCBNEW-RS274X (2011-05-25)-stable) date lun 21 nov 2011 16:39:51 UYST*
G01*
G70*
G90*
%MOIN*%
G04 Gerber Fmt 3.4, Leading zero omitted, Abs format*
%FSLAX34Y34*%
G04 APERTURE LIST*
%ADD10C,0.006000*%
%ADD11C,0.012000*%
%ADD12R,0.060000X0.060000*%
%ADD13C,0.060000*%
%ADD14C,0.055000*%
%ADD15R,0.055000X0.055000*%
%ADD16C,0.008000*%
%ADD17C,0.010000*%
G04 APERTURE END LIST*
G54D10*
G54D11*
X86643Y-62790D02*
X86643Y-63324D01*
X86900Y-62790D02*
X86900Y-63210D01*
X86872Y-63286D01*
X86814Y-63324D01*
X86729Y-63324D01*
X86672Y-63286D01*
X86643Y-63248D01*
X85957Y-63400D02*
X86014Y-63362D01*
X86071Y-63286D01*
X86157Y-63171D01*
X86214Y-63133D01*
X86271Y-63133D01*
X86243Y-63324D02*
X86300Y-63286D01*
X86357Y-63210D01*
X86386Y-63057D01*
X86386Y-62790D01*
X86357Y-62638D01*
X86300Y-62562D01*
X86243Y-62524D01*
X86129Y-62524D01*
X86071Y-62562D01*
X86014Y-62638D01*
X85986Y-62790D01*
X85986Y-63057D01*
X86014Y-63210D01*
X86071Y-63286D01*
X86129Y-63324D01*
X86243Y-63324D01*
X85471Y-62790D02*
X85471Y-63324D01*
X85728Y-62790D02*
X85728Y-63210D01*
X85700Y-63286D01*
X85642Y-63324D01*
X85557Y-63324D01*
X85500Y-63286D01*
X85471Y-63248D01*
X84928Y-63324D02*
X84928Y-62905D01*
X84957Y-62829D01*
X85014Y-62790D01*
X85128Y-62790D01*
X85185Y-62829D01*
X84928Y-63286D02*
X84985Y-63324D01*
X85128Y-63324D01*
X85185Y-63286D01*
X85214Y-63210D01*
X85214Y-63133D01*
X85185Y-63057D01*
X85128Y-63019D01*
X84985Y-63019D01*
X84928Y-62981D01*
X84385Y-63324D02*
X84385Y-62524D01*
X84385Y-63286D02*
X84442Y-63324D01*
X84556Y-63324D01*
X84614Y-63286D01*
X84642Y-63248D01*
X84671Y-63171D01*
X84671Y-62943D01*
X84642Y-62867D01*
X84614Y-62829D01*
X84556Y-62790D01*
X84442Y-62790D01*
X84385Y-62829D01*
X84099Y-63248D02*
X84071Y-63286D01*
X84099Y-63324D01*
X84128Y-63286D01*
X84099Y-63248D01*
X84099Y-63324D01*
X84099Y-63019D02*
X84128Y-62562D01*
X84099Y-62524D01*
X84071Y-62562D01*
X84099Y-63019D01*
X84099Y-62524D01*
X19143Y-62290D02*
X19143Y-62824D01*
X19400Y-62290D02*
X19400Y-62710D01*
X19372Y-62786D01*
X19314Y-62824D01*
X19229Y-62824D01*
X19172Y-62786D01*
X19143Y-62748D01*
X18457Y-62900D02*
X18514Y-62862D01*
X18571Y-62786D01*
X18657Y-62671D01*
X18714Y-62633D01*
X18771Y-62633D01*
X18743Y-62824D02*
X18800Y-62786D01*
X18857Y-62710D01*
X18886Y-62557D01*
X18886Y-62290D01*
X18857Y-62138D01*
X18800Y-62062D01*
X18743Y-62024D01*
X18629Y-62024D01*
X18571Y-62062D01*
X18514Y-62138D01*
X18486Y-62290D01*
X18486Y-62557D01*
X18514Y-62710D01*
X18571Y-62786D01*
X18629Y-62824D01*
X18743Y-62824D01*
X17971Y-62290D02*
X17971Y-62824D01*
X18228Y-62290D02*
X18228Y-62710D01*
X18200Y-62786D01*
X18142Y-62824D01*
X18057Y-62824D01*
X18000Y-62786D01*
X17971Y-62748D01*
X17428Y-62824D02*
X17428Y-62405D01*
X17457Y-62329D01*
X17514Y-62290D01*
X17628Y-62290D01*
X17685Y-62329D01*
X17428Y-62786D02*
X17485Y-62824D01*
X17628Y-62824D01*
X17685Y-62786D01*
X17714Y-62710D01*
X17714Y-62633D01*
X17685Y-62557D01*
X17628Y-62519D01*
X17485Y-62519D01*
X17428Y-62481D01*
X16885Y-62824D02*
X16885Y-62024D01*
X16885Y-62786D02*
X16942Y-62824D01*
X17056Y-62824D01*
X17114Y-62786D01*
X17142Y-62748D01*
X17171Y-62671D01*
X17171Y-62443D01*
X17142Y-62367D01*
X17114Y-62329D01*
X17056Y-62290D01*
X16942Y-62290D01*
X16885Y-62329D01*
X16599Y-62748D02*
X16571Y-62786D01*
X16599Y-62824D01*
X16628Y-62786D01*
X16599Y-62748D01*
X16599Y-62824D01*
X16599Y-62519D02*
X16628Y-62062D01*
X16599Y-62024D01*
X16571Y-62062D01*
X16599Y-62519D01*
X16599Y-62024D01*
X53643Y-62290D02*
X53643Y-62824D01*
X53900Y-62290D02*
X53900Y-62710D01*
X53872Y-62786D01*
X53814Y-62824D01*
X53729Y-62824D01*
X53672Y-62786D01*
X53643Y-62748D01*
X52957Y-62900D02*
X53014Y-62862D01*
X53071Y-62786D01*
X53157Y-62671D01*
X53214Y-62633D01*
X53271Y-62633D01*
X53243Y-62824D02*
X53300Y-62786D01*
X53357Y-62710D01*
X53386Y-62557D01*
X53386Y-62290D01*
X53357Y-62138D01*
X53300Y-62062D01*
X53243Y-62024D01*
X53129Y-62024D01*
X53071Y-62062D01*
X53014Y-62138D01*
X52986Y-62290D01*
X52986Y-62557D01*
X53014Y-62710D01*
X53071Y-62786D01*
X53129Y-62824D01*
X53243Y-62824D01*
X52471Y-62290D02*
X52471Y-62824D01*
X52728Y-62290D02*
X52728Y-62710D01*
X52700Y-62786D01*
X52642Y-62824D01*
X52557Y-62824D01*
X52500Y-62786D01*
X52471Y-62748D01*
X51928Y-62824D02*
X51928Y-62405D01*
X51957Y-62329D01*
X52014Y-62290D01*
X52128Y-62290D01*
X52185Y-62329D01*
X51928Y-62786D02*
X51985Y-62824D01*
X52128Y-62824D01*
X52185Y-62786D01*
X52214Y-62710D01*
X52214Y-62633D01*
X52185Y-62557D01*
X52128Y-62519D01*
X51985Y-62519D01*
X51928Y-62481D01*
X51385Y-62824D02*
X51385Y-62024D01*
X51385Y-62786D02*
X51442Y-62824D01*
X51556Y-62824D01*
X51614Y-62786D01*
X51642Y-62748D01*
X51671Y-62671D01*
X51671Y-62443D01*
X51642Y-62367D01*
X51614Y-62329D01*
X51556Y-62290D01*
X51442Y-62290D01*
X51385Y-62329D01*
X51099Y-62748D02*
X51071Y-62786D01*
X51099Y-62824D01*
X51128Y-62786D01*
X51099Y-62748D01*
X51099Y-62824D01*
X51099Y-62519D02*
X51128Y-62062D01*
X51099Y-62024D01*
X51071Y-62062D01*
X51099Y-62519D01*
X51099Y-62024D01*
X53643Y-42290D02*
X53643Y-42824D01*
X53900Y-42290D02*
X53900Y-42710D01*
X53872Y-42786D01*
X53814Y-42824D01*
X53729Y-42824D01*
X53672Y-42786D01*
X53643Y-42748D01*
X52957Y-42900D02*
X53014Y-42862D01*
X53071Y-42786D01*
X53157Y-42671D01*
X53214Y-42633D01*
X53271Y-42633D01*
X53243Y-42824D02*
X53300Y-42786D01*
X53357Y-42710D01*
X53386Y-42557D01*
X53386Y-42290D01*
X53357Y-42138D01*
X53300Y-42062D01*
X53243Y-42024D01*
X53129Y-42024D01*
X53071Y-42062D01*
X53014Y-42138D01*
X52986Y-42290D01*
X52986Y-42557D01*
X53014Y-42710D01*
X53071Y-42786D01*
X53129Y-42824D01*
X53243Y-42824D01*
X52471Y-42290D02*
X52471Y-42824D01*
X52728Y-42290D02*
X52728Y-42710D01*
X52700Y-42786D01*
X52642Y-42824D01*
X52557Y-42824D01*
X52500Y-42786D01*
X52471Y-42748D01*
X51928Y-42824D02*
X51928Y-42405D01*
X51957Y-42329D01*
X52014Y-42290D01*
X52128Y-42290D01*
X52185Y-42329D01*
X51928Y-42786D02*
X51985Y-42824D01*
X52128Y-42824D01*
X52185Y-42786D01*
X52214Y-42710D01*
X52214Y-42633D01*
X52185Y-42557D01*
X52128Y-42519D01*
X51985Y-42519D01*
X51928Y-42481D01*
X51385Y-42824D02*
X51385Y-42024D01*
X51385Y-42786D02*
X51442Y-42824D01*
X51556Y-42824D01*
X51614Y-42786D01*
X51642Y-42748D01*
X51671Y-42671D01*
X51671Y-42443D01*
X51642Y-42367D01*
X51614Y-42329D01*
X51556Y-42290D01*
X51442Y-42290D01*
X51385Y-42329D01*
X51099Y-42748D02*
X51071Y-42786D01*
X51099Y-42824D01*
X51128Y-42786D01*
X51099Y-42748D01*
X51099Y-42824D01*
X51099Y-42519D02*
X51128Y-42062D01*
X51099Y-42024D01*
X51071Y-42062D01*
X51099Y-42519D01*
X51099Y-42024D01*
X19143Y-42290D02*
X19143Y-42824D01*
X19400Y-42290D02*
X19400Y-42710D01*
X19372Y-42786D01*
X19314Y-42824D01*
X19229Y-42824D01*
X19172Y-42786D01*
X19143Y-42748D01*
X18457Y-42900D02*
X18514Y-42862D01*
X18571Y-42786D01*
X18657Y-42671D01*
X18714Y-42633D01*
X18771Y-42633D01*
X18743Y-42824D02*
X18800Y-42786D01*
X18857Y-42710D01*
X18886Y-42557D01*
X18886Y-42290D01*
X18857Y-42138D01*
X18800Y-42062D01*
X18743Y-42024D01*
X18629Y-42024D01*
X18571Y-42062D01*
X18514Y-42138D01*
X18486Y-42290D01*
X18486Y-42557D01*
X18514Y-42710D01*
X18571Y-42786D01*
X18629Y-42824D01*
X18743Y-42824D01*
X17971Y-42290D02*
X17971Y-42824D01*
X18228Y-42290D02*
X18228Y-42710D01*
X18200Y-42786D01*
X18142Y-42824D01*
X18057Y-42824D01*
X18000Y-42786D01*
X17971Y-42748D01*
X17428Y-42824D02*
X17428Y-42405D01*
X17457Y-42329D01*
X17514Y-42290D01*
X17628Y-42290D01*
X17685Y-42329D01*
X17428Y-42786D02*
X17485Y-42824D01*
X17628Y-42824D01*
X17685Y-42786D01*
X17714Y-42710D01*
X17714Y-42633D01*
X17685Y-42557D01*
X17628Y-42519D01*
X17485Y-42519D01*
X17428Y-42481D01*
X16885Y-42824D02*
X16885Y-42024D01*
X16885Y-42786D02*
X16942Y-42824D01*
X17056Y-42824D01*
X17114Y-42786D01*
X17142Y-42748D01*
X17171Y-42671D01*
X17171Y-42443D01*
X17142Y-42367D01*
X17114Y-42329D01*
X17056Y-42290D01*
X16942Y-42290D01*
X16885Y-42329D01*
X16599Y-42748D02*
X16571Y-42786D01*
X16599Y-42824D01*
X16628Y-42786D01*
X16599Y-42748D01*
X16599Y-42824D01*
X16599Y-42519D02*
X16628Y-42062D01*
X16599Y-42024D01*
X16571Y-42062D01*
X16599Y-42519D01*
X16599Y-42024D01*
X86643Y-42790D02*
X86643Y-43324D01*
X86900Y-42790D02*
X86900Y-43210D01*
X86872Y-43286D01*
X86814Y-43324D01*
X86729Y-43324D01*
X86672Y-43286D01*
X86643Y-43248D01*
X85957Y-43400D02*
X86014Y-43362D01*
X86071Y-43286D01*
X86157Y-43171D01*
X86214Y-43133D01*
X86271Y-43133D01*
X86243Y-43324D02*
X86300Y-43286D01*
X86357Y-43210D01*
X86386Y-43057D01*
X86386Y-42790D01*
X86357Y-42638D01*
X86300Y-42562D01*
X86243Y-42524D01*
X86129Y-42524D01*
X86071Y-42562D01*
X86014Y-42638D01*
X85986Y-42790D01*
X85986Y-43057D01*
X86014Y-43210D01*
X86071Y-43286D01*
X86129Y-43324D01*
X86243Y-43324D01*
X85471Y-42790D02*
X85471Y-43324D01*
X85728Y-42790D02*
X85728Y-43210D01*
X85700Y-43286D01*
X85642Y-43324D01*
X85557Y-43324D01*
X85500Y-43286D01*
X85471Y-43248D01*
X84928Y-43324D02*
X84928Y-42905D01*
X84957Y-42829D01*
X85014Y-42790D01*
X85128Y-42790D01*
X85185Y-42829D01*
X84928Y-43286D02*
X84985Y-43324D01*
X85128Y-43324D01*
X85185Y-43286D01*
X85214Y-43210D01*
X85214Y-43133D01*
X85185Y-43057D01*
X85128Y-43019D01*
X84985Y-43019D01*
X84928Y-42981D01*
X84385Y-43324D02*
X84385Y-42524D01*
X84385Y-43286D02*
X84442Y-43324D01*
X84556Y-43324D01*
X84614Y-43286D01*
X84642Y-43248D01*
X84671Y-43171D01*
X84671Y-42943D01*
X84642Y-42867D01*
X84614Y-42829D01*
X84556Y-42790D01*
X84442Y-42790D01*
X84385Y-42829D01*
X84099Y-43248D02*
X84071Y-43286D01*
X84099Y-43324D01*
X84128Y-43286D01*
X84099Y-43248D01*
X84099Y-43324D01*
X84099Y-43019D02*
X84128Y-42562D01*
X84099Y-42524D01*
X84071Y-42562D01*
X84099Y-43019D01*
X84099Y-42524D01*
X86643Y-24290D02*
X86643Y-24824D01*
X86900Y-24290D02*
X86900Y-24710D01*
X86872Y-24786D01*
X86814Y-24824D01*
X86729Y-24824D01*
X86672Y-24786D01*
X86643Y-24748D01*
X85957Y-24900D02*
X86014Y-24862D01*
X86071Y-24786D01*
X86157Y-24671D01*
X86214Y-24633D01*
X86271Y-24633D01*
X86243Y-24824D02*
X86300Y-24786D01*
X86357Y-24710D01*
X86386Y-24557D01*
X86386Y-24290D01*
X86357Y-24138D01*
X86300Y-24062D01*
X86243Y-24024D01*
X86129Y-24024D01*
X86071Y-24062D01*
X86014Y-24138D01*
X85986Y-24290D01*
X85986Y-24557D01*
X86014Y-24710D01*
X86071Y-24786D01*
X86129Y-24824D01*
X86243Y-24824D01*
X85471Y-24290D02*
X85471Y-24824D01*
X85728Y-24290D02*
X85728Y-24710D01*
X85700Y-24786D01*
X85642Y-24824D01*
X85557Y-24824D01*
X85500Y-24786D01*
X85471Y-24748D01*
X84928Y-24824D02*
X84928Y-24405D01*
X84957Y-24329D01*
X85014Y-24290D01*
X85128Y-24290D01*
X85185Y-24329D01*
X84928Y-24786D02*
X84985Y-24824D01*
X85128Y-24824D01*
X85185Y-24786D01*
X85214Y-24710D01*
X85214Y-24633D01*
X85185Y-24557D01*
X85128Y-24519D01*
X84985Y-24519D01*
X84928Y-24481D01*
X84385Y-24824D02*
X84385Y-24024D01*
X84385Y-24786D02*
X84442Y-24824D01*
X84556Y-24824D01*
X84614Y-24786D01*
X84642Y-24748D01*
X84671Y-24671D01*
X84671Y-24443D01*
X84642Y-24367D01*
X84614Y-24329D01*
X84556Y-24290D01*
X84442Y-24290D01*
X84385Y-24329D01*
X84099Y-24748D02*
X84071Y-24786D01*
X84099Y-24824D01*
X84128Y-24786D01*
X84099Y-24748D01*
X84099Y-24824D01*
X84099Y-24519D02*
X84128Y-24062D01*
X84099Y-24024D01*
X84071Y-24062D01*
X84099Y-24519D01*
X84099Y-24024D01*
X19143Y-23790D02*
X19143Y-24324D01*
X19400Y-23790D02*
X19400Y-24210D01*
X19372Y-24286D01*
X19314Y-24324D01*
X19229Y-24324D01*
X19172Y-24286D01*
X19143Y-24248D01*
X18457Y-24400D02*
X18514Y-24362D01*
X18571Y-24286D01*
X18657Y-24171D01*
X18714Y-24133D01*
X18771Y-24133D01*
X18743Y-24324D02*
X18800Y-24286D01*
X18857Y-24210D01*
X18886Y-24057D01*
X18886Y-23790D01*
X18857Y-23638D01*
X18800Y-23562D01*
X18743Y-23524D01*
X18629Y-23524D01*
X18571Y-23562D01*
X18514Y-23638D01*
X18486Y-23790D01*
X18486Y-24057D01*
X18514Y-24210D01*
X18571Y-24286D01*
X18629Y-24324D01*
X18743Y-24324D01*
X17971Y-23790D02*
X17971Y-24324D01*
X18228Y-23790D02*
X18228Y-24210D01*
X18200Y-24286D01*
X18142Y-24324D01*
X18057Y-24324D01*
X18000Y-24286D01*
X17971Y-24248D01*
X17428Y-24324D02*
X17428Y-23905D01*
X17457Y-23829D01*
X17514Y-23790D01*
X17628Y-23790D01*
X17685Y-23829D01*
X17428Y-24286D02*
X17485Y-24324D01*
X17628Y-24324D01*
X17685Y-24286D01*
X17714Y-24210D01*
X17714Y-24133D01*
X17685Y-24057D01*
X17628Y-24019D01*
X17485Y-24019D01*
X17428Y-23981D01*
X16885Y-24324D02*
X16885Y-23524D01*
X16885Y-24286D02*
X16942Y-24324D01*
X17056Y-24324D01*
X17114Y-24286D01*
X17142Y-24248D01*
X17171Y-24171D01*
X17171Y-23943D01*
X17142Y-23867D01*
X17114Y-23829D01*
X17056Y-23790D01*
X16942Y-23790D01*
X16885Y-23829D01*
X16599Y-24248D02*
X16571Y-24286D01*
X16599Y-24324D01*
X16628Y-24286D01*
X16599Y-24248D01*
X16599Y-24324D01*
X16599Y-24019D02*
X16628Y-23562D01*
X16599Y-23524D01*
X16571Y-23562D01*
X16599Y-24019D01*
X16599Y-23524D01*
X53643Y-23790D02*
X53643Y-24324D01*
X53900Y-23790D02*
X53900Y-24210D01*
X53872Y-24286D01*
X53814Y-24324D01*
X53729Y-24324D01*
X53672Y-24286D01*
X53643Y-24248D01*
X52957Y-24400D02*
X53014Y-24362D01*
X53071Y-24286D01*
X53157Y-24171D01*
X53214Y-24133D01*
X53271Y-24133D01*
X53243Y-24324D02*
X53300Y-24286D01*
X53357Y-24210D01*
X53386Y-24057D01*
X53386Y-23790D01*
X53357Y-23638D01*
X53300Y-23562D01*
X53243Y-23524D01*
X53129Y-23524D01*
X53071Y-23562D01*
X53014Y-23638D01*
X52986Y-23790D01*
X52986Y-24057D01*
X53014Y-24210D01*
X53071Y-24286D01*
X53129Y-24324D01*
X53243Y-24324D01*
X52471Y-23790D02*
X52471Y-24324D01*
X52728Y-23790D02*
X52728Y-24210D01*
X52700Y-24286D01*
X52642Y-24324D01*
X52557Y-24324D01*
X52500Y-24286D01*
X52471Y-24248D01*
X51928Y-24324D02*
X51928Y-23905D01*
X51957Y-23829D01*
X52014Y-23790D01*
X52128Y-23790D01*
X52185Y-23829D01*
X51928Y-24286D02*
X51985Y-24324D01*
X52128Y-24324D01*
X52185Y-24286D01*
X52214Y-24210D01*
X52214Y-24133D01*
X52185Y-24057D01*
X52128Y-24019D01*
X51985Y-24019D01*
X51928Y-23981D01*
X51385Y-24324D02*
X51385Y-23524D01*
X51385Y-24286D02*
X51442Y-24324D01*
X51556Y-24324D01*
X51614Y-24286D01*
X51642Y-24248D01*
X51671Y-24171D01*
X51671Y-23943D01*
X51642Y-23867D01*
X51614Y-23829D01*
X51556Y-23790D01*
X51442Y-23790D01*
X51385Y-23829D01*
X51099Y-24248D02*
X51071Y-24286D01*
X51099Y-24324D01*
X51128Y-24286D01*
X51099Y-24248D01*
X51099Y-24324D01*
X51099Y-24019D02*
X51128Y-23562D01*
X51099Y-23524D01*
X51071Y-23562D01*
X51099Y-24019D01*
X51099Y-23524D01*
G54D12*
X84500Y-58000D03*
G54D13*
X85500Y-58000D03*
G54D12*
X95000Y-56000D03*
G54D13*
X94000Y-56000D03*
X93000Y-56000D03*
X92000Y-56000D03*
X91000Y-56000D03*
G54D12*
X98000Y-52000D03*
G54D13*
X98000Y-53000D03*
X98000Y-54000D03*
X98000Y-55000D03*
X98000Y-56000D03*
G54D14*
X88000Y-58000D03*
X88000Y-57000D03*
X89000Y-61000D03*
X88000Y-61000D03*
X96500Y-62500D03*
X97500Y-62500D03*
X94000Y-62500D03*
X95000Y-62500D03*
X91500Y-62500D03*
X92500Y-62500D03*
G54D15*
X91000Y-61000D03*
G54D14*
X92000Y-61000D03*
X93000Y-61000D03*
X94000Y-61000D03*
X95000Y-61000D03*
X96000Y-61000D03*
X97000Y-61000D03*
X98000Y-61000D03*
X98000Y-58000D03*
X97000Y-58000D03*
X96000Y-58000D03*
X95000Y-58000D03*
X94000Y-58000D03*
X93000Y-58000D03*
X92000Y-58000D03*
X91000Y-58000D03*
G54D12*
X17000Y-57500D03*
G54D13*
X18000Y-57500D03*
G54D12*
X27500Y-55500D03*
G54D13*
X26500Y-55500D03*
X25500Y-55500D03*
X24500Y-55500D03*
X23500Y-55500D03*
G54D12*
X30500Y-51500D03*
G54D13*
X30500Y-52500D03*
X30500Y-53500D03*
X30500Y-54500D03*
X30500Y-55500D03*
G54D14*
X20500Y-57500D03*
X20500Y-56500D03*
X21500Y-60500D03*
X20500Y-60500D03*
X29000Y-62000D03*
X30000Y-62000D03*
X26500Y-62000D03*
X27500Y-62000D03*
X24000Y-62000D03*
X25000Y-62000D03*
G54D15*
X23500Y-60500D03*
G54D14*
X24500Y-60500D03*
X25500Y-60500D03*
X26500Y-60500D03*
X27500Y-60500D03*
X28500Y-60500D03*
X29500Y-60500D03*
X30500Y-60500D03*
X30500Y-57500D03*
X29500Y-57500D03*
X28500Y-57500D03*
X27500Y-57500D03*
X26500Y-57500D03*
X25500Y-57500D03*
X24500Y-57500D03*
X23500Y-57500D03*
G54D15*
X58000Y-60500D03*
G54D14*
X59000Y-60500D03*
X60000Y-60500D03*
X61000Y-60500D03*
X62000Y-60500D03*
X63000Y-60500D03*
X64000Y-60500D03*
X65000Y-60500D03*
X65000Y-57500D03*
X64000Y-57500D03*
X63000Y-57500D03*
X62000Y-57500D03*
X61000Y-57500D03*
X60000Y-57500D03*
X59000Y-57500D03*
X58000Y-57500D03*
X58500Y-62000D03*
X59500Y-62000D03*
X61000Y-62000D03*
X62000Y-62000D03*
X63500Y-62000D03*
X64500Y-62000D03*
X56000Y-60500D03*
X55000Y-60500D03*
X55000Y-57500D03*
X55000Y-56500D03*
G54D12*
X65000Y-51500D03*
G54D13*
X65000Y-52500D03*
X65000Y-53500D03*
X65000Y-54500D03*
X65000Y-55500D03*
G54D12*
X62000Y-55500D03*
G54D13*
X61000Y-55500D03*
X60000Y-55500D03*
X59000Y-55500D03*
X58000Y-55500D03*
G54D12*
X51500Y-57500D03*
G54D13*
X52500Y-57500D03*
G54D12*
X51500Y-37500D03*
G54D13*
X52500Y-37500D03*
G54D12*
X62000Y-35500D03*
G54D13*
X61000Y-35500D03*
X60000Y-35500D03*
X59000Y-35500D03*
X58000Y-35500D03*
G54D12*
X65000Y-31500D03*
G54D13*
X65000Y-32500D03*
X65000Y-33500D03*
X65000Y-34500D03*
X65000Y-35500D03*
G54D14*
X55000Y-37500D03*
X55000Y-36500D03*
X56000Y-40500D03*
X55000Y-40500D03*
X63500Y-42000D03*
X64500Y-42000D03*
X61000Y-42000D03*
X62000Y-42000D03*
X58500Y-42000D03*
X59500Y-42000D03*
G54D15*
X58000Y-40500D03*
G54D14*
X59000Y-40500D03*
X60000Y-40500D03*
X61000Y-40500D03*
X62000Y-40500D03*
X63000Y-40500D03*
X64000Y-40500D03*
X65000Y-40500D03*
X65000Y-37500D03*
X64000Y-37500D03*
X63000Y-37500D03*
X62000Y-37500D03*
X61000Y-37500D03*
X60000Y-37500D03*
X59000Y-37500D03*
X58000Y-37500D03*
G54D15*
X23500Y-40500D03*
G54D14*
X24500Y-40500D03*
X25500Y-40500D03*
X26500Y-40500D03*
X27500Y-40500D03*
X28500Y-40500D03*
X29500Y-40500D03*
X30500Y-40500D03*
X30500Y-37500D03*
X29500Y-37500D03*
X28500Y-37500D03*
X27500Y-37500D03*
X26500Y-37500D03*
X25500Y-37500D03*
X24500Y-37500D03*
X23500Y-37500D03*
X24000Y-42000D03*
X25000Y-42000D03*
X26500Y-42000D03*
X27500Y-42000D03*
X29000Y-42000D03*
X30000Y-42000D03*
X21500Y-40500D03*
X20500Y-40500D03*
X20500Y-37500D03*
X20500Y-36500D03*
G54D12*
X30500Y-31500D03*
G54D13*
X30500Y-32500D03*
X30500Y-33500D03*
X30500Y-34500D03*
X30500Y-35500D03*
G54D12*
X27500Y-35500D03*
G54D13*
X26500Y-35500D03*
X25500Y-35500D03*
X24500Y-35500D03*
X23500Y-35500D03*
G54D12*
X17000Y-37500D03*
G54D13*
X18000Y-37500D03*
G54D15*
X91000Y-41000D03*
G54D14*
X92000Y-41000D03*
X93000Y-41000D03*
X94000Y-41000D03*
X95000Y-41000D03*
X96000Y-41000D03*
X97000Y-41000D03*
X98000Y-41000D03*
X98000Y-38000D03*
X97000Y-38000D03*
X96000Y-38000D03*
X95000Y-38000D03*
X94000Y-38000D03*
X93000Y-38000D03*
X92000Y-38000D03*
X91000Y-38000D03*
X91500Y-42500D03*
X92500Y-42500D03*
X94000Y-42500D03*
X95000Y-42500D03*
X96500Y-42500D03*
X97500Y-42500D03*
X89000Y-41000D03*
X88000Y-41000D03*
X88000Y-38000D03*
X88000Y-37000D03*
G54D12*
X98000Y-32000D03*
G54D13*
X98000Y-33000D03*
X98000Y-34000D03*
X98000Y-35000D03*
X98000Y-36000D03*
G54D12*
X95000Y-36000D03*
G54D13*
X94000Y-36000D03*
X93000Y-36000D03*
X92000Y-36000D03*
X91000Y-36000D03*
G54D12*
X84500Y-38000D03*
G54D13*
X85500Y-38000D03*
G54D12*
X84500Y-19500D03*
G54D13*
X85500Y-19500D03*
G54D12*
X95000Y-17500D03*
G54D13*
X94000Y-17500D03*
X93000Y-17500D03*
X92000Y-17500D03*
X91000Y-17500D03*
G54D12*
X98000Y-13500D03*
G54D13*
X98000Y-14500D03*
X98000Y-15500D03*
X98000Y-16500D03*
X98000Y-17500D03*
G54D14*
X88000Y-19500D03*
X88000Y-18500D03*
X89000Y-22500D03*
X88000Y-22500D03*
X96500Y-24000D03*
X97500Y-24000D03*
X94000Y-24000D03*
X95000Y-24000D03*
X91500Y-24000D03*
X92500Y-24000D03*
G54D15*
X91000Y-22500D03*
G54D14*
X92000Y-22500D03*
X93000Y-22500D03*
X94000Y-22500D03*
X95000Y-22500D03*
X96000Y-22500D03*
X97000Y-22500D03*
X98000Y-22500D03*
X98000Y-19500D03*
X97000Y-19500D03*
X96000Y-19500D03*
X95000Y-19500D03*
X94000Y-19500D03*
X93000Y-19500D03*
X92000Y-19500D03*
X91000Y-19500D03*
G54D12*
X17000Y-19000D03*
G54D13*
X18000Y-19000D03*
G54D12*
X27500Y-17000D03*
G54D13*
X26500Y-17000D03*
X25500Y-17000D03*
X24500Y-17000D03*
X23500Y-17000D03*
G54D12*
X30500Y-13000D03*
G54D13*
X30500Y-14000D03*
X30500Y-15000D03*
X30500Y-16000D03*
X30500Y-17000D03*
G54D14*
X20500Y-19000D03*
X20500Y-18000D03*
X21500Y-22000D03*
X20500Y-22000D03*
X29000Y-23500D03*
X30000Y-23500D03*
X26500Y-23500D03*
X27500Y-23500D03*
X24000Y-23500D03*
X25000Y-23500D03*
G54D15*
X23500Y-22000D03*
G54D14*
X24500Y-22000D03*
X25500Y-22000D03*
X26500Y-22000D03*
X27500Y-22000D03*
X28500Y-22000D03*
X29500Y-22000D03*
X30500Y-22000D03*
X30500Y-19000D03*
X29500Y-19000D03*
X28500Y-19000D03*
X27500Y-19000D03*
X26500Y-19000D03*
X25500Y-19000D03*
X24500Y-19000D03*
X23500Y-19000D03*
G54D15*
X58000Y-22000D03*
G54D14*
X59000Y-22000D03*
X60000Y-22000D03*
X61000Y-22000D03*
X62000Y-22000D03*
X63000Y-22000D03*
X64000Y-22000D03*
X65000Y-22000D03*
X65000Y-19000D03*
X64000Y-19000D03*
X63000Y-19000D03*
X62000Y-19000D03*
X61000Y-19000D03*
X60000Y-19000D03*
X59000Y-19000D03*
X58000Y-19000D03*
X58500Y-23500D03*
X59500Y-23500D03*
X61000Y-23500D03*
X62000Y-23500D03*
X63500Y-23500D03*
X64500Y-23500D03*
X56000Y-22000D03*
X55000Y-22000D03*
X55000Y-19000D03*
X55000Y-18000D03*
G54D12*
X65000Y-13000D03*
G54D13*
X65000Y-14000D03*
X65000Y-15000D03*
X65000Y-16000D03*
X65000Y-17000D03*
G54D12*
X62000Y-17000D03*
G54D13*
X61000Y-17000D03*
X60000Y-17000D03*
X59000Y-17000D03*
X58000Y-17000D03*
G54D12*
X51500Y-19000D03*
G54D13*
X52500Y-19000D03*
G54D16*
X88000Y-58000D02*
X91000Y-58000D01*
X85500Y-58000D02*
X88000Y-58000D01*
X97500Y-53000D02*
X89000Y-53000D01*
X85500Y-56500D02*
X89000Y-53000D01*
X85500Y-56500D02*
X85500Y-58000D01*
X98000Y-53000D02*
X97500Y-53000D01*
X20500Y-57500D02*
X23500Y-57500D01*
X18000Y-57500D02*
X20500Y-57500D01*
X30000Y-52500D02*
X21500Y-52500D01*
X18000Y-56000D02*
X21500Y-52500D01*
X18000Y-56000D02*
X18000Y-57500D01*
X30500Y-52500D02*
X30000Y-52500D01*
X65000Y-52500D02*
X64500Y-52500D01*
X52500Y-56000D02*
X52500Y-57500D01*
X52500Y-56000D02*
X56000Y-52500D01*
X64500Y-52500D02*
X56000Y-52500D01*
X52500Y-57500D02*
X55000Y-57500D01*
X55000Y-57500D02*
X58000Y-57500D01*
X55000Y-37500D02*
X58000Y-37500D01*
X52500Y-37500D02*
X55000Y-37500D01*
X64500Y-32500D02*
X56000Y-32500D01*
X52500Y-36000D02*
X56000Y-32500D01*
X52500Y-36000D02*
X52500Y-37500D01*
X65000Y-32500D02*
X64500Y-32500D01*
X30500Y-32500D02*
X30000Y-32500D01*
X18000Y-36000D02*
X18000Y-37500D01*
X18000Y-36000D02*
X21500Y-32500D01*
X30000Y-32500D02*
X21500Y-32500D01*
X18000Y-37500D02*
X20500Y-37500D01*
X20500Y-37500D02*
X23500Y-37500D01*
X98000Y-33000D02*
X97500Y-33000D01*
X85500Y-36500D02*
X85500Y-38000D01*
X85500Y-36500D02*
X89000Y-33000D01*
X97500Y-33000D02*
X89000Y-33000D01*
X85500Y-38000D02*
X88000Y-38000D01*
X88000Y-38000D02*
X91000Y-38000D01*
X88000Y-19500D02*
X91000Y-19500D01*
X85500Y-19500D02*
X88000Y-19500D01*
X97500Y-14500D02*
X89000Y-14500D01*
X85500Y-18000D02*
X89000Y-14500D01*
X85500Y-18000D02*
X85500Y-19500D01*
X98000Y-14500D02*
X97500Y-14500D01*
X20500Y-19000D02*
X23500Y-19000D01*
X18000Y-19000D02*
X20500Y-19000D01*
X30000Y-14000D02*
X21500Y-14000D01*
X18000Y-17500D02*
X21500Y-14000D01*
X18000Y-17500D02*
X18000Y-19000D01*
X30500Y-14000D02*
X30000Y-14000D01*
X65000Y-14000D02*
X64500Y-14000D01*
X52500Y-17500D02*
X52500Y-19000D01*
X52500Y-17500D02*
X56000Y-14000D01*
X64500Y-14000D02*
X56000Y-14000D01*
X52500Y-19000D02*
X55000Y-19000D01*
X55000Y-19000D02*
X58000Y-19000D01*
X88000Y-59500D02*
X92000Y-59500D01*
X88000Y-61000D02*
X88000Y-59500D01*
X92000Y-58000D02*
X92000Y-59500D01*
X99000Y-62500D02*
X99500Y-62000D01*
X99500Y-62000D02*
X99500Y-59500D01*
X99500Y-59500D02*
X92000Y-59500D01*
X97500Y-62500D02*
X99000Y-62500D01*
X92000Y-57500D02*
X91500Y-57000D01*
X92000Y-58000D02*
X92000Y-57500D01*
X88000Y-57000D02*
X91500Y-57000D01*
X84500Y-58000D02*
X84500Y-59500D01*
X84500Y-59500D02*
X88000Y-59500D01*
X92000Y-57500D02*
X92000Y-56000D01*
X84500Y-56000D02*
X84500Y-58000D01*
X88500Y-52000D02*
X97500Y-52000D01*
X84500Y-56000D02*
X88500Y-52000D01*
X98000Y-52000D02*
X97500Y-52000D01*
X20500Y-59000D02*
X24500Y-59000D01*
X20500Y-60500D02*
X20500Y-59000D01*
X24500Y-57500D02*
X24500Y-59000D01*
X31500Y-62000D02*
X32000Y-61500D01*
X32000Y-61500D02*
X32000Y-59000D01*
X32000Y-59000D02*
X24500Y-59000D01*
X30000Y-62000D02*
X31500Y-62000D01*
X24500Y-57000D02*
X24000Y-56500D01*
X24500Y-57500D02*
X24500Y-57000D01*
X20500Y-56500D02*
X24000Y-56500D01*
X17000Y-57500D02*
X17000Y-59000D01*
X17000Y-59000D02*
X20500Y-59000D01*
X24500Y-57000D02*
X24500Y-55500D01*
X17000Y-55500D02*
X17000Y-57500D01*
X21000Y-51500D02*
X30000Y-51500D01*
X17000Y-55500D02*
X21000Y-51500D01*
X30500Y-51500D02*
X30000Y-51500D01*
X65000Y-51500D02*
X64500Y-51500D01*
X51500Y-55500D02*
X55500Y-51500D01*
X55500Y-51500D02*
X64500Y-51500D01*
X51500Y-55500D02*
X51500Y-57500D01*
X59000Y-57000D02*
X59000Y-55500D01*
X51500Y-59000D02*
X55000Y-59000D01*
X51500Y-57500D02*
X51500Y-59000D01*
X55000Y-56500D02*
X58500Y-56500D01*
X59000Y-57500D02*
X59000Y-57000D01*
X59000Y-57000D02*
X58500Y-56500D01*
X64500Y-62000D02*
X66000Y-62000D01*
X66500Y-59000D02*
X59000Y-59000D01*
X66500Y-61500D02*
X66500Y-59000D01*
X66000Y-62000D02*
X66500Y-61500D01*
X59000Y-57500D02*
X59000Y-59000D01*
X55000Y-60500D02*
X55000Y-59000D01*
X55000Y-59000D02*
X59000Y-59000D01*
X55000Y-39000D02*
X59000Y-39000D01*
X55000Y-40500D02*
X55000Y-39000D01*
X59000Y-37500D02*
X59000Y-39000D01*
X66000Y-42000D02*
X66500Y-41500D01*
X66500Y-41500D02*
X66500Y-39000D01*
X66500Y-39000D02*
X59000Y-39000D01*
X64500Y-42000D02*
X66000Y-42000D01*
X59000Y-37000D02*
X58500Y-36500D01*
X59000Y-37500D02*
X59000Y-37000D01*
X55000Y-36500D02*
X58500Y-36500D01*
X51500Y-37500D02*
X51500Y-39000D01*
X51500Y-39000D02*
X55000Y-39000D01*
X59000Y-37000D02*
X59000Y-35500D01*
X51500Y-35500D02*
X51500Y-37500D01*
X55500Y-31500D02*
X64500Y-31500D01*
X51500Y-35500D02*
X55500Y-31500D01*
X65000Y-31500D02*
X64500Y-31500D01*
X30500Y-31500D02*
X30000Y-31500D01*
X17000Y-35500D02*
X21000Y-31500D01*
X21000Y-31500D02*
X30000Y-31500D01*
X17000Y-35500D02*
X17000Y-37500D01*
X24500Y-37000D02*
X24500Y-35500D01*
X17000Y-39000D02*
X20500Y-39000D01*
X17000Y-37500D02*
X17000Y-39000D01*
X20500Y-36500D02*
X24000Y-36500D01*
X24500Y-37500D02*
X24500Y-37000D01*
X24500Y-37000D02*
X24000Y-36500D01*
X30000Y-42000D02*
X31500Y-42000D01*
X32000Y-39000D02*
X24500Y-39000D01*
X32000Y-41500D02*
X32000Y-39000D01*
X31500Y-42000D02*
X32000Y-41500D01*
X24500Y-37500D02*
X24500Y-39000D01*
X20500Y-40500D02*
X20500Y-39000D01*
X20500Y-39000D02*
X24500Y-39000D01*
X98000Y-32000D02*
X97500Y-32000D01*
X84500Y-36000D02*
X88500Y-32000D01*
X88500Y-32000D02*
X97500Y-32000D01*
X84500Y-36000D02*
X84500Y-38000D01*
X92000Y-37500D02*
X92000Y-36000D01*
X84500Y-39500D02*
X88000Y-39500D01*
X84500Y-38000D02*
X84500Y-39500D01*
X88000Y-37000D02*
X91500Y-37000D01*
X92000Y-38000D02*
X92000Y-37500D01*
X92000Y-37500D02*
X91500Y-37000D01*
X97500Y-42500D02*
X99000Y-42500D01*
X99500Y-39500D02*
X92000Y-39500D01*
X99500Y-42000D02*
X99500Y-39500D01*
X99000Y-42500D02*
X99500Y-42000D01*
X92000Y-38000D02*
X92000Y-39500D01*
X88000Y-41000D02*
X88000Y-39500D01*
X88000Y-39500D02*
X92000Y-39500D01*
X88000Y-21000D02*
X92000Y-21000D01*
X88000Y-22500D02*
X88000Y-21000D01*
X92000Y-19500D02*
X92000Y-21000D01*
X99000Y-24000D02*
X99500Y-23500D01*
X99500Y-23500D02*
X99500Y-21000D01*
X99500Y-21000D02*
X92000Y-21000D01*
X97500Y-24000D02*
X99000Y-24000D01*
X92000Y-19000D02*
X91500Y-18500D01*
X92000Y-19500D02*
X92000Y-19000D01*
X88000Y-18500D02*
X91500Y-18500D01*
X84500Y-19500D02*
X84500Y-21000D01*
X84500Y-21000D02*
X88000Y-21000D01*
X92000Y-19000D02*
X92000Y-17500D01*
X84500Y-17500D02*
X84500Y-19500D01*
X88500Y-13500D02*
X97500Y-13500D01*
X84500Y-17500D02*
X88500Y-13500D01*
X98000Y-13500D02*
X97500Y-13500D01*
X20500Y-20500D02*
X24500Y-20500D01*
X20500Y-22000D02*
X20500Y-20500D01*
X24500Y-19000D02*
X24500Y-20500D01*
X31500Y-23500D02*
X32000Y-23000D01*
X32000Y-23000D02*
X32000Y-20500D01*
X32000Y-20500D02*
X24500Y-20500D01*
X30000Y-23500D02*
X31500Y-23500D01*
X24500Y-18500D02*
X24000Y-18000D01*
X24500Y-19000D02*
X24500Y-18500D01*
X20500Y-18000D02*
X24000Y-18000D01*
X17000Y-19000D02*
X17000Y-20500D01*
X17000Y-20500D02*
X20500Y-20500D01*
X24500Y-18500D02*
X24500Y-17000D01*
X17000Y-17000D02*
X17000Y-19000D01*
X21000Y-13000D02*
X30000Y-13000D01*
X17000Y-17000D02*
X21000Y-13000D01*
X30500Y-13000D02*
X30000Y-13000D01*
X65000Y-13000D02*
X64500Y-13000D01*
X51500Y-17000D02*
X55500Y-13000D01*
X55500Y-13000D02*
X64500Y-13000D01*
X51500Y-17000D02*
X51500Y-19000D01*
X59000Y-18500D02*
X59000Y-17000D01*
X51500Y-20500D02*
X55000Y-20500D01*
X51500Y-19000D02*
X51500Y-20500D01*
X55000Y-18000D02*
X58500Y-18000D01*
X59000Y-19000D02*
X59000Y-18500D01*
X59000Y-18500D02*
X58500Y-18000D01*
X64500Y-23500D02*
X66000Y-23500D01*
X66500Y-20500D02*
X59000Y-20500D01*
X66500Y-23000D02*
X66500Y-20500D01*
X66000Y-23500D02*
X66500Y-23000D01*
X59000Y-19000D02*
X59000Y-20500D01*
X55000Y-22000D02*
X55000Y-20500D01*
X55000Y-20500D02*
X59000Y-20500D01*
X94000Y-57000D02*
X95000Y-56000D01*
X94000Y-58000D02*
X94000Y-57000D01*
X26500Y-56500D02*
X27500Y-55500D01*
X26500Y-57500D02*
X26500Y-56500D01*
X61000Y-57500D02*
X61000Y-56500D01*
X61000Y-56500D02*
X62000Y-55500D01*
X61000Y-36500D02*
X62000Y-35500D01*
X61000Y-37500D02*
X61000Y-36500D01*
X26500Y-37500D02*
X26500Y-36500D01*
X26500Y-36500D02*
X27500Y-35500D01*
X94000Y-38000D02*
X94000Y-37000D01*
X94000Y-37000D02*
X95000Y-36000D01*
X94000Y-18500D02*
X95000Y-17500D01*
X94000Y-19500D02*
X94000Y-18500D01*
X26500Y-18000D02*
X27500Y-17000D01*
X26500Y-19000D02*
X26500Y-18000D01*
X61000Y-19000D02*
X61000Y-18000D01*
X61000Y-18000D02*
X62000Y-17000D01*
X95000Y-57000D02*
X98000Y-54000D01*
X95000Y-58000D02*
X95000Y-57000D01*
X27500Y-56500D02*
X30500Y-53500D01*
X27500Y-57500D02*
X27500Y-56500D01*
X62000Y-57500D02*
X62000Y-56500D01*
X62000Y-56500D02*
X65000Y-53500D01*
X62000Y-36500D02*
X65000Y-33500D01*
X62000Y-37500D02*
X62000Y-36500D01*
X27500Y-37500D02*
X27500Y-36500D01*
X27500Y-36500D02*
X30500Y-33500D01*
X95000Y-38000D02*
X95000Y-37000D01*
X95000Y-37000D02*
X98000Y-34000D01*
X95000Y-18500D02*
X98000Y-15500D01*
X95000Y-19500D02*
X95000Y-18500D01*
X27500Y-18000D02*
X30500Y-15000D01*
X27500Y-19000D02*
X27500Y-18000D01*
X62000Y-19000D02*
X62000Y-18000D01*
X62000Y-18000D02*
X65000Y-15000D01*
X95000Y-61000D02*
X95000Y-62500D01*
X27500Y-60500D02*
X27500Y-62000D01*
X62000Y-60500D02*
X62000Y-62000D01*
X62000Y-40500D02*
X62000Y-42000D01*
X27500Y-40500D02*
X27500Y-42000D01*
X95000Y-41000D02*
X95000Y-42500D01*
X95000Y-22500D02*
X95000Y-24000D01*
X27500Y-22000D02*
X27500Y-23500D01*
X62000Y-22000D02*
X62000Y-23500D01*
X93000Y-62000D02*
X92500Y-62500D01*
X93000Y-61000D02*
X93000Y-62000D01*
X25500Y-61500D02*
X25000Y-62000D01*
X25500Y-60500D02*
X25500Y-61500D01*
X60000Y-60500D02*
X60000Y-61500D01*
X60000Y-61500D02*
X59500Y-62000D01*
X60000Y-41500D02*
X59500Y-42000D01*
X60000Y-40500D02*
X60000Y-41500D01*
X25500Y-40500D02*
X25500Y-41500D01*
X25500Y-41500D02*
X25000Y-42000D01*
X93000Y-41000D02*
X93000Y-42000D01*
X93000Y-42000D02*
X92500Y-42500D01*
X93000Y-23500D02*
X92500Y-24000D01*
X93000Y-22500D02*
X93000Y-23500D01*
X25500Y-23000D02*
X25000Y-23500D01*
X25500Y-22000D02*
X25500Y-23000D01*
X60000Y-22000D02*
X60000Y-23000D01*
X60000Y-23000D02*
X59500Y-23500D01*
X93000Y-57000D02*
X94000Y-56000D01*
X93000Y-58000D02*
X93000Y-57000D01*
X25500Y-56500D02*
X26500Y-55500D01*
X25500Y-57500D02*
X25500Y-56500D01*
X60000Y-57500D02*
X60000Y-56500D01*
X60000Y-56500D02*
X61000Y-55500D01*
X60000Y-36500D02*
X61000Y-35500D01*
X60000Y-37500D02*
X60000Y-36500D01*
X25500Y-37500D02*
X25500Y-36500D01*
X25500Y-36500D02*
X26500Y-35500D01*
X93000Y-38000D02*
X93000Y-37000D01*
X93000Y-37000D02*
X94000Y-36000D01*
X93000Y-18500D02*
X94000Y-17500D01*
X93000Y-19500D02*
X93000Y-18500D01*
X25500Y-18000D02*
X26500Y-17000D01*
X25500Y-19000D02*
X25500Y-18000D01*
X60000Y-19000D02*
X60000Y-18000D01*
X60000Y-18000D02*
X61000Y-17000D01*
X96000Y-57000D02*
X98000Y-55000D01*
X96000Y-58000D02*
X96000Y-57000D01*
X28500Y-56500D02*
X30500Y-54500D01*
X28500Y-57500D02*
X28500Y-56500D01*
X63000Y-57500D02*
X63000Y-56500D01*
X63000Y-56500D02*
X65000Y-54500D01*
X63000Y-36500D02*
X65000Y-34500D01*
X63000Y-37500D02*
X63000Y-36500D01*
X28500Y-37500D02*
X28500Y-36500D01*
X28500Y-36500D02*
X30500Y-34500D01*
X96000Y-38000D02*
X96000Y-37000D01*
X96000Y-37000D02*
X98000Y-35000D01*
X96000Y-18500D02*
X98000Y-16500D01*
X96000Y-19500D02*
X96000Y-18500D01*
X28500Y-18000D02*
X30500Y-16000D01*
X28500Y-19000D02*
X28500Y-18000D01*
X63000Y-19000D02*
X63000Y-18000D01*
X63000Y-18000D02*
X65000Y-16000D01*
X96000Y-62000D02*
X96500Y-62500D01*
X96000Y-61000D02*
X96000Y-62000D01*
X28500Y-61500D02*
X29000Y-62000D01*
X28500Y-60500D02*
X28500Y-61500D01*
X63000Y-60500D02*
X63000Y-61500D01*
X63000Y-61500D02*
X63500Y-62000D01*
X63000Y-41500D02*
X63500Y-42000D01*
X63000Y-40500D02*
X63000Y-41500D01*
X28500Y-40500D02*
X28500Y-41500D01*
X28500Y-41500D02*
X29000Y-42000D01*
X96000Y-41000D02*
X96000Y-42000D01*
X96000Y-42000D02*
X96500Y-42500D01*
X96000Y-23500D02*
X96500Y-24000D01*
X96000Y-22500D02*
X96000Y-23500D01*
X28500Y-23000D02*
X29000Y-23500D01*
X28500Y-22000D02*
X28500Y-23000D01*
X63000Y-22000D02*
X63000Y-23000D01*
X63000Y-23000D02*
X63500Y-23500D01*
X89500Y-60000D02*
X91500Y-60000D01*
X91500Y-60000D02*
X92000Y-60500D01*
X89000Y-60500D02*
X89500Y-60000D01*
X92000Y-60500D02*
X92000Y-61000D01*
X89000Y-61000D02*
X89000Y-60500D01*
X22000Y-59500D02*
X24000Y-59500D01*
X24000Y-59500D02*
X24500Y-60000D01*
X21500Y-60000D02*
X22000Y-59500D01*
X24500Y-60000D02*
X24500Y-60500D01*
X21500Y-60500D02*
X21500Y-60000D01*
X56000Y-60500D02*
X56000Y-60000D01*
X59000Y-60000D02*
X59000Y-60500D01*
X56000Y-60000D02*
X56500Y-59500D01*
X58500Y-59500D02*
X59000Y-60000D01*
X56500Y-59500D02*
X58500Y-59500D01*
X56500Y-39500D02*
X58500Y-39500D01*
X58500Y-39500D02*
X59000Y-40000D01*
X56000Y-40000D02*
X56500Y-39500D01*
X59000Y-40000D02*
X59000Y-40500D01*
X56000Y-40500D02*
X56000Y-40000D01*
X21500Y-40500D02*
X21500Y-40000D01*
X24500Y-40000D02*
X24500Y-40500D01*
X21500Y-40000D02*
X22000Y-39500D01*
X24000Y-39500D02*
X24500Y-40000D01*
X22000Y-39500D02*
X24000Y-39500D01*
X89000Y-41000D02*
X89000Y-40500D01*
X92000Y-40500D02*
X92000Y-41000D01*
X89000Y-40500D02*
X89500Y-40000D01*
X91500Y-40000D02*
X92000Y-40500D01*
X89500Y-40000D02*
X91500Y-40000D01*
X89500Y-21500D02*
X91500Y-21500D01*
X91500Y-21500D02*
X92000Y-22000D01*
X89000Y-22000D02*
X89500Y-21500D01*
X92000Y-22000D02*
X92000Y-22500D01*
X89000Y-22500D02*
X89000Y-22000D01*
X22000Y-21000D02*
X24000Y-21000D01*
X24000Y-21000D02*
X24500Y-21500D01*
X21500Y-21500D02*
X22000Y-21000D01*
X24500Y-21500D02*
X24500Y-22000D01*
X21500Y-22000D02*
X21500Y-21500D01*
X56000Y-22000D02*
X56000Y-21500D01*
X59000Y-21500D02*
X59000Y-22000D01*
X56000Y-21500D02*
X56500Y-21000D01*
X58500Y-21000D02*
X59000Y-21500D01*
X56500Y-21000D02*
X58500Y-21000D01*
X94000Y-61000D02*
X94000Y-62500D01*
X26500Y-60500D02*
X26500Y-62000D01*
X61000Y-60500D02*
X61000Y-62000D01*
X61000Y-40500D02*
X61000Y-42000D01*
X26500Y-40500D02*
X26500Y-42000D01*
X94000Y-41000D02*
X94000Y-42500D01*
X94000Y-22500D02*
X94000Y-24000D01*
X26500Y-22000D02*
X26500Y-23500D01*
X61000Y-22000D02*
X61000Y-23500D01*
X91000Y-62000D02*
X91500Y-62500D01*
X91000Y-61000D02*
X91000Y-62000D01*
X23500Y-61500D02*
X24000Y-62000D01*
X23500Y-60500D02*
X23500Y-61500D01*
X58000Y-60500D02*
X58000Y-61500D01*
X58000Y-61500D02*
X58500Y-62000D01*
X58000Y-41500D02*
X58500Y-42000D01*
X58000Y-40500D02*
X58000Y-41500D01*
X23500Y-40500D02*
X23500Y-41500D01*
X23500Y-41500D02*
X24000Y-42000D01*
X91000Y-41000D02*
X91000Y-42000D01*
X91000Y-42000D02*
X91500Y-42500D01*
X91000Y-23500D02*
X91500Y-24000D01*
X91000Y-22500D02*
X91000Y-23500D01*
X23500Y-23000D02*
X24000Y-23500D01*
X23500Y-22000D02*
X23500Y-23000D01*
X58000Y-22000D02*
X58000Y-23000D01*
X58000Y-23000D02*
X58500Y-23500D01*
G54D10*
G36*
X67950Y-24979D02*
X67479Y-25450D01*
X66550Y-25450D01*
X66550Y-19521D01*
X66550Y-13979D01*
X66021Y-13450D01*
X65502Y-13450D01*
X65511Y-13441D01*
X65549Y-13349D01*
X65550Y-13112D01*
X65550Y-12888D01*
X65549Y-12651D01*
X65511Y-12559D01*
X65441Y-12489D01*
X65350Y-12451D01*
X65251Y-12451D01*
X65112Y-12450D01*
X65050Y-12512D01*
X65050Y-12950D01*
X65488Y-12950D01*
X65550Y-12888D01*
X65550Y-13112D01*
X65488Y-13050D01*
X65100Y-13050D01*
X65050Y-13050D01*
X64950Y-13050D01*
X64950Y-12950D01*
X64950Y-12512D01*
X64888Y-12450D01*
X64749Y-12451D01*
X64650Y-12451D01*
X64559Y-12489D01*
X64489Y-12559D01*
X64451Y-12651D01*
X64450Y-12888D01*
X64512Y-12950D01*
X64950Y-12950D01*
X64950Y-13050D01*
X64900Y-13050D01*
X64512Y-13050D01*
X64450Y-13112D01*
X64451Y-13349D01*
X64489Y-13441D01*
X64498Y-13450D01*
X55479Y-13450D01*
X51950Y-16979D01*
X51950Y-18498D01*
X51941Y-18489D01*
X51849Y-18451D01*
X51612Y-18450D01*
X51550Y-18512D01*
X51550Y-18900D01*
X51550Y-18950D01*
X51550Y-19050D01*
X51550Y-19100D01*
X51550Y-19488D01*
X51612Y-19550D01*
X51849Y-19549D01*
X51941Y-19511D01*
X51950Y-19502D01*
X51950Y-20050D01*
X58021Y-20050D01*
X58550Y-19521D01*
X58550Y-19267D01*
X58639Y-19290D01*
X58929Y-19000D01*
X58639Y-18710D01*
X58550Y-18732D01*
X58550Y-18450D01*
X55519Y-18450D01*
X55519Y-18074D01*
X55508Y-17870D01*
X55452Y-17733D01*
X55361Y-17710D01*
X55290Y-17781D01*
X55290Y-17639D01*
X55267Y-17548D01*
X55074Y-17481D01*
X54870Y-17492D01*
X54733Y-17548D01*
X54710Y-17639D01*
X55000Y-17929D01*
X55290Y-17639D01*
X55290Y-17781D01*
X55071Y-18000D01*
X55361Y-18290D01*
X55452Y-18267D01*
X55519Y-18074D01*
X55519Y-18450D01*
X55267Y-18450D01*
X55290Y-18361D01*
X55000Y-18071D01*
X54929Y-18142D01*
X54929Y-18000D01*
X54639Y-17710D01*
X54548Y-17733D01*
X54481Y-17926D01*
X54492Y-18130D01*
X54548Y-18267D01*
X54639Y-18290D01*
X54929Y-18000D01*
X54929Y-18142D01*
X54710Y-18361D01*
X54732Y-18450D01*
X54050Y-18450D01*
X54050Y-17021D01*
X56521Y-14550D01*
X62979Y-14550D01*
X63450Y-15021D01*
X63450Y-15479D01*
X62979Y-15950D01*
X59450Y-15950D01*
X59450Y-16712D01*
X59378Y-16692D01*
X59308Y-16762D01*
X59308Y-16622D01*
X59281Y-16528D01*
X59079Y-16457D01*
X58866Y-16468D01*
X58719Y-16528D01*
X58692Y-16622D01*
X59000Y-16929D01*
X59308Y-16622D01*
X59308Y-16762D01*
X59071Y-17000D01*
X59378Y-17308D01*
X59450Y-17287D01*
X59450Y-18732D01*
X59361Y-18710D01*
X59308Y-18763D01*
X59308Y-17378D01*
X59000Y-17071D01*
X58929Y-17141D01*
X58929Y-17000D01*
X58622Y-16692D01*
X58528Y-16719D01*
X58504Y-16784D01*
X58465Y-16689D01*
X58311Y-16535D01*
X58109Y-16451D01*
X57891Y-16451D01*
X57689Y-16535D01*
X57535Y-16689D01*
X57451Y-16891D01*
X57451Y-17109D01*
X57535Y-17311D01*
X57689Y-17465D01*
X57891Y-17549D01*
X58109Y-17549D01*
X58311Y-17465D01*
X58465Y-17311D01*
X58502Y-17219D01*
X58528Y-17281D01*
X58622Y-17308D01*
X58929Y-17000D01*
X58929Y-17141D01*
X58692Y-17378D01*
X58719Y-17472D01*
X58921Y-17543D01*
X59134Y-17532D01*
X59281Y-17472D01*
X59308Y-17378D01*
X59308Y-18763D01*
X59290Y-18781D01*
X59290Y-18639D01*
X59267Y-18548D01*
X59074Y-18481D01*
X58870Y-18492D01*
X58733Y-18548D01*
X58710Y-18639D01*
X59000Y-18929D01*
X59290Y-18639D01*
X59290Y-18781D01*
X59071Y-19000D01*
X59361Y-19290D01*
X59450Y-19267D01*
X59450Y-20050D01*
X66021Y-20050D01*
X66550Y-19521D01*
X66550Y-25450D01*
X66050Y-25450D01*
X66050Y-22550D01*
X66050Y-21479D01*
X65521Y-20950D01*
X59521Y-20950D01*
X59290Y-20719D01*
X59290Y-19361D01*
X59000Y-19071D01*
X58710Y-19361D01*
X58733Y-19452D01*
X58926Y-19519D01*
X59130Y-19508D01*
X59267Y-19452D01*
X59290Y-19361D01*
X59290Y-20719D01*
X59021Y-20450D01*
X55979Y-20450D01*
X55450Y-20979D01*
X55450Y-21732D01*
X55361Y-21710D01*
X55290Y-21781D01*
X55290Y-21639D01*
X55267Y-21548D01*
X55074Y-21481D01*
X54870Y-21492D01*
X54733Y-21548D01*
X54710Y-21639D01*
X55000Y-21929D01*
X55290Y-21639D01*
X55290Y-21781D01*
X55071Y-22000D01*
X55361Y-22290D01*
X55450Y-22267D01*
X55450Y-23021D01*
X55979Y-23550D01*
X56979Y-23550D01*
X57979Y-24550D01*
X63521Y-24550D01*
X64050Y-24021D01*
X64050Y-23767D01*
X64139Y-23790D01*
X64429Y-23500D01*
X64139Y-23210D01*
X64050Y-23232D01*
X64050Y-23021D01*
X64521Y-22550D01*
X66050Y-22550D01*
X66050Y-25450D01*
X65019Y-25450D01*
X65019Y-23574D01*
X65008Y-23370D01*
X64952Y-23233D01*
X64861Y-23210D01*
X64790Y-23281D01*
X64790Y-23139D01*
X64767Y-23048D01*
X64574Y-22981D01*
X64370Y-22992D01*
X64233Y-23048D01*
X64210Y-23139D01*
X64500Y-23429D01*
X64790Y-23139D01*
X64790Y-23281D01*
X64571Y-23500D01*
X64861Y-23790D01*
X64952Y-23767D01*
X65019Y-23574D01*
X65019Y-25450D01*
X64790Y-25450D01*
X64790Y-23861D01*
X64500Y-23571D01*
X64210Y-23861D01*
X64233Y-23952D01*
X64426Y-24019D01*
X64630Y-24008D01*
X64767Y-23952D01*
X64790Y-23861D01*
X64790Y-25450D01*
X55290Y-25450D01*
X55290Y-22361D01*
X55000Y-22071D01*
X54929Y-22142D01*
X54929Y-22000D01*
X54639Y-21710D01*
X54548Y-21733D01*
X54481Y-21926D01*
X54492Y-22130D01*
X54548Y-22267D01*
X54639Y-22290D01*
X54929Y-22000D01*
X54929Y-22142D01*
X54710Y-22361D01*
X54733Y-22452D01*
X54926Y-22519D01*
X55130Y-22508D01*
X55267Y-22452D01*
X55290Y-22361D01*
X55290Y-25450D01*
X54354Y-25450D01*
X54354Y-24870D01*
X54354Y-23010D01*
X51450Y-23010D01*
X51450Y-19488D01*
X51450Y-19050D01*
X51450Y-18950D01*
X51450Y-18512D01*
X51388Y-18450D01*
X51151Y-18451D01*
X51059Y-18489D01*
X50989Y-18559D01*
X50951Y-18650D01*
X50951Y-18749D01*
X50950Y-18888D01*
X51012Y-18950D01*
X51450Y-18950D01*
X51450Y-19050D01*
X51012Y-19050D01*
X50950Y-19112D01*
X50951Y-19251D01*
X50951Y-19350D01*
X50989Y-19441D01*
X51059Y-19511D01*
X51151Y-19549D01*
X51388Y-19550D01*
X51450Y-19488D01*
X51450Y-23010D01*
X50527Y-23010D01*
X50527Y-24870D01*
X54354Y-24870D01*
X54354Y-25450D01*
X50521Y-25450D01*
X50050Y-24979D01*
X50050Y-12021D01*
X50521Y-11550D01*
X67479Y-11550D01*
X67950Y-12021D01*
X67950Y-24979D01*
X67950Y-24979D01*
G37*
G54D17*
X67950Y-24979D02*
X67479Y-25450D01*
X66550Y-25450D01*
X66550Y-19521D01*
X66550Y-13979D01*
X66021Y-13450D01*
X65502Y-13450D01*
X65511Y-13441D01*
X65549Y-13349D01*
X65550Y-13112D01*
X65550Y-12888D01*
X65549Y-12651D01*
X65511Y-12559D01*
X65441Y-12489D01*
X65350Y-12451D01*
X65251Y-12451D01*
X65112Y-12450D01*
X65050Y-12512D01*
X65050Y-12950D01*
X65488Y-12950D01*
X65550Y-12888D01*
X65550Y-13112D01*
X65488Y-13050D01*
X65100Y-13050D01*
X65050Y-13050D01*
X64950Y-13050D01*
X64950Y-12950D01*
X64950Y-12512D01*
X64888Y-12450D01*
X64749Y-12451D01*
X64650Y-12451D01*
X64559Y-12489D01*
X64489Y-12559D01*
X64451Y-12651D01*
X64450Y-12888D01*
X64512Y-12950D01*
X64950Y-12950D01*
X64950Y-13050D01*
X64900Y-13050D01*
X64512Y-13050D01*
X64450Y-13112D01*
X64451Y-13349D01*
X64489Y-13441D01*
X64498Y-13450D01*
X55479Y-13450D01*
X51950Y-16979D01*
X51950Y-18498D01*
X51941Y-18489D01*
X51849Y-18451D01*
X51612Y-18450D01*
X51550Y-18512D01*
X51550Y-18900D01*
X51550Y-18950D01*
X51550Y-19050D01*
X51550Y-19100D01*
X51550Y-19488D01*
X51612Y-19550D01*
X51849Y-19549D01*
X51941Y-19511D01*
X51950Y-19502D01*
X51950Y-20050D01*
X58021Y-20050D01*
X58550Y-19521D01*
X58550Y-19267D01*
X58639Y-19290D01*
X58929Y-19000D01*
X58639Y-18710D01*
X58550Y-18732D01*
X58550Y-18450D01*
X55519Y-18450D01*
X55519Y-18074D01*
X55508Y-17870D01*
X55452Y-17733D01*
X55361Y-17710D01*
X55290Y-17781D01*
X55290Y-17639D01*
X55267Y-17548D01*
X55074Y-17481D01*
X54870Y-17492D01*
X54733Y-17548D01*
X54710Y-17639D01*
X55000Y-17929D01*
X55290Y-17639D01*
X55290Y-17781D01*
X55071Y-18000D01*
X55361Y-18290D01*
X55452Y-18267D01*
X55519Y-18074D01*
X55519Y-18450D01*
X55267Y-18450D01*
X55290Y-18361D01*
X55000Y-18071D01*
X54929Y-18142D01*
X54929Y-18000D01*
X54639Y-17710D01*
X54548Y-17733D01*
X54481Y-17926D01*
X54492Y-18130D01*
X54548Y-18267D01*
X54639Y-18290D01*
X54929Y-18000D01*
X54929Y-18142D01*
X54710Y-18361D01*
X54732Y-18450D01*
X54050Y-18450D01*
X54050Y-17021D01*
X56521Y-14550D01*
X62979Y-14550D01*
X63450Y-15021D01*
X63450Y-15479D01*
X62979Y-15950D01*
X59450Y-15950D01*
X59450Y-16712D01*
X59378Y-16692D01*
X59308Y-16762D01*
X59308Y-16622D01*
X59281Y-16528D01*
X59079Y-16457D01*
X58866Y-16468D01*
X58719Y-16528D01*
X58692Y-16622D01*
X59000Y-16929D01*
X59308Y-16622D01*
X59308Y-16762D01*
X59071Y-17000D01*
X59378Y-17308D01*
X59450Y-17287D01*
X59450Y-18732D01*
X59361Y-18710D01*
X59308Y-18763D01*
X59308Y-17378D01*
X59000Y-17071D01*
X58929Y-17141D01*
X58929Y-17000D01*
X58622Y-16692D01*
X58528Y-16719D01*
X58504Y-16784D01*
X58465Y-16689D01*
X58311Y-16535D01*
X58109Y-16451D01*
X57891Y-16451D01*
X57689Y-16535D01*
X57535Y-16689D01*
X57451Y-16891D01*
X57451Y-17109D01*
X57535Y-17311D01*
X57689Y-17465D01*
X57891Y-17549D01*
X58109Y-17549D01*
X58311Y-17465D01*
X58465Y-17311D01*
X58502Y-17219D01*
X58528Y-17281D01*
X58622Y-17308D01*
X58929Y-17000D01*
X58929Y-17141D01*
X58692Y-17378D01*
X58719Y-17472D01*
X58921Y-17543D01*
X59134Y-17532D01*
X59281Y-17472D01*
X59308Y-17378D01*
X59308Y-18763D01*
X59290Y-18781D01*
X59290Y-18639D01*
X59267Y-18548D01*
X59074Y-18481D01*
X58870Y-18492D01*
X58733Y-18548D01*
X58710Y-18639D01*
X59000Y-18929D01*
X59290Y-18639D01*
X59290Y-18781D01*
X59071Y-19000D01*
X59361Y-19290D01*
X59450Y-19267D01*
X59450Y-20050D01*
X66021Y-20050D01*
X66550Y-19521D01*
X66550Y-25450D01*
X66050Y-25450D01*
X66050Y-22550D01*
X66050Y-21479D01*
X65521Y-20950D01*
X59521Y-20950D01*
X59290Y-20719D01*
X59290Y-19361D01*
X59000Y-19071D01*
X58710Y-19361D01*
X58733Y-19452D01*
X58926Y-19519D01*
X59130Y-19508D01*
X59267Y-19452D01*
X59290Y-19361D01*
X59290Y-20719D01*
X59021Y-20450D01*
X55979Y-20450D01*
X55450Y-20979D01*
X55450Y-21732D01*
X55361Y-21710D01*
X55290Y-21781D01*
X55290Y-21639D01*
X55267Y-21548D01*
X55074Y-21481D01*
X54870Y-21492D01*
X54733Y-21548D01*
X54710Y-21639D01*
X55000Y-21929D01*
X55290Y-21639D01*
X55290Y-21781D01*
X55071Y-22000D01*
X55361Y-22290D01*
X55450Y-22267D01*
X55450Y-23021D01*
X55979Y-23550D01*
X56979Y-23550D01*
X57979Y-24550D01*
X63521Y-24550D01*
X64050Y-24021D01*
X64050Y-23767D01*
X64139Y-23790D01*
X64429Y-23500D01*
X64139Y-23210D01*
X64050Y-23232D01*
X64050Y-23021D01*
X64521Y-22550D01*
X66050Y-22550D01*
X66050Y-25450D01*
X65019Y-25450D01*
X65019Y-23574D01*
X65008Y-23370D01*
X64952Y-23233D01*
X64861Y-23210D01*
X64790Y-23281D01*
X64790Y-23139D01*
X64767Y-23048D01*
X64574Y-22981D01*
X64370Y-22992D01*
X64233Y-23048D01*
X64210Y-23139D01*
X64500Y-23429D01*
X64790Y-23139D01*
X64790Y-23281D01*
X64571Y-23500D01*
X64861Y-23790D01*
X64952Y-23767D01*
X65019Y-23574D01*
X65019Y-25450D01*
X64790Y-25450D01*
X64790Y-23861D01*
X64500Y-23571D01*
X64210Y-23861D01*
X64233Y-23952D01*
X64426Y-24019D01*
X64630Y-24008D01*
X64767Y-23952D01*
X64790Y-23861D01*
X64790Y-25450D01*
X55290Y-25450D01*
X55290Y-22361D01*
X55000Y-22071D01*
X54929Y-22142D01*
X54929Y-22000D01*
X54639Y-21710D01*
X54548Y-21733D01*
X54481Y-21926D01*
X54492Y-22130D01*
X54548Y-22267D01*
X54639Y-22290D01*
X54929Y-22000D01*
X54929Y-22142D01*
X54710Y-22361D01*
X54733Y-22452D01*
X54926Y-22519D01*
X55130Y-22508D01*
X55267Y-22452D01*
X55290Y-22361D01*
X55290Y-25450D01*
X54354Y-25450D01*
X54354Y-24870D01*
X54354Y-23010D01*
X51450Y-23010D01*
X51450Y-19488D01*
X51450Y-19050D01*
X51450Y-18950D01*
X51450Y-18512D01*
X51388Y-18450D01*
X51151Y-18451D01*
X51059Y-18489D01*
X50989Y-18559D01*
X50951Y-18650D01*
X50951Y-18749D01*
X50950Y-18888D01*
X51012Y-18950D01*
X51450Y-18950D01*
X51450Y-19050D01*
X51012Y-19050D01*
X50950Y-19112D01*
X50951Y-19251D01*
X50951Y-19350D01*
X50989Y-19441D01*
X51059Y-19511D01*
X51151Y-19549D01*
X51388Y-19550D01*
X51450Y-19488D01*
X51450Y-23010D01*
X50527Y-23010D01*
X50527Y-24870D01*
X54354Y-24870D01*
X54354Y-25450D01*
X50521Y-25450D01*
X50050Y-24979D01*
X50050Y-12021D01*
X50521Y-11550D01*
X67479Y-11550D01*
X67950Y-12021D01*
X67950Y-24979D01*
G54D10*
G36*
X33450Y-24979D02*
X32979Y-25450D01*
X32050Y-25450D01*
X32050Y-19521D01*
X32050Y-13979D01*
X31521Y-13450D01*
X31002Y-13450D01*
X31011Y-13441D01*
X31049Y-13349D01*
X31050Y-13112D01*
X31050Y-12888D01*
X31049Y-12651D01*
X31011Y-12559D01*
X30941Y-12489D01*
X30850Y-12451D01*
X30751Y-12451D01*
X30612Y-12450D01*
X30550Y-12512D01*
X30550Y-12950D01*
X30988Y-12950D01*
X31050Y-12888D01*
X31050Y-13112D01*
X30988Y-13050D01*
X30600Y-13050D01*
X30550Y-13050D01*
X30450Y-13050D01*
X30450Y-12950D01*
X30450Y-12512D01*
X30388Y-12450D01*
X30249Y-12451D01*
X30150Y-12451D01*
X30059Y-12489D01*
X29989Y-12559D01*
X29951Y-12651D01*
X29950Y-12888D01*
X30012Y-12950D01*
X30450Y-12950D01*
X30450Y-13050D01*
X30400Y-13050D01*
X30012Y-13050D01*
X29950Y-13112D01*
X29951Y-13349D01*
X29989Y-13441D01*
X29998Y-13450D01*
X20979Y-13450D01*
X17450Y-16979D01*
X17450Y-18498D01*
X17441Y-18489D01*
X17349Y-18451D01*
X17112Y-18450D01*
X17050Y-18512D01*
X17050Y-18900D01*
X17050Y-18950D01*
X17050Y-19050D01*
X17050Y-19100D01*
X17050Y-19488D01*
X17112Y-19550D01*
X17349Y-19549D01*
X17441Y-19511D01*
X17450Y-19502D01*
X17450Y-20050D01*
X23521Y-20050D01*
X24050Y-19521D01*
X24050Y-19267D01*
X24139Y-19290D01*
X24429Y-19000D01*
X24139Y-18710D01*
X24050Y-18732D01*
X24050Y-18450D01*
X21019Y-18450D01*
X21019Y-18074D01*
X21008Y-17870D01*
X20952Y-17733D01*
X20861Y-17710D01*
X20790Y-17781D01*
X20790Y-17639D01*
X20767Y-17548D01*
X20574Y-17481D01*
X20370Y-17492D01*
X20233Y-17548D01*
X20210Y-17639D01*
X20500Y-17929D01*
X20790Y-17639D01*
X20790Y-17781D01*
X20571Y-18000D01*
X20861Y-18290D01*
X20952Y-18267D01*
X21019Y-18074D01*
X21019Y-18450D01*
X20767Y-18450D01*
X20790Y-18361D01*
X20500Y-18071D01*
X20429Y-18142D01*
X20429Y-18000D01*
X20139Y-17710D01*
X20048Y-17733D01*
X19981Y-17926D01*
X19992Y-18130D01*
X20048Y-18267D01*
X20139Y-18290D01*
X20429Y-18000D01*
X20429Y-18142D01*
X20210Y-18361D01*
X20232Y-18450D01*
X19550Y-18450D01*
X19550Y-17021D01*
X22021Y-14550D01*
X28479Y-14550D01*
X28950Y-15021D01*
X28950Y-15479D01*
X28479Y-15950D01*
X24950Y-15950D01*
X24950Y-16712D01*
X24878Y-16692D01*
X24808Y-16762D01*
X24808Y-16622D01*
X24781Y-16528D01*
X24579Y-16457D01*
X24366Y-16468D01*
X24219Y-16528D01*
X24192Y-16622D01*
X24500Y-16929D01*
X24808Y-16622D01*
X24808Y-16762D01*
X24571Y-17000D01*
X24878Y-17308D01*
X24950Y-17287D01*
X24950Y-18732D01*
X24861Y-18710D01*
X24808Y-18763D01*
X24808Y-17378D01*
X24500Y-17071D01*
X24429Y-17141D01*
X24429Y-17000D01*
X24122Y-16692D01*
X24028Y-16719D01*
X24004Y-16784D01*
X23965Y-16689D01*
X23811Y-16535D01*
X23609Y-16451D01*
X23391Y-16451D01*
X23189Y-16535D01*
X23035Y-16689D01*
X22951Y-16891D01*
X22951Y-17109D01*
X23035Y-17311D01*
X23189Y-17465D01*
X23391Y-17549D01*
X23609Y-17549D01*
X23811Y-17465D01*
X23965Y-17311D01*
X24002Y-17219D01*
X24028Y-17281D01*
X24122Y-17308D01*
X24429Y-17000D01*
X24429Y-17141D01*
X24192Y-17378D01*
X24219Y-17472D01*
X24421Y-17543D01*
X24634Y-17532D01*
X24781Y-17472D01*
X24808Y-17378D01*
X24808Y-18763D01*
X24790Y-18781D01*
X24790Y-18639D01*
X24767Y-18548D01*
X24574Y-18481D01*
X24370Y-18492D01*
X24233Y-18548D01*
X24210Y-18639D01*
X24500Y-18929D01*
X24790Y-18639D01*
X24790Y-18781D01*
X24571Y-19000D01*
X24861Y-19290D01*
X24950Y-19267D01*
X24950Y-20050D01*
X31521Y-20050D01*
X32050Y-19521D01*
X32050Y-25450D01*
X31550Y-25450D01*
X31550Y-22550D01*
X31550Y-21479D01*
X31021Y-20950D01*
X25021Y-20950D01*
X24790Y-20719D01*
X24790Y-19361D01*
X24500Y-19071D01*
X24210Y-19361D01*
X24233Y-19452D01*
X24426Y-19519D01*
X24630Y-19508D01*
X24767Y-19452D01*
X24790Y-19361D01*
X24790Y-20719D01*
X24521Y-20450D01*
X21479Y-20450D01*
X20950Y-20979D01*
X20950Y-21732D01*
X20861Y-21710D01*
X20790Y-21781D01*
X20790Y-21639D01*
X20767Y-21548D01*
X20574Y-21481D01*
X20370Y-21492D01*
X20233Y-21548D01*
X20210Y-21639D01*
X20500Y-21929D01*
X20790Y-21639D01*
X20790Y-21781D01*
X20571Y-22000D01*
X20861Y-22290D01*
X20950Y-22267D01*
X20950Y-23021D01*
X21479Y-23550D01*
X22479Y-23550D01*
X23479Y-24550D01*
X29021Y-24550D01*
X29550Y-24021D01*
X29550Y-23767D01*
X29639Y-23790D01*
X29929Y-23500D01*
X29639Y-23210D01*
X29550Y-23232D01*
X29550Y-23021D01*
X30021Y-22550D01*
X31550Y-22550D01*
X31550Y-25450D01*
X30519Y-25450D01*
X30519Y-23574D01*
X30508Y-23370D01*
X30452Y-23233D01*
X30361Y-23210D01*
X30290Y-23281D01*
X30290Y-23139D01*
X30267Y-23048D01*
X30074Y-22981D01*
X29870Y-22992D01*
X29733Y-23048D01*
X29710Y-23139D01*
X30000Y-23429D01*
X30290Y-23139D01*
X30290Y-23281D01*
X30071Y-23500D01*
X30361Y-23790D01*
X30452Y-23767D01*
X30519Y-23574D01*
X30519Y-25450D01*
X30290Y-25450D01*
X30290Y-23861D01*
X30000Y-23571D01*
X29710Y-23861D01*
X29733Y-23952D01*
X29926Y-24019D01*
X30130Y-24008D01*
X30267Y-23952D01*
X30290Y-23861D01*
X30290Y-25450D01*
X20790Y-25450D01*
X20790Y-22361D01*
X20500Y-22071D01*
X20429Y-22142D01*
X20429Y-22000D01*
X20139Y-21710D01*
X20048Y-21733D01*
X19981Y-21926D01*
X19992Y-22130D01*
X20048Y-22267D01*
X20139Y-22290D01*
X20429Y-22000D01*
X20429Y-22142D01*
X20210Y-22361D01*
X20233Y-22452D01*
X20426Y-22519D01*
X20630Y-22508D01*
X20767Y-22452D01*
X20790Y-22361D01*
X20790Y-25450D01*
X19854Y-25450D01*
X19854Y-24870D01*
X19854Y-23010D01*
X16950Y-23010D01*
X16950Y-19488D01*
X16950Y-19050D01*
X16950Y-18950D01*
X16950Y-18512D01*
X16888Y-18450D01*
X16651Y-18451D01*
X16559Y-18489D01*
X16489Y-18559D01*
X16451Y-18650D01*
X16451Y-18749D01*
X16450Y-18888D01*
X16512Y-18950D01*
X16950Y-18950D01*
X16950Y-19050D01*
X16512Y-19050D01*
X16450Y-19112D01*
X16451Y-19251D01*
X16451Y-19350D01*
X16489Y-19441D01*
X16559Y-19511D01*
X16651Y-19549D01*
X16888Y-19550D01*
X16950Y-19488D01*
X16950Y-23010D01*
X16027Y-23010D01*
X16027Y-24870D01*
X19854Y-24870D01*
X19854Y-25450D01*
X16021Y-25450D01*
X15550Y-24979D01*
X15550Y-12021D01*
X16021Y-11550D01*
X32979Y-11550D01*
X33450Y-12021D01*
X33450Y-24979D01*
X33450Y-24979D01*
G37*
G54D17*
X33450Y-24979D02*
X32979Y-25450D01*
X32050Y-25450D01*
X32050Y-19521D01*
X32050Y-13979D01*
X31521Y-13450D01*
X31002Y-13450D01*
X31011Y-13441D01*
X31049Y-13349D01*
X31050Y-13112D01*
X31050Y-12888D01*
X31049Y-12651D01*
X31011Y-12559D01*
X30941Y-12489D01*
X30850Y-12451D01*
X30751Y-12451D01*
X30612Y-12450D01*
X30550Y-12512D01*
X30550Y-12950D01*
X30988Y-12950D01*
X31050Y-12888D01*
X31050Y-13112D01*
X30988Y-13050D01*
X30600Y-13050D01*
X30550Y-13050D01*
X30450Y-13050D01*
X30450Y-12950D01*
X30450Y-12512D01*
X30388Y-12450D01*
X30249Y-12451D01*
X30150Y-12451D01*
X30059Y-12489D01*
X29989Y-12559D01*
X29951Y-12651D01*
X29950Y-12888D01*
X30012Y-12950D01*
X30450Y-12950D01*
X30450Y-13050D01*
X30400Y-13050D01*
X30012Y-13050D01*
X29950Y-13112D01*
X29951Y-13349D01*
X29989Y-13441D01*
X29998Y-13450D01*
X20979Y-13450D01*
X17450Y-16979D01*
X17450Y-18498D01*
X17441Y-18489D01*
X17349Y-18451D01*
X17112Y-18450D01*
X17050Y-18512D01*
X17050Y-18900D01*
X17050Y-18950D01*
X17050Y-19050D01*
X17050Y-19100D01*
X17050Y-19488D01*
X17112Y-19550D01*
X17349Y-19549D01*
X17441Y-19511D01*
X17450Y-19502D01*
X17450Y-20050D01*
X23521Y-20050D01*
X24050Y-19521D01*
X24050Y-19267D01*
X24139Y-19290D01*
X24429Y-19000D01*
X24139Y-18710D01*
X24050Y-18732D01*
X24050Y-18450D01*
X21019Y-18450D01*
X21019Y-18074D01*
X21008Y-17870D01*
X20952Y-17733D01*
X20861Y-17710D01*
X20790Y-17781D01*
X20790Y-17639D01*
X20767Y-17548D01*
X20574Y-17481D01*
X20370Y-17492D01*
X20233Y-17548D01*
X20210Y-17639D01*
X20500Y-17929D01*
X20790Y-17639D01*
X20790Y-17781D01*
X20571Y-18000D01*
X20861Y-18290D01*
X20952Y-18267D01*
X21019Y-18074D01*
X21019Y-18450D01*
X20767Y-18450D01*
X20790Y-18361D01*
X20500Y-18071D01*
X20429Y-18142D01*
X20429Y-18000D01*
X20139Y-17710D01*
X20048Y-17733D01*
X19981Y-17926D01*
X19992Y-18130D01*
X20048Y-18267D01*
X20139Y-18290D01*
X20429Y-18000D01*
X20429Y-18142D01*
X20210Y-18361D01*
X20232Y-18450D01*
X19550Y-18450D01*
X19550Y-17021D01*
X22021Y-14550D01*
X28479Y-14550D01*
X28950Y-15021D01*
X28950Y-15479D01*
X28479Y-15950D01*
X24950Y-15950D01*
X24950Y-16712D01*
X24878Y-16692D01*
X24808Y-16762D01*
X24808Y-16622D01*
X24781Y-16528D01*
X24579Y-16457D01*
X24366Y-16468D01*
X24219Y-16528D01*
X24192Y-16622D01*
X24500Y-16929D01*
X24808Y-16622D01*
X24808Y-16762D01*
X24571Y-17000D01*
X24878Y-17308D01*
X24950Y-17287D01*
X24950Y-18732D01*
X24861Y-18710D01*
X24808Y-18763D01*
X24808Y-17378D01*
X24500Y-17071D01*
X24429Y-17141D01*
X24429Y-17000D01*
X24122Y-16692D01*
X24028Y-16719D01*
X24004Y-16784D01*
X23965Y-16689D01*
X23811Y-16535D01*
X23609Y-16451D01*
X23391Y-16451D01*
X23189Y-16535D01*
X23035Y-16689D01*
X22951Y-16891D01*
X22951Y-17109D01*
X23035Y-17311D01*
X23189Y-17465D01*
X23391Y-17549D01*
X23609Y-17549D01*
X23811Y-17465D01*
X23965Y-17311D01*
X24002Y-17219D01*
X24028Y-17281D01*
X24122Y-17308D01*
X24429Y-17000D01*
X24429Y-17141D01*
X24192Y-17378D01*
X24219Y-17472D01*
X24421Y-17543D01*
X24634Y-17532D01*
X24781Y-17472D01*
X24808Y-17378D01*
X24808Y-18763D01*
X24790Y-18781D01*
X24790Y-18639D01*
X24767Y-18548D01*
X24574Y-18481D01*
X24370Y-18492D01*
X24233Y-18548D01*
X24210Y-18639D01*
X24500Y-18929D01*
X24790Y-18639D01*
X24790Y-18781D01*
X24571Y-19000D01*
X24861Y-19290D01*
X24950Y-19267D01*
X24950Y-20050D01*
X31521Y-20050D01*
X32050Y-19521D01*
X32050Y-25450D01*
X31550Y-25450D01*
X31550Y-22550D01*
X31550Y-21479D01*
X31021Y-20950D01*
X25021Y-20950D01*
X24790Y-20719D01*
X24790Y-19361D01*
X24500Y-19071D01*
X24210Y-19361D01*
X24233Y-19452D01*
X24426Y-19519D01*
X24630Y-19508D01*
X24767Y-19452D01*
X24790Y-19361D01*
X24790Y-20719D01*
X24521Y-20450D01*
X21479Y-20450D01*
X20950Y-20979D01*
X20950Y-21732D01*
X20861Y-21710D01*
X20790Y-21781D01*
X20790Y-21639D01*
X20767Y-21548D01*
X20574Y-21481D01*
X20370Y-21492D01*
X20233Y-21548D01*
X20210Y-21639D01*
X20500Y-21929D01*
X20790Y-21639D01*
X20790Y-21781D01*
X20571Y-22000D01*
X20861Y-22290D01*
X20950Y-22267D01*
X20950Y-23021D01*
X21479Y-23550D01*
X22479Y-23550D01*
X23479Y-24550D01*
X29021Y-24550D01*
X29550Y-24021D01*
X29550Y-23767D01*
X29639Y-23790D01*
X29929Y-23500D01*
X29639Y-23210D01*
X29550Y-23232D01*
X29550Y-23021D01*
X30021Y-22550D01*
X31550Y-22550D01*
X31550Y-25450D01*
X30519Y-25450D01*
X30519Y-23574D01*
X30508Y-23370D01*
X30452Y-23233D01*
X30361Y-23210D01*
X30290Y-23281D01*
X30290Y-23139D01*
X30267Y-23048D01*
X30074Y-22981D01*
X29870Y-22992D01*
X29733Y-23048D01*
X29710Y-23139D01*
X30000Y-23429D01*
X30290Y-23139D01*
X30290Y-23281D01*
X30071Y-23500D01*
X30361Y-23790D01*
X30452Y-23767D01*
X30519Y-23574D01*
X30519Y-25450D01*
X30290Y-25450D01*
X30290Y-23861D01*
X30000Y-23571D01*
X29710Y-23861D01*
X29733Y-23952D01*
X29926Y-24019D01*
X30130Y-24008D01*
X30267Y-23952D01*
X30290Y-23861D01*
X30290Y-25450D01*
X20790Y-25450D01*
X20790Y-22361D01*
X20500Y-22071D01*
X20429Y-22142D01*
X20429Y-22000D01*
X20139Y-21710D01*
X20048Y-21733D01*
X19981Y-21926D01*
X19992Y-22130D01*
X20048Y-22267D01*
X20139Y-22290D01*
X20429Y-22000D01*
X20429Y-22142D01*
X20210Y-22361D01*
X20233Y-22452D01*
X20426Y-22519D01*
X20630Y-22508D01*
X20767Y-22452D01*
X20790Y-22361D01*
X20790Y-25450D01*
X19854Y-25450D01*
X19854Y-24870D01*
X19854Y-23010D01*
X16950Y-23010D01*
X16950Y-19488D01*
X16950Y-19050D01*
X16950Y-18950D01*
X16950Y-18512D01*
X16888Y-18450D01*
X16651Y-18451D01*
X16559Y-18489D01*
X16489Y-18559D01*
X16451Y-18650D01*
X16451Y-18749D01*
X16450Y-18888D01*
X16512Y-18950D01*
X16950Y-18950D01*
X16950Y-19050D01*
X16512Y-19050D01*
X16450Y-19112D01*
X16451Y-19251D01*
X16451Y-19350D01*
X16489Y-19441D01*
X16559Y-19511D01*
X16651Y-19549D01*
X16888Y-19550D01*
X16950Y-19488D01*
X16950Y-23010D01*
X16027Y-23010D01*
X16027Y-24870D01*
X19854Y-24870D01*
X19854Y-25450D01*
X16021Y-25450D01*
X15550Y-24979D01*
X15550Y-12021D01*
X16021Y-11550D01*
X32979Y-11550D01*
X33450Y-12021D01*
X33450Y-24979D01*
G54D10*
G36*
X100950Y-25479D02*
X100479Y-25950D01*
X99550Y-25950D01*
X99550Y-20021D01*
X99550Y-14479D01*
X99021Y-13950D01*
X98502Y-13950D01*
X98511Y-13941D01*
X98549Y-13849D01*
X98550Y-13612D01*
X98550Y-13388D01*
X98549Y-13151D01*
X98511Y-13059D01*
X98441Y-12989D01*
X98350Y-12951D01*
X98251Y-12951D01*
X98112Y-12950D01*
X98050Y-13012D01*
X98050Y-13450D01*
X98488Y-13450D01*
X98550Y-13388D01*
X98550Y-13612D01*
X98488Y-13550D01*
X98100Y-13550D01*
X98050Y-13550D01*
X97950Y-13550D01*
X97950Y-13450D01*
X97950Y-13012D01*
X97888Y-12950D01*
X97749Y-12951D01*
X97650Y-12951D01*
X97559Y-12989D01*
X97489Y-13059D01*
X97451Y-13151D01*
X97450Y-13388D01*
X97512Y-13450D01*
X97950Y-13450D01*
X97950Y-13550D01*
X97900Y-13550D01*
X97512Y-13550D01*
X97450Y-13612D01*
X97451Y-13849D01*
X97489Y-13941D01*
X97498Y-13950D01*
X88479Y-13950D01*
X84950Y-17479D01*
X84950Y-18998D01*
X84941Y-18989D01*
X84849Y-18951D01*
X84612Y-18950D01*
X84550Y-19012D01*
X84550Y-19400D01*
X84550Y-19450D01*
X84550Y-19550D01*
X84550Y-19600D01*
X84550Y-19988D01*
X84612Y-20050D01*
X84849Y-20049D01*
X84941Y-20011D01*
X84950Y-20002D01*
X84950Y-20550D01*
X91021Y-20550D01*
X91550Y-20021D01*
X91550Y-19767D01*
X91639Y-19790D01*
X91929Y-19500D01*
X91639Y-19210D01*
X91550Y-19232D01*
X91550Y-18950D01*
X88519Y-18950D01*
X88519Y-18574D01*
X88508Y-18370D01*
X88452Y-18233D01*
X88361Y-18210D01*
X88290Y-18281D01*
X88290Y-18139D01*
X88267Y-18048D01*
X88074Y-17981D01*
X87870Y-17992D01*
X87733Y-18048D01*
X87710Y-18139D01*
X88000Y-18429D01*
X88290Y-18139D01*
X88290Y-18281D01*
X88071Y-18500D01*
X88361Y-18790D01*
X88452Y-18767D01*
X88519Y-18574D01*
X88519Y-18950D01*
X88267Y-18950D01*
X88290Y-18861D01*
X88000Y-18571D01*
X87929Y-18642D01*
X87929Y-18500D01*
X87639Y-18210D01*
X87548Y-18233D01*
X87481Y-18426D01*
X87492Y-18630D01*
X87548Y-18767D01*
X87639Y-18790D01*
X87929Y-18500D01*
X87929Y-18642D01*
X87710Y-18861D01*
X87732Y-18950D01*
X87050Y-18950D01*
X87050Y-17521D01*
X89521Y-15050D01*
X95979Y-15050D01*
X96450Y-15521D01*
X96450Y-15979D01*
X95979Y-16450D01*
X92450Y-16450D01*
X92450Y-17212D01*
X92378Y-17192D01*
X92308Y-17262D01*
X92308Y-17122D01*
X92281Y-17028D01*
X92079Y-16957D01*
X91866Y-16968D01*
X91719Y-17028D01*
X91692Y-17122D01*
X92000Y-17429D01*
X92308Y-17122D01*
X92308Y-17262D01*
X92071Y-17500D01*
X92378Y-17808D01*
X92450Y-17787D01*
X92450Y-19232D01*
X92361Y-19210D01*
X92308Y-19263D01*
X92308Y-17878D01*
X92000Y-17571D01*
X91929Y-17641D01*
X91929Y-17500D01*
X91622Y-17192D01*
X91528Y-17219D01*
X91504Y-17284D01*
X91465Y-17189D01*
X91311Y-17035D01*
X91109Y-16951D01*
X90891Y-16951D01*
X90689Y-17035D01*
X90535Y-17189D01*
X90451Y-17391D01*
X90451Y-17609D01*
X90535Y-17811D01*
X90689Y-17965D01*
X90891Y-18049D01*
X91109Y-18049D01*
X91311Y-17965D01*
X91465Y-17811D01*
X91502Y-17719D01*
X91528Y-17781D01*
X91622Y-17808D01*
X91929Y-17500D01*
X91929Y-17641D01*
X91692Y-17878D01*
X91719Y-17972D01*
X91921Y-18043D01*
X92134Y-18032D01*
X92281Y-17972D01*
X92308Y-17878D01*
X92308Y-19263D01*
X92290Y-19281D01*
X92290Y-19139D01*
X92267Y-19048D01*
X92074Y-18981D01*
X91870Y-18992D01*
X91733Y-19048D01*
X91710Y-19139D01*
X92000Y-19429D01*
X92290Y-19139D01*
X92290Y-19281D01*
X92071Y-19500D01*
X92361Y-19790D01*
X92450Y-19767D01*
X92450Y-20550D01*
X99021Y-20550D01*
X99550Y-20021D01*
X99550Y-25950D01*
X99050Y-25950D01*
X99050Y-23050D01*
X99050Y-21979D01*
X98521Y-21450D01*
X92521Y-21450D01*
X92290Y-21219D01*
X92290Y-19861D01*
X92000Y-19571D01*
X91710Y-19861D01*
X91733Y-19952D01*
X91926Y-20019D01*
X92130Y-20008D01*
X92267Y-19952D01*
X92290Y-19861D01*
X92290Y-21219D01*
X92021Y-20950D01*
X88979Y-20950D01*
X88450Y-21479D01*
X88450Y-22232D01*
X88361Y-22210D01*
X88290Y-22281D01*
X88290Y-22139D01*
X88267Y-22048D01*
X88074Y-21981D01*
X87870Y-21992D01*
X87733Y-22048D01*
X87710Y-22139D01*
X88000Y-22429D01*
X88290Y-22139D01*
X88290Y-22281D01*
X88071Y-22500D01*
X88361Y-22790D01*
X88450Y-22767D01*
X88450Y-23521D01*
X88979Y-24050D01*
X89979Y-24050D01*
X90979Y-25050D01*
X96521Y-25050D01*
X97050Y-24521D01*
X97050Y-24267D01*
X97139Y-24290D01*
X97429Y-24000D01*
X97139Y-23710D01*
X97050Y-23732D01*
X97050Y-23521D01*
X97521Y-23050D01*
X99050Y-23050D01*
X99050Y-25950D01*
X98019Y-25950D01*
X98019Y-24074D01*
X98008Y-23870D01*
X97952Y-23733D01*
X97861Y-23710D01*
X97790Y-23781D01*
X97790Y-23639D01*
X97767Y-23548D01*
X97574Y-23481D01*
X97370Y-23492D01*
X97233Y-23548D01*
X97210Y-23639D01*
X97500Y-23929D01*
X97790Y-23639D01*
X97790Y-23781D01*
X97571Y-24000D01*
X97861Y-24290D01*
X97952Y-24267D01*
X98019Y-24074D01*
X98019Y-25950D01*
X97790Y-25950D01*
X97790Y-24361D01*
X97500Y-24071D01*
X97210Y-24361D01*
X97233Y-24452D01*
X97426Y-24519D01*
X97630Y-24508D01*
X97767Y-24452D01*
X97790Y-24361D01*
X97790Y-25950D01*
X88290Y-25950D01*
X88290Y-22861D01*
X88000Y-22571D01*
X87929Y-22642D01*
X87929Y-22500D01*
X87639Y-22210D01*
X87548Y-22233D01*
X87481Y-22426D01*
X87492Y-22630D01*
X87548Y-22767D01*
X87639Y-22790D01*
X87929Y-22500D01*
X87929Y-22642D01*
X87710Y-22861D01*
X87733Y-22952D01*
X87926Y-23019D01*
X88130Y-23008D01*
X88267Y-22952D01*
X88290Y-22861D01*
X88290Y-25950D01*
X87354Y-25950D01*
X87354Y-25370D01*
X87354Y-23510D01*
X84450Y-23510D01*
X84450Y-19988D01*
X84450Y-19550D01*
X84450Y-19450D01*
X84450Y-19012D01*
X84388Y-18950D01*
X84151Y-18951D01*
X84059Y-18989D01*
X83989Y-19059D01*
X83951Y-19150D01*
X83951Y-19249D01*
X83950Y-19388D01*
X84012Y-19450D01*
X84450Y-19450D01*
X84450Y-19550D01*
X84012Y-19550D01*
X83950Y-19612D01*
X83951Y-19751D01*
X83951Y-19850D01*
X83989Y-19941D01*
X84059Y-20011D01*
X84151Y-20049D01*
X84388Y-20050D01*
X84450Y-19988D01*
X84450Y-23510D01*
X83527Y-23510D01*
X83527Y-25370D01*
X87354Y-25370D01*
X87354Y-25950D01*
X83521Y-25950D01*
X83050Y-25479D01*
X83050Y-12521D01*
X83521Y-12050D01*
X100479Y-12050D01*
X100950Y-12521D01*
X100950Y-25479D01*
X100950Y-25479D01*
G37*
G54D17*
X100950Y-25479D02*
X100479Y-25950D01*
X99550Y-25950D01*
X99550Y-20021D01*
X99550Y-14479D01*
X99021Y-13950D01*
X98502Y-13950D01*
X98511Y-13941D01*
X98549Y-13849D01*
X98550Y-13612D01*
X98550Y-13388D01*
X98549Y-13151D01*
X98511Y-13059D01*
X98441Y-12989D01*
X98350Y-12951D01*
X98251Y-12951D01*
X98112Y-12950D01*
X98050Y-13012D01*
X98050Y-13450D01*
X98488Y-13450D01*
X98550Y-13388D01*
X98550Y-13612D01*
X98488Y-13550D01*
X98100Y-13550D01*
X98050Y-13550D01*
X97950Y-13550D01*
X97950Y-13450D01*
X97950Y-13012D01*
X97888Y-12950D01*
X97749Y-12951D01*
X97650Y-12951D01*
X97559Y-12989D01*
X97489Y-13059D01*
X97451Y-13151D01*
X97450Y-13388D01*
X97512Y-13450D01*
X97950Y-13450D01*
X97950Y-13550D01*
X97900Y-13550D01*
X97512Y-13550D01*
X97450Y-13612D01*
X97451Y-13849D01*
X97489Y-13941D01*
X97498Y-13950D01*
X88479Y-13950D01*
X84950Y-17479D01*
X84950Y-18998D01*
X84941Y-18989D01*
X84849Y-18951D01*
X84612Y-18950D01*
X84550Y-19012D01*
X84550Y-19400D01*
X84550Y-19450D01*
X84550Y-19550D01*
X84550Y-19600D01*
X84550Y-19988D01*
X84612Y-20050D01*
X84849Y-20049D01*
X84941Y-20011D01*
X84950Y-20002D01*
X84950Y-20550D01*
X91021Y-20550D01*
X91550Y-20021D01*
X91550Y-19767D01*
X91639Y-19790D01*
X91929Y-19500D01*
X91639Y-19210D01*
X91550Y-19232D01*
X91550Y-18950D01*
X88519Y-18950D01*
X88519Y-18574D01*
X88508Y-18370D01*
X88452Y-18233D01*
X88361Y-18210D01*
X88290Y-18281D01*
X88290Y-18139D01*
X88267Y-18048D01*
X88074Y-17981D01*
X87870Y-17992D01*
X87733Y-18048D01*
X87710Y-18139D01*
X88000Y-18429D01*
X88290Y-18139D01*
X88290Y-18281D01*
X88071Y-18500D01*
X88361Y-18790D01*
X88452Y-18767D01*
X88519Y-18574D01*
X88519Y-18950D01*
X88267Y-18950D01*
X88290Y-18861D01*
X88000Y-18571D01*
X87929Y-18642D01*
X87929Y-18500D01*
X87639Y-18210D01*
X87548Y-18233D01*
X87481Y-18426D01*
X87492Y-18630D01*
X87548Y-18767D01*
X87639Y-18790D01*
X87929Y-18500D01*
X87929Y-18642D01*
X87710Y-18861D01*
X87732Y-18950D01*
X87050Y-18950D01*
X87050Y-17521D01*
X89521Y-15050D01*
X95979Y-15050D01*
X96450Y-15521D01*
X96450Y-15979D01*
X95979Y-16450D01*
X92450Y-16450D01*
X92450Y-17212D01*
X92378Y-17192D01*
X92308Y-17262D01*
X92308Y-17122D01*
X92281Y-17028D01*
X92079Y-16957D01*
X91866Y-16968D01*
X91719Y-17028D01*
X91692Y-17122D01*
X92000Y-17429D01*
X92308Y-17122D01*
X92308Y-17262D01*
X92071Y-17500D01*
X92378Y-17808D01*
X92450Y-17787D01*
X92450Y-19232D01*
X92361Y-19210D01*
X92308Y-19263D01*
X92308Y-17878D01*
X92000Y-17571D01*
X91929Y-17641D01*
X91929Y-17500D01*
X91622Y-17192D01*
X91528Y-17219D01*
X91504Y-17284D01*
X91465Y-17189D01*
X91311Y-17035D01*
X91109Y-16951D01*
X90891Y-16951D01*
X90689Y-17035D01*
X90535Y-17189D01*
X90451Y-17391D01*
X90451Y-17609D01*
X90535Y-17811D01*
X90689Y-17965D01*
X90891Y-18049D01*
X91109Y-18049D01*
X91311Y-17965D01*
X91465Y-17811D01*
X91502Y-17719D01*
X91528Y-17781D01*
X91622Y-17808D01*
X91929Y-17500D01*
X91929Y-17641D01*
X91692Y-17878D01*
X91719Y-17972D01*
X91921Y-18043D01*
X92134Y-18032D01*
X92281Y-17972D01*
X92308Y-17878D01*
X92308Y-19263D01*
X92290Y-19281D01*
X92290Y-19139D01*
X92267Y-19048D01*
X92074Y-18981D01*
X91870Y-18992D01*
X91733Y-19048D01*
X91710Y-19139D01*
X92000Y-19429D01*
X92290Y-19139D01*
X92290Y-19281D01*
X92071Y-19500D01*
X92361Y-19790D01*
X92450Y-19767D01*
X92450Y-20550D01*
X99021Y-20550D01*
X99550Y-20021D01*
X99550Y-25950D01*
X99050Y-25950D01*
X99050Y-23050D01*
X99050Y-21979D01*
X98521Y-21450D01*
X92521Y-21450D01*
X92290Y-21219D01*
X92290Y-19861D01*
X92000Y-19571D01*
X91710Y-19861D01*
X91733Y-19952D01*
X91926Y-20019D01*
X92130Y-20008D01*
X92267Y-19952D01*
X92290Y-19861D01*
X92290Y-21219D01*
X92021Y-20950D01*
X88979Y-20950D01*
X88450Y-21479D01*
X88450Y-22232D01*
X88361Y-22210D01*
X88290Y-22281D01*
X88290Y-22139D01*
X88267Y-22048D01*
X88074Y-21981D01*
X87870Y-21992D01*
X87733Y-22048D01*
X87710Y-22139D01*
X88000Y-22429D01*
X88290Y-22139D01*
X88290Y-22281D01*
X88071Y-22500D01*
X88361Y-22790D01*
X88450Y-22767D01*
X88450Y-23521D01*
X88979Y-24050D01*
X89979Y-24050D01*
X90979Y-25050D01*
X96521Y-25050D01*
X97050Y-24521D01*
X97050Y-24267D01*
X97139Y-24290D01*
X97429Y-24000D01*
X97139Y-23710D01*
X97050Y-23732D01*
X97050Y-23521D01*
X97521Y-23050D01*
X99050Y-23050D01*
X99050Y-25950D01*
X98019Y-25950D01*
X98019Y-24074D01*
X98008Y-23870D01*
X97952Y-23733D01*
X97861Y-23710D01*
X97790Y-23781D01*
X97790Y-23639D01*
X97767Y-23548D01*
X97574Y-23481D01*
X97370Y-23492D01*
X97233Y-23548D01*
X97210Y-23639D01*
X97500Y-23929D01*
X97790Y-23639D01*
X97790Y-23781D01*
X97571Y-24000D01*
X97861Y-24290D01*
X97952Y-24267D01*
X98019Y-24074D01*
X98019Y-25950D01*
X97790Y-25950D01*
X97790Y-24361D01*
X97500Y-24071D01*
X97210Y-24361D01*
X97233Y-24452D01*
X97426Y-24519D01*
X97630Y-24508D01*
X97767Y-24452D01*
X97790Y-24361D01*
X97790Y-25950D01*
X88290Y-25950D01*
X88290Y-22861D01*
X88000Y-22571D01*
X87929Y-22642D01*
X87929Y-22500D01*
X87639Y-22210D01*
X87548Y-22233D01*
X87481Y-22426D01*
X87492Y-22630D01*
X87548Y-22767D01*
X87639Y-22790D01*
X87929Y-22500D01*
X87929Y-22642D01*
X87710Y-22861D01*
X87733Y-22952D01*
X87926Y-23019D01*
X88130Y-23008D01*
X88267Y-22952D01*
X88290Y-22861D01*
X88290Y-25950D01*
X87354Y-25950D01*
X87354Y-25370D01*
X87354Y-23510D01*
X84450Y-23510D01*
X84450Y-19988D01*
X84450Y-19550D01*
X84450Y-19450D01*
X84450Y-19012D01*
X84388Y-18950D01*
X84151Y-18951D01*
X84059Y-18989D01*
X83989Y-19059D01*
X83951Y-19150D01*
X83951Y-19249D01*
X83950Y-19388D01*
X84012Y-19450D01*
X84450Y-19450D01*
X84450Y-19550D01*
X84012Y-19550D01*
X83950Y-19612D01*
X83951Y-19751D01*
X83951Y-19850D01*
X83989Y-19941D01*
X84059Y-20011D01*
X84151Y-20049D01*
X84388Y-20050D01*
X84450Y-19988D01*
X84450Y-23510D01*
X83527Y-23510D01*
X83527Y-25370D01*
X87354Y-25370D01*
X87354Y-25950D01*
X83521Y-25950D01*
X83050Y-25479D01*
X83050Y-12521D01*
X83521Y-12050D01*
X100479Y-12050D01*
X100950Y-12521D01*
X100950Y-25479D01*
G54D10*
G36*
X67950Y-43479D02*
X67479Y-43950D01*
X66550Y-43950D01*
X66550Y-38021D01*
X66550Y-32479D01*
X66021Y-31950D01*
X65502Y-31950D01*
X65511Y-31941D01*
X65549Y-31849D01*
X65550Y-31612D01*
X65550Y-31388D01*
X65549Y-31151D01*
X65511Y-31059D01*
X65441Y-30989D01*
X65350Y-30951D01*
X65251Y-30951D01*
X65112Y-30950D01*
X65050Y-31012D01*
X65050Y-31450D01*
X65488Y-31450D01*
X65550Y-31388D01*
X65550Y-31612D01*
X65488Y-31550D01*
X65100Y-31550D01*
X65050Y-31550D01*
X64950Y-31550D01*
X64950Y-31450D01*
X64950Y-31012D01*
X64888Y-30950D01*
X64749Y-30951D01*
X64650Y-30951D01*
X64559Y-30989D01*
X64489Y-31059D01*
X64451Y-31151D01*
X64450Y-31388D01*
X64512Y-31450D01*
X64950Y-31450D01*
X64950Y-31550D01*
X64900Y-31550D01*
X64512Y-31550D01*
X64450Y-31612D01*
X64451Y-31849D01*
X64489Y-31941D01*
X64498Y-31950D01*
X55479Y-31950D01*
X51950Y-35479D01*
X51950Y-36998D01*
X51941Y-36989D01*
X51849Y-36951D01*
X51612Y-36950D01*
X51550Y-37012D01*
X51550Y-37400D01*
X51550Y-37450D01*
X51550Y-37550D01*
X51550Y-37600D01*
X51550Y-37988D01*
X51612Y-38050D01*
X51849Y-38049D01*
X51941Y-38011D01*
X51950Y-38002D01*
X51950Y-38550D01*
X58021Y-38550D01*
X58550Y-38021D01*
X58550Y-37767D01*
X58639Y-37790D01*
X58929Y-37500D01*
X58639Y-37210D01*
X58550Y-37232D01*
X58550Y-36950D01*
X55519Y-36950D01*
X55519Y-36574D01*
X55508Y-36370D01*
X55452Y-36233D01*
X55361Y-36210D01*
X55290Y-36281D01*
X55290Y-36139D01*
X55267Y-36048D01*
X55074Y-35981D01*
X54870Y-35992D01*
X54733Y-36048D01*
X54710Y-36139D01*
X55000Y-36429D01*
X55290Y-36139D01*
X55290Y-36281D01*
X55071Y-36500D01*
X55361Y-36790D01*
X55452Y-36767D01*
X55519Y-36574D01*
X55519Y-36950D01*
X55267Y-36950D01*
X55290Y-36861D01*
X55000Y-36571D01*
X54929Y-36642D01*
X54929Y-36500D01*
X54639Y-36210D01*
X54548Y-36233D01*
X54481Y-36426D01*
X54492Y-36630D01*
X54548Y-36767D01*
X54639Y-36790D01*
X54929Y-36500D01*
X54929Y-36642D01*
X54710Y-36861D01*
X54732Y-36950D01*
X54050Y-36950D01*
X54050Y-35521D01*
X56521Y-33050D01*
X62979Y-33050D01*
X63450Y-33521D01*
X63450Y-33979D01*
X62979Y-34450D01*
X59450Y-34450D01*
X59450Y-35212D01*
X59378Y-35192D01*
X59308Y-35262D01*
X59308Y-35122D01*
X59281Y-35028D01*
X59079Y-34957D01*
X58866Y-34968D01*
X58719Y-35028D01*
X58692Y-35122D01*
X59000Y-35429D01*
X59308Y-35122D01*
X59308Y-35262D01*
X59071Y-35500D01*
X59378Y-35808D01*
X59450Y-35787D01*
X59450Y-37232D01*
X59361Y-37210D01*
X59308Y-37263D01*
X59308Y-35878D01*
X59000Y-35571D01*
X58929Y-35641D01*
X58929Y-35500D01*
X58622Y-35192D01*
X58528Y-35219D01*
X58504Y-35284D01*
X58465Y-35189D01*
X58311Y-35035D01*
X58109Y-34951D01*
X57891Y-34951D01*
X57689Y-35035D01*
X57535Y-35189D01*
X57451Y-35391D01*
X57451Y-35609D01*
X57535Y-35811D01*
X57689Y-35965D01*
X57891Y-36049D01*
X58109Y-36049D01*
X58311Y-35965D01*
X58465Y-35811D01*
X58502Y-35719D01*
X58528Y-35781D01*
X58622Y-35808D01*
X58929Y-35500D01*
X58929Y-35641D01*
X58692Y-35878D01*
X58719Y-35972D01*
X58921Y-36043D01*
X59134Y-36032D01*
X59281Y-35972D01*
X59308Y-35878D01*
X59308Y-37263D01*
X59290Y-37281D01*
X59290Y-37139D01*
X59267Y-37048D01*
X59074Y-36981D01*
X58870Y-36992D01*
X58733Y-37048D01*
X58710Y-37139D01*
X59000Y-37429D01*
X59290Y-37139D01*
X59290Y-37281D01*
X59071Y-37500D01*
X59361Y-37790D01*
X59450Y-37767D01*
X59450Y-38550D01*
X66021Y-38550D01*
X66550Y-38021D01*
X66550Y-43950D01*
X66050Y-43950D01*
X66050Y-41050D01*
X66050Y-39979D01*
X65521Y-39450D01*
X59521Y-39450D01*
X59290Y-39219D01*
X59290Y-37861D01*
X59000Y-37571D01*
X58710Y-37861D01*
X58733Y-37952D01*
X58926Y-38019D01*
X59130Y-38008D01*
X59267Y-37952D01*
X59290Y-37861D01*
X59290Y-39219D01*
X59021Y-38950D01*
X55979Y-38950D01*
X55450Y-39479D01*
X55450Y-40232D01*
X55361Y-40210D01*
X55290Y-40281D01*
X55290Y-40139D01*
X55267Y-40048D01*
X55074Y-39981D01*
X54870Y-39992D01*
X54733Y-40048D01*
X54710Y-40139D01*
X55000Y-40429D01*
X55290Y-40139D01*
X55290Y-40281D01*
X55071Y-40500D01*
X55361Y-40790D01*
X55450Y-40767D01*
X55450Y-41521D01*
X55979Y-42050D01*
X56979Y-42050D01*
X57979Y-43050D01*
X63521Y-43050D01*
X64050Y-42521D01*
X64050Y-42267D01*
X64139Y-42290D01*
X64429Y-42000D01*
X64139Y-41710D01*
X64050Y-41732D01*
X64050Y-41521D01*
X64521Y-41050D01*
X66050Y-41050D01*
X66050Y-43950D01*
X65019Y-43950D01*
X65019Y-42074D01*
X65008Y-41870D01*
X64952Y-41733D01*
X64861Y-41710D01*
X64790Y-41781D01*
X64790Y-41639D01*
X64767Y-41548D01*
X64574Y-41481D01*
X64370Y-41492D01*
X64233Y-41548D01*
X64210Y-41639D01*
X64500Y-41929D01*
X64790Y-41639D01*
X64790Y-41781D01*
X64571Y-42000D01*
X64861Y-42290D01*
X64952Y-42267D01*
X65019Y-42074D01*
X65019Y-43950D01*
X64790Y-43950D01*
X64790Y-42361D01*
X64500Y-42071D01*
X64210Y-42361D01*
X64233Y-42452D01*
X64426Y-42519D01*
X64630Y-42508D01*
X64767Y-42452D01*
X64790Y-42361D01*
X64790Y-43950D01*
X55290Y-43950D01*
X55290Y-40861D01*
X55000Y-40571D01*
X54929Y-40642D01*
X54929Y-40500D01*
X54639Y-40210D01*
X54548Y-40233D01*
X54481Y-40426D01*
X54492Y-40630D01*
X54548Y-40767D01*
X54639Y-40790D01*
X54929Y-40500D01*
X54929Y-40642D01*
X54710Y-40861D01*
X54733Y-40952D01*
X54926Y-41019D01*
X55130Y-41008D01*
X55267Y-40952D01*
X55290Y-40861D01*
X55290Y-43950D01*
X54354Y-43950D01*
X54354Y-43370D01*
X54354Y-41510D01*
X51450Y-41510D01*
X51450Y-37988D01*
X51450Y-37550D01*
X51450Y-37450D01*
X51450Y-37012D01*
X51388Y-36950D01*
X51151Y-36951D01*
X51059Y-36989D01*
X50989Y-37059D01*
X50951Y-37150D01*
X50951Y-37249D01*
X50950Y-37388D01*
X51012Y-37450D01*
X51450Y-37450D01*
X51450Y-37550D01*
X51012Y-37550D01*
X50950Y-37612D01*
X50951Y-37751D01*
X50951Y-37850D01*
X50989Y-37941D01*
X51059Y-38011D01*
X51151Y-38049D01*
X51388Y-38050D01*
X51450Y-37988D01*
X51450Y-41510D01*
X50527Y-41510D01*
X50527Y-43370D01*
X54354Y-43370D01*
X54354Y-43950D01*
X50521Y-43950D01*
X50050Y-43479D01*
X50050Y-30521D01*
X50521Y-30050D01*
X67479Y-30050D01*
X67950Y-30521D01*
X67950Y-43479D01*
X67950Y-43479D01*
G37*
G54D17*
X67950Y-43479D02*
X67479Y-43950D01*
X66550Y-43950D01*
X66550Y-38021D01*
X66550Y-32479D01*
X66021Y-31950D01*
X65502Y-31950D01*
X65511Y-31941D01*
X65549Y-31849D01*
X65550Y-31612D01*
X65550Y-31388D01*
X65549Y-31151D01*
X65511Y-31059D01*
X65441Y-30989D01*
X65350Y-30951D01*
X65251Y-30951D01*
X65112Y-30950D01*
X65050Y-31012D01*
X65050Y-31450D01*
X65488Y-31450D01*
X65550Y-31388D01*
X65550Y-31612D01*
X65488Y-31550D01*
X65100Y-31550D01*
X65050Y-31550D01*
X64950Y-31550D01*
X64950Y-31450D01*
X64950Y-31012D01*
X64888Y-30950D01*
X64749Y-30951D01*
X64650Y-30951D01*
X64559Y-30989D01*
X64489Y-31059D01*
X64451Y-31151D01*
X64450Y-31388D01*
X64512Y-31450D01*
X64950Y-31450D01*
X64950Y-31550D01*
X64900Y-31550D01*
X64512Y-31550D01*
X64450Y-31612D01*
X64451Y-31849D01*
X64489Y-31941D01*
X64498Y-31950D01*
X55479Y-31950D01*
X51950Y-35479D01*
X51950Y-36998D01*
X51941Y-36989D01*
X51849Y-36951D01*
X51612Y-36950D01*
X51550Y-37012D01*
X51550Y-37400D01*
X51550Y-37450D01*
X51550Y-37550D01*
X51550Y-37600D01*
X51550Y-37988D01*
X51612Y-38050D01*
X51849Y-38049D01*
X51941Y-38011D01*
X51950Y-38002D01*
X51950Y-38550D01*
X58021Y-38550D01*
X58550Y-38021D01*
X58550Y-37767D01*
X58639Y-37790D01*
X58929Y-37500D01*
X58639Y-37210D01*
X58550Y-37232D01*
X58550Y-36950D01*
X55519Y-36950D01*
X55519Y-36574D01*
X55508Y-36370D01*
X55452Y-36233D01*
X55361Y-36210D01*
X55290Y-36281D01*
X55290Y-36139D01*
X55267Y-36048D01*
X55074Y-35981D01*
X54870Y-35992D01*
X54733Y-36048D01*
X54710Y-36139D01*
X55000Y-36429D01*
X55290Y-36139D01*
X55290Y-36281D01*
X55071Y-36500D01*
X55361Y-36790D01*
X55452Y-36767D01*
X55519Y-36574D01*
X55519Y-36950D01*
X55267Y-36950D01*
X55290Y-36861D01*
X55000Y-36571D01*
X54929Y-36642D01*
X54929Y-36500D01*
X54639Y-36210D01*
X54548Y-36233D01*
X54481Y-36426D01*
X54492Y-36630D01*
X54548Y-36767D01*
X54639Y-36790D01*
X54929Y-36500D01*
X54929Y-36642D01*
X54710Y-36861D01*
X54732Y-36950D01*
X54050Y-36950D01*
X54050Y-35521D01*
X56521Y-33050D01*
X62979Y-33050D01*
X63450Y-33521D01*
X63450Y-33979D01*
X62979Y-34450D01*
X59450Y-34450D01*
X59450Y-35212D01*
X59378Y-35192D01*
X59308Y-35262D01*
X59308Y-35122D01*
X59281Y-35028D01*
X59079Y-34957D01*
X58866Y-34968D01*
X58719Y-35028D01*
X58692Y-35122D01*
X59000Y-35429D01*
X59308Y-35122D01*
X59308Y-35262D01*
X59071Y-35500D01*
X59378Y-35808D01*
X59450Y-35787D01*
X59450Y-37232D01*
X59361Y-37210D01*
X59308Y-37263D01*
X59308Y-35878D01*
X59000Y-35571D01*
X58929Y-35641D01*
X58929Y-35500D01*
X58622Y-35192D01*
X58528Y-35219D01*
X58504Y-35284D01*
X58465Y-35189D01*
X58311Y-35035D01*
X58109Y-34951D01*
X57891Y-34951D01*
X57689Y-35035D01*
X57535Y-35189D01*
X57451Y-35391D01*
X57451Y-35609D01*
X57535Y-35811D01*
X57689Y-35965D01*
X57891Y-36049D01*
X58109Y-36049D01*
X58311Y-35965D01*
X58465Y-35811D01*
X58502Y-35719D01*
X58528Y-35781D01*
X58622Y-35808D01*
X58929Y-35500D01*
X58929Y-35641D01*
X58692Y-35878D01*
X58719Y-35972D01*
X58921Y-36043D01*
X59134Y-36032D01*
X59281Y-35972D01*
X59308Y-35878D01*
X59308Y-37263D01*
X59290Y-37281D01*
X59290Y-37139D01*
X59267Y-37048D01*
X59074Y-36981D01*
X58870Y-36992D01*
X58733Y-37048D01*
X58710Y-37139D01*
X59000Y-37429D01*
X59290Y-37139D01*
X59290Y-37281D01*
X59071Y-37500D01*
X59361Y-37790D01*
X59450Y-37767D01*
X59450Y-38550D01*
X66021Y-38550D01*
X66550Y-38021D01*
X66550Y-43950D01*
X66050Y-43950D01*
X66050Y-41050D01*
X66050Y-39979D01*
X65521Y-39450D01*
X59521Y-39450D01*
X59290Y-39219D01*
X59290Y-37861D01*
X59000Y-37571D01*
X58710Y-37861D01*
X58733Y-37952D01*
X58926Y-38019D01*
X59130Y-38008D01*
X59267Y-37952D01*
X59290Y-37861D01*
X59290Y-39219D01*
X59021Y-38950D01*
X55979Y-38950D01*
X55450Y-39479D01*
X55450Y-40232D01*
X55361Y-40210D01*
X55290Y-40281D01*
X55290Y-40139D01*
X55267Y-40048D01*
X55074Y-39981D01*
X54870Y-39992D01*
X54733Y-40048D01*
X54710Y-40139D01*
X55000Y-40429D01*
X55290Y-40139D01*
X55290Y-40281D01*
X55071Y-40500D01*
X55361Y-40790D01*
X55450Y-40767D01*
X55450Y-41521D01*
X55979Y-42050D01*
X56979Y-42050D01*
X57979Y-43050D01*
X63521Y-43050D01*
X64050Y-42521D01*
X64050Y-42267D01*
X64139Y-42290D01*
X64429Y-42000D01*
X64139Y-41710D01*
X64050Y-41732D01*
X64050Y-41521D01*
X64521Y-41050D01*
X66050Y-41050D01*
X66050Y-43950D01*
X65019Y-43950D01*
X65019Y-42074D01*
X65008Y-41870D01*
X64952Y-41733D01*
X64861Y-41710D01*
X64790Y-41781D01*
X64790Y-41639D01*
X64767Y-41548D01*
X64574Y-41481D01*
X64370Y-41492D01*
X64233Y-41548D01*
X64210Y-41639D01*
X64500Y-41929D01*
X64790Y-41639D01*
X64790Y-41781D01*
X64571Y-42000D01*
X64861Y-42290D01*
X64952Y-42267D01*
X65019Y-42074D01*
X65019Y-43950D01*
X64790Y-43950D01*
X64790Y-42361D01*
X64500Y-42071D01*
X64210Y-42361D01*
X64233Y-42452D01*
X64426Y-42519D01*
X64630Y-42508D01*
X64767Y-42452D01*
X64790Y-42361D01*
X64790Y-43950D01*
X55290Y-43950D01*
X55290Y-40861D01*
X55000Y-40571D01*
X54929Y-40642D01*
X54929Y-40500D01*
X54639Y-40210D01*
X54548Y-40233D01*
X54481Y-40426D01*
X54492Y-40630D01*
X54548Y-40767D01*
X54639Y-40790D01*
X54929Y-40500D01*
X54929Y-40642D01*
X54710Y-40861D01*
X54733Y-40952D01*
X54926Y-41019D01*
X55130Y-41008D01*
X55267Y-40952D01*
X55290Y-40861D01*
X55290Y-43950D01*
X54354Y-43950D01*
X54354Y-43370D01*
X54354Y-41510D01*
X51450Y-41510D01*
X51450Y-37988D01*
X51450Y-37550D01*
X51450Y-37450D01*
X51450Y-37012D01*
X51388Y-36950D01*
X51151Y-36951D01*
X51059Y-36989D01*
X50989Y-37059D01*
X50951Y-37150D01*
X50951Y-37249D01*
X50950Y-37388D01*
X51012Y-37450D01*
X51450Y-37450D01*
X51450Y-37550D01*
X51012Y-37550D01*
X50950Y-37612D01*
X50951Y-37751D01*
X50951Y-37850D01*
X50989Y-37941D01*
X51059Y-38011D01*
X51151Y-38049D01*
X51388Y-38050D01*
X51450Y-37988D01*
X51450Y-41510D01*
X50527Y-41510D01*
X50527Y-43370D01*
X54354Y-43370D01*
X54354Y-43950D01*
X50521Y-43950D01*
X50050Y-43479D01*
X50050Y-30521D01*
X50521Y-30050D01*
X67479Y-30050D01*
X67950Y-30521D01*
X67950Y-43479D01*
G54D10*
G36*
X33450Y-43479D02*
X32979Y-43950D01*
X32050Y-43950D01*
X32050Y-38021D01*
X32050Y-32479D01*
X31521Y-31950D01*
X31002Y-31950D01*
X31011Y-31941D01*
X31049Y-31849D01*
X31050Y-31612D01*
X31050Y-31388D01*
X31049Y-31151D01*
X31011Y-31059D01*
X30941Y-30989D01*
X30850Y-30951D01*
X30751Y-30951D01*
X30612Y-30950D01*
X30550Y-31012D01*
X30550Y-31450D01*
X30988Y-31450D01*
X31050Y-31388D01*
X31050Y-31612D01*
X30988Y-31550D01*
X30600Y-31550D01*
X30550Y-31550D01*
X30450Y-31550D01*
X30450Y-31450D01*
X30450Y-31012D01*
X30388Y-30950D01*
X30249Y-30951D01*
X30150Y-30951D01*
X30059Y-30989D01*
X29989Y-31059D01*
X29951Y-31151D01*
X29950Y-31388D01*
X30012Y-31450D01*
X30450Y-31450D01*
X30450Y-31550D01*
X30400Y-31550D01*
X30012Y-31550D01*
X29950Y-31612D01*
X29951Y-31849D01*
X29989Y-31941D01*
X29998Y-31950D01*
X20979Y-31950D01*
X17450Y-35479D01*
X17450Y-36998D01*
X17441Y-36989D01*
X17349Y-36951D01*
X17112Y-36950D01*
X17050Y-37012D01*
X17050Y-37400D01*
X17050Y-37450D01*
X17050Y-37550D01*
X17050Y-37600D01*
X17050Y-37988D01*
X17112Y-38050D01*
X17349Y-38049D01*
X17441Y-38011D01*
X17450Y-38002D01*
X17450Y-38550D01*
X23521Y-38550D01*
X24050Y-38021D01*
X24050Y-37767D01*
X24139Y-37790D01*
X24429Y-37500D01*
X24139Y-37210D01*
X24050Y-37232D01*
X24050Y-36950D01*
X21019Y-36950D01*
X21019Y-36574D01*
X21008Y-36370D01*
X20952Y-36233D01*
X20861Y-36210D01*
X20790Y-36281D01*
X20790Y-36139D01*
X20767Y-36048D01*
X20574Y-35981D01*
X20370Y-35992D01*
X20233Y-36048D01*
X20210Y-36139D01*
X20500Y-36429D01*
X20790Y-36139D01*
X20790Y-36281D01*
X20571Y-36500D01*
X20861Y-36790D01*
X20952Y-36767D01*
X21019Y-36574D01*
X21019Y-36950D01*
X20767Y-36950D01*
X20790Y-36861D01*
X20500Y-36571D01*
X20429Y-36642D01*
X20429Y-36500D01*
X20139Y-36210D01*
X20048Y-36233D01*
X19981Y-36426D01*
X19992Y-36630D01*
X20048Y-36767D01*
X20139Y-36790D01*
X20429Y-36500D01*
X20429Y-36642D01*
X20210Y-36861D01*
X20232Y-36950D01*
X19550Y-36950D01*
X19550Y-35521D01*
X22021Y-33050D01*
X28479Y-33050D01*
X28950Y-33521D01*
X28950Y-33979D01*
X28479Y-34450D01*
X24950Y-34450D01*
X24950Y-35212D01*
X24878Y-35192D01*
X24808Y-35262D01*
X24808Y-35122D01*
X24781Y-35028D01*
X24579Y-34957D01*
X24366Y-34968D01*
X24219Y-35028D01*
X24192Y-35122D01*
X24500Y-35429D01*
X24808Y-35122D01*
X24808Y-35262D01*
X24571Y-35500D01*
X24878Y-35808D01*
X24950Y-35787D01*
X24950Y-37232D01*
X24861Y-37210D01*
X24808Y-37263D01*
X24808Y-35878D01*
X24500Y-35571D01*
X24429Y-35641D01*
X24429Y-35500D01*
X24122Y-35192D01*
X24028Y-35219D01*
X24004Y-35284D01*
X23965Y-35189D01*
X23811Y-35035D01*
X23609Y-34951D01*
X23391Y-34951D01*
X23189Y-35035D01*
X23035Y-35189D01*
X22951Y-35391D01*
X22951Y-35609D01*
X23035Y-35811D01*
X23189Y-35965D01*
X23391Y-36049D01*
X23609Y-36049D01*
X23811Y-35965D01*
X23965Y-35811D01*
X24002Y-35719D01*
X24028Y-35781D01*
X24122Y-35808D01*
X24429Y-35500D01*
X24429Y-35641D01*
X24192Y-35878D01*
X24219Y-35972D01*
X24421Y-36043D01*
X24634Y-36032D01*
X24781Y-35972D01*
X24808Y-35878D01*
X24808Y-37263D01*
X24790Y-37281D01*
X24790Y-37139D01*
X24767Y-37048D01*
X24574Y-36981D01*
X24370Y-36992D01*
X24233Y-37048D01*
X24210Y-37139D01*
X24500Y-37429D01*
X24790Y-37139D01*
X24790Y-37281D01*
X24571Y-37500D01*
X24861Y-37790D01*
X24950Y-37767D01*
X24950Y-38550D01*
X31521Y-38550D01*
X32050Y-38021D01*
X32050Y-43950D01*
X31550Y-43950D01*
X31550Y-41050D01*
X31550Y-39979D01*
X31021Y-39450D01*
X25021Y-39450D01*
X24790Y-39219D01*
X24790Y-37861D01*
X24500Y-37571D01*
X24210Y-37861D01*
X24233Y-37952D01*
X24426Y-38019D01*
X24630Y-38008D01*
X24767Y-37952D01*
X24790Y-37861D01*
X24790Y-39219D01*
X24521Y-38950D01*
X21479Y-38950D01*
X20950Y-39479D01*
X20950Y-40232D01*
X20861Y-40210D01*
X20790Y-40281D01*
X20790Y-40139D01*
X20767Y-40048D01*
X20574Y-39981D01*
X20370Y-39992D01*
X20233Y-40048D01*
X20210Y-40139D01*
X20500Y-40429D01*
X20790Y-40139D01*
X20790Y-40281D01*
X20571Y-40500D01*
X20861Y-40790D01*
X20950Y-40767D01*
X20950Y-41521D01*
X21479Y-42050D01*
X22479Y-42050D01*
X23479Y-43050D01*
X29021Y-43050D01*
X29550Y-42521D01*
X29550Y-42267D01*
X29639Y-42290D01*
X29929Y-42000D01*
X29639Y-41710D01*
X29550Y-41732D01*
X29550Y-41521D01*
X30021Y-41050D01*
X31550Y-41050D01*
X31550Y-43950D01*
X30519Y-43950D01*
X30519Y-42074D01*
X30508Y-41870D01*
X30452Y-41733D01*
X30361Y-41710D01*
X30290Y-41781D01*
X30290Y-41639D01*
X30267Y-41548D01*
X30074Y-41481D01*
X29870Y-41492D01*
X29733Y-41548D01*
X29710Y-41639D01*
X30000Y-41929D01*
X30290Y-41639D01*
X30290Y-41781D01*
X30071Y-42000D01*
X30361Y-42290D01*
X30452Y-42267D01*
X30519Y-42074D01*
X30519Y-43950D01*
X30290Y-43950D01*
X30290Y-42361D01*
X30000Y-42071D01*
X29710Y-42361D01*
X29733Y-42452D01*
X29926Y-42519D01*
X30130Y-42508D01*
X30267Y-42452D01*
X30290Y-42361D01*
X30290Y-43950D01*
X20790Y-43950D01*
X20790Y-40861D01*
X20500Y-40571D01*
X20429Y-40642D01*
X20429Y-40500D01*
X20139Y-40210D01*
X20048Y-40233D01*
X19981Y-40426D01*
X19992Y-40630D01*
X20048Y-40767D01*
X20139Y-40790D01*
X20429Y-40500D01*
X20429Y-40642D01*
X20210Y-40861D01*
X20233Y-40952D01*
X20426Y-41019D01*
X20630Y-41008D01*
X20767Y-40952D01*
X20790Y-40861D01*
X20790Y-43950D01*
X19854Y-43950D01*
X19854Y-43370D01*
X19854Y-41510D01*
X16950Y-41510D01*
X16950Y-37988D01*
X16950Y-37550D01*
X16950Y-37450D01*
X16950Y-37012D01*
X16888Y-36950D01*
X16651Y-36951D01*
X16559Y-36989D01*
X16489Y-37059D01*
X16451Y-37150D01*
X16451Y-37249D01*
X16450Y-37388D01*
X16512Y-37450D01*
X16950Y-37450D01*
X16950Y-37550D01*
X16512Y-37550D01*
X16450Y-37612D01*
X16451Y-37751D01*
X16451Y-37850D01*
X16489Y-37941D01*
X16559Y-38011D01*
X16651Y-38049D01*
X16888Y-38050D01*
X16950Y-37988D01*
X16950Y-41510D01*
X16027Y-41510D01*
X16027Y-43370D01*
X19854Y-43370D01*
X19854Y-43950D01*
X16021Y-43950D01*
X15550Y-43479D01*
X15550Y-30521D01*
X16021Y-30050D01*
X32979Y-30050D01*
X33450Y-30521D01*
X33450Y-43479D01*
X33450Y-43479D01*
G37*
G54D17*
X33450Y-43479D02*
X32979Y-43950D01*
X32050Y-43950D01*
X32050Y-38021D01*
X32050Y-32479D01*
X31521Y-31950D01*
X31002Y-31950D01*
X31011Y-31941D01*
X31049Y-31849D01*
X31050Y-31612D01*
X31050Y-31388D01*
X31049Y-31151D01*
X31011Y-31059D01*
X30941Y-30989D01*
X30850Y-30951D01*
X30751Y-30951D01*
X30612Y-30950D01*
X30550Y-31012D01*
X30550Y-31450D01*
X30988Y-31450D01*
X31050Y-31388D01*
X31050Y-31612D01*
X30988Y-31550D01*
X30600Y-31550D01*
X30550Y-31550D01*
X30450Y-31550D01*
X30450Y-31450D01*
X30450Y-31012D01*
X30388Y-30950D01*
X30249Y-30951D01*
X30150Y-30951D01*
X30059Y-30989D01*
X29989Y-31059D01*
X29951Y-31151D01*
X29950Y-31388D01*
X30012Y-31450D01*
X30450Y-31450D01*
X30450Y-31550D01*
X30400Y-31550D01*
X30012Y-31550D01*
X29950Y-31612D01*
X29951Y-31849D01*
X29989Y-31941D01*
X29998Y-31950D01*
X20979Y-31950D01*
X17450Y-35479D01*
X17450Y-36998D01*
X17441Y-36989D01*
X17349Y-36951D01*
X17112Y-36950D01*
X17050Y-37012D01*
X17050Y-37400D01*
X17050Y-37450D01*
X17050Y-37550D01*
X17050Y-37600D01*
X17050Y-37988D01*
X17112Y-38050D01*
X17349Y-38049D01*
X17441Y-38011D01*
X17450Y-38002D01*
X17450Y-38550D01*
X23521Y-38550D01*
X24050Y-38021D01*
X24050Y-37767D01*
X24139Y-37790D01*
X24429Y-37500D01*
X24139Y-37210D01*
X24050Y-37232D01*
X24050Y-36950D01*
X21019Y-36950D01*
X21019Y-36574D01*
X21008Y-36370D01*
X20952Y-36233D01*
X20861Y-36210D01*
X20790Y-36281D01*
X20790Y-36139D01*
X20767Y-36048D01*
X20574Y-35981D01*
X20370Y-35992D01*
X20233Y-36048D01*
X20210Y-36139D01*
X20500Y-36429D01*
X20790Y-36139D01*
X20790Y-36281D01*
X20571Y-36500D01*
X20861Y-36790D01*
X20952Y-36767D01*
X21019Y-36574D01*
X21019Y-36950D01*
X20767Y-36950D01*
X20790Y-36861D01*
X20500Y-36571D01*
X20429Y-36642D01*
X20429Y-36500D01*
X20139Y-36210D01*
X20048Y-36233D01*
X19981Y-36426D01*
X19992Y-36630D01*
X20048Y-36767D01*
X20139Y-36790D01*
X20429Y-36500D01*
X20429Y-36642D01*
X20210Y-36861D01*
X20232Y-36950D01*
X19550Y-36950D01*
X19550Y-35521D01*
X22021Y-33050D01*
X28479Y-33050D01*
X28950Y-33521D01*
X28950Y-33979D01*
X28479Y-34450D01*
X24950Y-34450D01*
X24950Y-35212D01*
X24878Y-35192D01*
X24808Y-35262D01*
X24808Y-35122D01*
X24781Y-35028D01*
X24579Y-34957D01*
X24366Y-34968D01*
X24219Y-35028D01*
X24192Y-35122D01*
X24500Y-35429D01*
X24808Y-35122D01*
X24808Y-35262D01*
X24571Y-35500D01*
X24878Y-35808D01*
X24950Y-35787D01*
X24950Y-37232D01*
X24861Y-37210D01*
X24808Y-37263D01*
X24808Y-35878D01*
X24500Y-35571D01*
X24429Y-35641D01*
X24429Y-35500D01*
X24122Y-35192D01*
X24028Y-35219D01*
X24004Y-35284D01*
X23965Y-35189D01*
X23811Y-35035D01*
X23609Y-34951D01*
X23391Y-34951D01*
X23189Y-35035D01*
X23035Y-35189D01*
X22951Y-35391D01*
X22951Y-35609D01*
X23035Y-35811D01*
X23189Y-35965D01*
X23391Y-36049D01*
X23609Y-36049D01*
X23811Y-35965D01*
X23965Y-35811D01*
X24002Y-35719D01*
X24028Y-35781D01*
X24122Y-35808D01*
X24429Y-35500D01*
X24429Y-35641D01*
X24192Y-35878D01*
X24219Y-35972D01*
X24421Y-36043D01*
X24634Y-36032D01*
X24781Y-35972D01*
X24808Y-35878D01*
X24808Y-37263D01*
X24790Y-37281D01*
X24790Y-37139D01*
X24767Y-37048D01*
X24574Y-36981D01*
X24370Y-36992D01*
X24233Y-37048D01*
X24210Y-37139D01*
X24500Y-37429D01*
X24790Y-37139D01*
X24790Y-37281D01*
X24571Y-37500D01*
X24861Y-37790D01*
X24950Y-37767D01*
X24950Y-38550D01*
X31521Y-38550D01*
X32050Y-38021D01*
X32050Y-43950D01*
X31550Y-43950D01*
X31550Y-41050D01*
X31550Y-39979D01*
X31021Y-39450D01*
X25021Y-39450D01*
X24790Y-39219D01*
X24790Y-37861D01*
X24500Y-37571D01*
X24210Y-37861D01*
X24233Y-37952D01*
X24426Y-38019D01*
X24630Y-38008D01*
X24767Y-37952D01*
X24790Y-37861D01*
X24790Y-39219D01*
X24521Y-38950D01*
X21479Y-38950D01*
X20950Y-39479D01*
X20950Y-40232D01*
X20861Y-40210D01*
X20790Y-40281D01*
X20790Y-40139D01*
X20767Y-40048D01*
X20574Y-39981D01*
X20370Y-39992D01*
X20233Y-40048D01*
X20210Y-40139D01*
X20500Y-40429D01*
X20790Y-40139D01*
X20790Y-40281D01*
X20571Y-40500D01*
X20861Y-40790D01*
X20950Y-40767D01*
X20950Y-41521D01*
X21479Y-42050D01*
X22479Y-42050D01*
X23479Y-43050D01*
X29021Y-43050D01*
X29550Y-42521D01*
X29550Y-42267D01*
X29639Y-42290D01*
X29929Y-42000D01*
X29639Y-41710D01*
X29550Y-41732D01*
X29550Y-41521D01*
X30021Y-41050D01*
X31550Y-41050D01*
X31550Y-43950D01*
X30519Y-43950D01*
X30519Y-42074D01*
X30508Y-41870D01*
X30452Y-41733D01*
X30361Y-41710D01*
X30290Y-41781D01*
X30290Y-41639D01*
X30267Y-41548D01*
X30074Y-41481D01*
X29870Y-41492D01*
X29733Y-41548D01*
X29710Y-41639D01*
X30000Y-41929D01*
X30290Y-41639D01*
X30290Y-41781D01*
X30071Y-42000D01*
X30361Y-42290D01*
X30452Y-42267D01*
X30519Y-42074D01*
X30519Y-43950D01*
X30290Y-43950D01*
X30290Y-42361D01*
X30000Y-42071D01*
X29710Y-42361D01*
X29733Y-42452D01*
X29926Y-42519D01*
X30130Y-42508D01*
X30267Y-42452D01*
X30290Y-42361D01*
X30290Y-43950D01*
X20790Y-43950D01*
X20790Y-40861D01*
X20500Y-40571D01*
X20429Y-40642D01*
X20429Y-40500D01*
X20139Y-40210D01*
X20048Y-40233D01*
X19981Y-40426D01*
X19992Y-40630D01*
X20048Y-40767D01*
X20139Y-40790D01*
X20429Y-40500D01*
X20429Y-40642D01*
X20210Y-40861D01*
X20233Y-40952D01*
X20426Y-41019D01*
X20630Y-41008D01*
X20767Y-40952D01*
X20790Y-40861D01*
X20790Y-43950D01*
X19854Y-43950D01*
X19854Y-43370D01*
X19854Y-41510D01*
X16950Y-41510D01*
X16950Y-37988D01*
X16950Y-37550D01*
X16950Y-37450D01*
X16950Y-37012D01*
X16888Y-36950D01*
X16651Y-36951D01*
X16559Y-36989D01*
X16489Y-37059D01*
X16451Y-37150D01*
X16451Y-37249D01*
X16450Y-37388D01*
X16512Y-37450D01*
X16950Y-37450D01*
X16950Y-37550D01*
X16512Y-37550D01*
X16450Y-37612D01*
X16451Y-37751D01*
X16451Y-37850D01*
X16489Y-37941D01*
X16559Y-38011D01*
X16651Y-38049D01*
X16888Y-38050D01*
X16950Y-37988D01*
X16950Y-41510D01*
X16027Y-41510D01*
X16027Y-43370D01*
X19854Y-43370D01*
X19854Y-43950D01*
X16021Y-43950D01*
X15550Y-43479D01*
X15550Y-30521D01*
X16021Y-30050D01*
X32979Y-30050D01*
X33450Y-30521D01*
X33450Y-43479D01*
G54D10*
G36*
X100950Y-43979D02*
X100479Y-44450D01*
X99550Y-44450D01*
X99550Y-38521D01*
X99550Y-32979D01*
X99021Y-32450D01*
X98502Y-32450D01*
X98511Y-32441D01*
X98549Y-32349D01*
X98550Y-32112D01*
X98550Y-31888D01*
X98549Y-31651D01*
X98511Y-31559D01*
X98441Y-31489D01*
X98350Y-31451D01*
X98251Y-31451D01*
X98112Y-31450D01*
X98050Y-31512D01*
X98050Y-31950D01*
X98488Y-31950D01*
X98550Y-31888D01*
X98550Y-32112D01*
X98488Y-32050D01*
X98100Y-32050D01*
X98050Y-32050D01*
X97950Y-32050D01*
X97950Y-31950D01*
X97950Y-31512D01*
X97888Y-31450D01*
X97749Y-31451D01*
X97650Y-31451D01*
X97559Y-31489D01*
X97489Y-31559D01*
X97451Y-31651D01*
X97450Y-31888D01*
X97512Y-31950D01*
X97950Y-31950D01*
X97950Y-32050D01*
X97900Y-32050D01*
X97512Y-32050D01*
X97450Y-32112D01*
X97451Y-32349D01*
X97489Y-32441D01*
X97498Y-32450D01*
X88479Y-32450D01*
X84950Y-35979D01*
X84950Y-37498D01*
X84941Y-37489D01*
X84849Y-37451D01*
X84612Y-37450D01*
X84550Y-37512D01*
X84550Y-37900D01*
X84550Y-37950D01*
X84550Y-38050D01*
X84550Y-38100D01*
X84550Y-38488D01*
X84612Y-38550D01*
X84849Y-38549D01*
X84941Y-38511D01*
X84950Y-38502D01*
X84950Y-39050D01*
X91021Y-39050D01*
X91550Y-38521D01*
X91550Y-38267D01*
X91639Y-38290D01*
X91929Y-38000D01*
X91639Y-37710D01*
X91550Y-37732D01*
X91550Y-37450D01*
X88519Y-37450D01*
X88519Y-37074D01*
X88508Y-36870D01*
X88452Y-36733D01*
X88361Y-36710D01*
X88290Y-36781D01*
X88290Y-36639D01*
X88267Y-36548D01*
X88074Y-36481D01*
X87870Y-36492D01*
X87733Y-36548D01*
X87710Y-36639D01*
X88000Y-36929D01*
X88290Y-36639D01*
X88290Y-36781D01*
X88071Y-37000D01*
X88361Y-37290D01*
X88452Y-37267D01*
X88519Y-37074D01*
X88519Y-37450D01*
X88267Y-37450D01*
X88290Y-37361D01*
X88000Y-37071D01*
X87929Y-37142D01*
X87929Y-37000D01*
X87639Y-36710D01*
X87548Y-36733D01*
X87481Y-36926D01*
X87492Y-37130D01*
X87548Y-37267D01*
X87639Y-37290D01*
X87929Y-37000D01*
X87929Y-37142D01*
X87710Y-37361D01*
X87732Y-37450D01*
X87050Y-37450D01*
X87050Y-36021D01*
X89521Y-33550D01*
X95979Y-33550D01*
X96450Y-34021D01*
X96450Y-34479D01*
X95979Y-34950D01*
X92450Y-34950D01*
X92450Y-35712D01*
X92378Y-35692D01*
X92308Y-35762D01*
X92308Y-35622D01*
X92281Y-35528D01*
X92079Y-35457D01*
X91866Y-35468D01*
X91719Y-35528D01*
X91692Y-35622D01*
X92000Y-35929D01*
X92308Y-35622D01*
X92308Y-35762D01*
X92071Y-36000D01*
X92378Y-36308D01*
X92450Y-36287D01*
X92450Y-37732D01*
X92361Y-37710D01*
X92308Y-37763D01*
X92308Y-36378D01*
X92000Y-36071D01*
X91929Y-36141D01*
X91929Y-36000D01*
X91622Y-35692D01*
X91528Y-35719D01*
X91504Y-35784D01*
X91465Y-35689D01*
X91311Y-35535D01*
X91109Y-35451D01*
X90891Y-35451D01*
X90689Y-35535D01*
X90535Y-35689D01*
X90451Y-35891D01*
X90451Y-36109D01*
X90535Y-36311D01*
X90689Y-36465D01*
X90891Y-36549D01*
X91109Y-36549D01*
X91311Y-36465D01*
X91465Y-36311D01*
X91502Y-36219D01*
X91528Y-36281D01*
X91622Y-36308D01*
X91929Y-36000D01*
X91929Y-36141D01*
X91692Y-36378D01*
X91719Y-36472D01*
X91921Y-36543D01*
X92134Y-36532D01*
X92281Y-36472D01*
X92308Y-36378D01*
X92308Y-37763D01*
X92290Y-37781D01*
X92290Y-37639D01*
X92267Y-37548D01*
X92074Y-37481D01*
X91870Y-37492D01*
X91733Y-37548D01*
X91710Y-37639D01*
X92000Y-37929D01*
X92290Y-37639D01*
X92290Y-37781D01*
X92071Y-38000D01*
X92361Y-38290D01*
X92450Y-38267D01*
X92450Y-39050D01*
X99021Y-39050D01*
X99550Y-38521D01*
X99550Y-44450D01*
X99050Y-44450D01*
X99050Y-41550D01*
X99050Y-40479D01*
X98521Y-39950D01*
X92521Y-39950D01*
X92290Y-39719D01*
X92290Y-38361D01*
X92000Y-38071D01*
X91710Y-38361D01*
X91733Y-38452D01*
X91926Y-38519D01*
X92130Y-38508D01*
X92267Y-38452D01*
X92290Y-38361D01*
X92290Y-39719D01*
X92021Y-39450D01*
X88979Y-39450D01*
X88450Y-39979D01*
X88450Y-40732D01*
X88361Y-40710D01*
X88290Y-40781D01*
X88290Y-40639D01*
X88267Y-40548D01*
X88074Y-40481D01*
X87870Y-40492D01*
X87733Y-40548D01*
X87710Y-40639D01*
X88000Y-40929D01*
X88290Y-40639D01*
X88290Y-40781D01*
X88071Y-41000D01*
X88361Y-41290D01*
X88450Y-41267D01*
X88450Y-42021D01*
X88979Y-42550D01*
X89979Y-42550D01*
X90979Y-43550D01*
X96521Y-43550D01*
X97050Y-43021D01*
X97050Y-42767D01*
X97139Y-42790D01*
X97429Y-42500D01*
X97139Y-42210D01*
X97050Y-42232D01*
X97050Y-42021D01*
X97521Y-41550D01*
X99050Y-41550D01*
X99050Y-44450D01*
X98019Y-44450D01*
X98019Y-42574D01*
X98008Y-42370D01*
X97952Y-42233D01*
X97861Y-42210D01*
X97790Y-42281D01*
X97790Y-42139D01*
X97767Y-42048D01*
X97574Y-41981D01*
X97370Y-41992D01*
X97233Y-42048D01*
X97210Y-42139D01*
X97500Y-42429D01*
X97790Y-42139D01*
X97790Y-42281D01*
X97571Y-42500D01*
X97861Y-42790D01*
X97952Y-42767D01*
X98019Y-42574D01*
X98019Y-44450D01*
X97790Y-44450D01*
X97790Y-42861D01*
X97500Y-42571D01*
X97210Y-42861D01*
X97233Y-42952D01*
X97426Y-43019D01*
X97630Y-43008D01*
X97767Y-42952D01*
X97790Y-42861D01*
X97790Y-44450D01*
X88290Y-44450D01*
X88290Y-41361D01*
X88000Y-41071D01*
X87929Y-41142D01*
X87929Y-41000D01*
X87639Y-40710D01*
X87548Y-40733D01*
X87481Y-40926D01*
X87492Y-41130D01*
X87548Y-41267D01*
X87639Y-41290D01*
X87929Y-41000D01*
X87929Y-41142D01*
X87710Y-41361D01*
X87733Y-41452D01*
X87926Y-41519D01*
X88130Y-41508D01*
X88267Y-41452D01*
X88290Y-41361D01*
X88290Y-44450D01*
X87354Y-44450D01*
X87354Y-43870D01*
X87354Y-42010D01*
X84450Y-42010D01*
X84450Y-38488D01*
X84450Y-38050D01*
X84450Y-37950D01*
X84450Y-37512D01*
X84388Y-37450D01*
X84151Y-37451D01*
X84059Y-37489D01*
X83989Y-37559D01*
X83951Y-37650D01*
X83951Y-37749D01*
X83950Y-37888D01*
X84012Y-37950D01*
X84450Y-37950D01*
X84450Y-38050D01*
X84012Y-38050D01*
X83950Y-38112D01*
X83951Y-38251D01*
X83951Y-38350D01*
X83989Y-38441D01*
X84059Y-38511D01*
X84151Y-38549D01*
X84388Y-38550D01*
X84450Y-38488D01*
X84450Y-42010D01*
X83527Y-42010D01*
X83527Y-43870D01*
X87354Y-43870D01*
X87354Y-44450D01*
X83521Y-44450D01*
X83050Y-43979D01*
X83050Y-31021D01*
X83521Y-30550D01*
X100479Y-30550D01*
X100950Y-31021D01*
X100950Y-43979D01*
X100950Y-43979D01*
G37*
G54D17*
X100950Y-43979D02*
X100479Y-44450D01*
X99550Y-44450D01*
X99550Y-38521D01*
X99550Y-32979D01*
X99021Y-32450D01*
X98502Y-32450D01*
X98511Y-32441D01*
X98549Y-32349D01*
X98550Y-32112D01*
X98550Y-31888D01*
X98549Y-31651D01*
X98511Y-31559D01*
X98441Y-31489D01*
X98350Y-31451D01*
X98251Y-31451D01*
X98112Y-31450D01*
X98050Y-31512D01*
X98050Y-31950D01*
X98488Y-31950D01*
X98550Y-31888D01*
X98550Y-32112D01*
X98488Y-32050D01*
X98100Y-32050D01*
X98050Y-32050D01*
X97950Y-32050D01*
X97950Y-31950D01*
X97950Y-31512D01*
X97888Y-31450D01*
X97749Y-31451D01*
X97650Y-31451D01*
X97559Y-31489D01*
X97489Y-31559D01*
X97451Y-31651D01*
X97450Y-31888D01*
X97512Y-31950D01*
X97950Y-31950D01*
X97950Y-32050D01*
X97900Y-32050D01*
X97512Y-32050D01*
X97450Y-32112D01*
X97451Y-32349D01*
X97489Y-32441D01*
X97498Y-32450D01*
X88479Y-32450D01*
X84950Y-35979D01*
X84950Y-37498D01*
X84941Y-37489D01*
X84849Y-37451D01*
X84612Y-37450D01*
X84550Y-37512D01*
X84550Y-37900D01*
X84550Y-37950D01*
X84550Y-38050D01*
X84550Y-38100D01*
X84550Y-38488D01*
X84612Y-38550D01*
X84849Y-38549D01*
X84941Y-38511D01*
X84950Y-38502D01*
X84950Y-39050D01*
X91021Y-39050D01*
X91550Y-38521D01*
X91550Y-38267D01*
X91639Y-38290D01*
X91929Y-38000D01*
X91639Y-37710D01*
X91550Y-37732D01*
X91550Y-37450D01*
X88519Y-37450D01*
X88519Y-37074D01*
X88508Y-36870D01*
X88452Y-36733D01*
X88361Y-36710D01*
X88290Y-36781D01*
X88290Y-36639D01*
X88267Y-36548D01*
X88074Y-36481D01*
X87870Y-36492D01*
X87733Y-36548D01*
X87710Y-36639D01*
X88000Y-36929D01*
X88290Y-36639D01*
X88290Y-36781D01*
X88071Y-37000D01*
X88361Y-37290D01*
X88452Y-37267D01*
X88519Y-37074D01*
X88519Y-37450D01*
X88267Y-37450D01*
X88290Y-37361D01*
X88000Y-37071D01*
X87929Y-37142D01*
X87929Y-37000D01*
X87639Y-36710D01*
X87548Y-36733D01*
X87481Y-36926D01*
X87492Y-37130D01*
X87548Y-37267D01*
X87639Y-37290D01*
X87929Y-37000D01*
X87929Y-37142D01*
X87710Y-37361D01*
X87732Y-37450D01*
X87050Y-37450D01*
X87050Y-36021D01*
X89521Y-33550D01*
X95979Y-33550D01*
X96450Y-34021D01*
X96450Y-34479D01*
X95979Y-34950D01*
X92450Y-34950D01*
X92450Y-35712D01*
X92378Y-35692D01*
X92308Y-35762D01*
X92308Y-35622D01*
X92281Y-35528D01*
X92079Y-35457D01*
X91866Y-35468D01*
X91719Y-35528D01*
X91692Y-35622D01*
X92000Y-35929D01*
X92308Y-35622D01*
X92308Y-35762D01*
X92071Y-36000D01*
X92378Y-36308D01*
X92450Y-36287D01*
X92450Y-37732D01*
X92361Y-37710D01*
X92308Y-37763D01*
X92308Y-36378D01*
X92000Y-36071D01*
X91929Y-36141D01*
X91929Y-36000D01*
X91622Y-35692D01*
X91528Y-35719D01*
X91504Y-35784D01*
X91465Y-35689D01*
X91311Y-35535D01*
X91109Y-35451D01*
X90891Y-35451D01*
X90689Y-35535D01*
X90535Y-35689D01*
X90451Y-35891D01*
X90451Y-36109D01*
X90535Y-36311D01*
X90689Y-36465D01*
X90891Y-36549D01*
X91109Y-36549D01*
X91311Y-36465D01*
X91465Y-36311D01*
X91502Y-36219D01*
X91528Y-36281D01*
X91622Y-36308D01*
X91929Y-36000D01*
X91929Y-36141D01*
X91692Y-36378D01*
X91719Y-36472D01*
X91921Y-36543D01*
X92134Y-36532D01*
X92281Y-36472D01*
X92308Y-36378D01*
X92308Y-37763D01*
X92290Y-37781D01*
X92290Y-37639D01*
X92267Y-37548D01*
X92074Y-37481D01*
X91870Y-37492D01*
X91733Y-37548D01*
X91710Y-37639D01*
X92000Y-37929D01*
X92290Y-37639D01*
X92290Y-37781D01*
X92071Y-38000D01*
X92361Y-38290D01*
X92450Y-38267D01*
X92450Y-39050D01*
X99021Y-39050D01*
X99550Y-38521D01*
X99550Y-44450D01*
X99050Y-44450D01*
X99050Y-41550D01*
X99050Y-40479D01*
X98521Y-39950D01*
X92521Y-39950D01*
X92290Y-39719D01*
X92290Y-38361D01*
X92000Y-38071D01*
X91710Y-38361D01*
X91733Y-38452D01*
X91926Y-38519D01*
X92130Y-38508D01*
X92267Y-38452D01*
X92290Y-38361D01*
X92290Y-39719D01*
X92021Y-39450D01*
X88979Y-39450D01*
X88450Y-39979D01*
X88450Y-40732D01*
X88361Y-40710D01*
X88290Y-40781D01*
X88290Y-40639D01*
X88267Y-40548D01*
X88074Y-40481D01*
X87870Y-40492D01*
X87733Y-40548D01*
X87710Y-40639D01*
X88000Y-40929D01*
X88290Y-40639D01*
X88290Y-40781D01*
X88071Y-41000D01*
X88361Y-41290D01*
X88450Y-41267D01*
X88450Y-42021D01*
X88979Y-42550D01*
X89979Y-42550D01*
X90979Y-43550D01*
X96521Y-43550D01*
X97050Y-43021D01*
X97050Y-42767D01*
X97139Y-42790D01*
X97429Y-42500D01*
X97139Y-42210D01*
X97050Y-42232D01*
X97050Y-42021D01*
X97521Y-41550D01*
X99050Y-41550D01*
X99050Y-44450D01*
X98019Y-44450D01*
X98019Y-42574D01*
X98008Y-42370D01*
X97952Y-42233D01*
X97861Y-42210D01*
X97790Y-42281D01*
X97790Y-42139D01*
X97767Y-42048D01*
X97574Y-41981D01*
X97370Y-41992D01*
X97233Y-42048D01*
X97210Y-42139D01*
X97500Y-42429D01*
X97790Y-42139D01*
X97790Y-42281D01*
X97571Y-42500D01*
X97861Y-42790D01*
X97952Y-42767D01*
X98019Y-42574D01*
X98019Y-44450D01*
X97790Y-44450D01*
X97790Y-42861D01*
X97500Y-42571D01*
X97210Y-42861D01*
X97233Y-42952D01*
X97426Y-43019D01*
X97630Y-43008D01*
X97767Y-42952D01*
X97790Y-42861D01*
X97790Y-44450D01*
X88290Y-44450D01*
X88290Y-41361D01*
X88000Y-41071D01*
X87929Y-41142D01*
X87929Y-41000D01*
X87639Y-40710D01*
X87548Y-40733D01*
X87481Y-40926D01*
X87492Y-41130D01*
X87548Y-41267D01*
X87639Y-41290D01*
X87929Y-41000D01*
X87929Y-41142D01*
X87710Y-41361D01*
X87733Y-41452D01*
X87926Y-41519D01*
X88130Y-41508D01*
X88267Y-41452D01*
X88290Y-41361D01*
X88290Y-44450D01*
X87354Y-44450D01*
X87354Y-43870D01*
X87354Y-42010D01*
X84450Y-42010D01*
X84450Y-38488D01*
X84450Y-38050D01*
X84450Y-37950D01*
X84450Y-37512D01*
X84388Y-37450D01*
X84151Y-37451D01*
X84059Y-37489D01*
X83989Y-37559D01*
X83951Y-37650D01*
X83951Y-37749D01*
X83950Y-37888D01*
X84012Y-37950D01*
X84450Y-37950D01*
X84450Y-38050D01*
X84012Y-38050D01*
X83950Y-38112D01*
X83951Y-38251D01*
X83951Y-38350D01*
X83989Y-38441D01*
X84059Y-38511D01*
X84151Y-38549D01*
X84388Y-38550D01*
X84450Y-38488D01*
X84450Y-42010D01*
X83527Y-42010D01*
X83527Y-43870D01*
X87354Y-43870D01*
X87354Y-44450D01*
X83521Y-44450D01*
X83050Y-43979D01*
X83050Y-31021D01*
X83521Y-30550D01*
X100479Y-30550D01*
X100950Y-31021D01*
X100950Y-43979D01*
G54D10*
G36*
X67950Y-63479D02*
X67479Y-63950D01*
X66550Y-63950D01*
X66550Y-58021D01*
X66550Y-52479D01*
X66021Y-51950D01*
X65502Y-51950D01*
X65511Y-51941D01*
X65549Y-51849D01*
X65550Y-51612D01*
X65550Y-51388D01*
X65549Y-51151D01*
X65511Y-51059D01*
X65441Y-50989D01*
X65350Y-50951D01*
X65251Y-50951D01*
X65112Y-50950D01*
X65050Y-51012D01*
X65050Y-51450D01*
X65488Y-51450D01*
X65550Y-51388D01*
X65550Y-51612D01*
X65488Y-51550D01*
X65100Y-51550D01*
X65050Y-51550D01*
X64950Y-51550D01*
X64950Y-51450D01*
X64950Y-51012D01*
X64888Y-50950D01*
X64749Y-50951D01*
X64650Y-50951D01*
X64559Y-50989D01*
X64489Y-51059D01*
X64451Y-51151D01*
X64450Y-51388D01*
X64512Y-51450D01*
X64950Y-51450D01*
X64950Y-51550D01*
X64900Y-51550D01*
X64512Y-51550D01*
X64450Y-51612D01*
X64451Y-51849D01*
X64489Y-51941D01*
X64498Y-51950D01*
X55479Y-51950D01*
X51950Y-55479D01*
X51950Y-56998D01*
X51941Y-56989D01*
X51849Y-56951D01*
X51612Y-56950D01*
X51550Y-57012D01*
X51550Y-57400D01*
X51550Y-57450D01*
X51550Y-57550D01*
X51550Y-57600D01*
X51550Y-57988D01*
X51612Y-58050D01*
X51849Y-58049D01*
X51941Y-58011D01*
X51950Y-58002D01*
X51950Y-58550D01*
X58021Y-58550D01*
X58550Y-58021D01*
X58550Y-57767D01*
X58639Y-57790D01*
X58929Y-57500D01*
X58639Y-57210D01*
X58550Y-57232D01*
X58550Y-56950D01*
X55519Y-56950D01*
X55519Y-56574D01*
X55508Y-56370D01*
X55452Y-56233D01*
X55361Y-56210D01*
X55290Y-56281D01*
X55290Y-56139D01*
X55267Y-56048D01*
X55074Y-55981D01*
X54870Y-55992D01*
X54733Y-56048D01*
X54710Y-56139D01*
X55000Y-56429D01*
X55290Y-56139D01*
X55290Y-56281D01*
X55071Y-56500D01*
X55361Y-56790D01*
X55452Y-56767D01*
X55519Y-56574D01*
X55519Y-56950D01*
X55267Y-56950D01*
X55290Y-56861D01*
X55000Y-56571D01*
X54929Y-56642D01*
X54929Y-56500D01*
X54639Y-56210D01*
X54548Y-56233D01*
X54481Y-56426D01*
X54492Y-56630D01*
X54548Y-56767D01*
X54639Y-56790D01*
X54929Y-56500D01*
X54929Y-56642D01*
X54710Y-56861D01*
X54732Y-56950D01*
X54050Y-56950D01*
X54050Y-55521D01*
X56521Y-53050D01*
X62979Y-53050D01*
X63450Y-53521D01*
X63450Y-53979D01*
X62979Y-54450D01*
X59450Y-54450D01*
X59450Y-55212D01*
X59378Y-55192D01*
X59308Y-55262D01*
X59308Y-55122D01*
X59281Y-55028D01*
X59079Y-54957D01*
X58866Y-54968D01*
X58719Y-55028D01*
X58692Y-55122D01*
X59000Y-55429D01*
X59308Y-55122D01*
X59308Y-55262D01*
X59071Y-55500D01*
X59378Y-55808D01*
X59450Y-55787D01*
X59450Y-57232D01*
X59361Y-57210D01*
X59308Y-57263D01*
X59308Y-55878D01*
X59000Y-55571D01*
X58929Y-55641D01*
X58929Y-55500D01*
X58622Y-55192D01*
X58528Y-55219D01*
X58504Y-55284D01*
X58465Y-55189D01*
X58311Y-55035D01*
X58109Y-54951D01*
X57891Y-54951D01*
X57689Y-55035D01*
X57535Y-55189D01*
X57451Y-55391D01*
X57451Y-55609D01*
X57535Y-55811D01*
X57689Y-55965D01*
X57891Y-56049D01*
X58109Y-56049D01*
X58311Y-55965D01*
X58465Y-55811D01*
X58502Y-55719D01*
X58528Y-55781D01*
X58622Y-55808D01*
X58929Y-55500D01*
X58929Y-55641D01*
X58692Y-55878D01*
X58719Y-55972D01*
X58921Y-56043D01*
X59134Y-56032D01*
X59281Y-55972D01*
X59308Y-55878D01*
X59308Y-57263D01*
X59290Y-57281D01*
X59290Y-57139D01*
X59267Y-57048D01*
X59074Y-56981D01*
X58870Y-56992D01*
X58733Y-57048D01*
X58710Y-57139D01*
X59000Y-57429D01*
X59290Y-57139D01*
X59290Y-57281D01*
X59071Y-57500D01*
X59361Y-57790D01*
X59450Y-57767D01*
X59450Y-58550D01*
X66021Y-58550D01*
X66550Y-58021D01*
X66550Y-63950D01*
X66050Y-63950D01*
X66050Y-61050D01*
X66050Y-59979D01*
X65521Y-59450D01*
X59521Y-59450D01*
X59290Y-59219D01*
X59290Y-57861D01*
X59000Y-57571D01*
X58710Y-57861D01*
X58733Y-57952D01*
X58926Y-58019D01*
X59130Y-58008D01*
X59267Y-57952D01*
X59290Y-57861D01*
X59290Y-59219D01*
X59021Y-58950D01*
X55979Y-58950D01*
X55450Y-59479D01*
X55450Y-60232D01*
X55361Y-60210D01*
X55290Y-60281D01*
X55290Y-60139D01*
X55267Y-60048D01*
X55074Y-59981D01*
X54870Y-59992D01*
X54733Y-60048D01*
X54710Y-60139D01*
X55000Y-60429D01*
X55290Y-60139D01*
X55290Y-60281D01*
X55071Y-60500D01*
X55361Y-60790D01*
X55450Y-60767D01*
X55450Y-61521D01*
X55979Y-62050D01*
X56979Y-62050D01*
X57979Y-63050D01*
X63521Y-63050D01*
X64050Y-62521D01*
X64050Y-62267D01*
X64139Y-62290D01*
X64429Y-62000D01*
X64139Y-61710D01*
X64050Y-61732D01*
X64050Y-61521D01*
X64521Y-61050D01*
X66050Y-61050D01*
X66050Y-63950D01*
X65019Y-63950D01*
X65019Y-62074D01*
X65008Y-61870D01*
X64952Y-61733D01*
X64861Y-61710D01*
X64790Y-61781D01*
X64790Y-61639D01*
X64767Y-61548D01*
X64574Y-61481D01*
X64370Y-61492D01*
X64233Y-61548D01*
X64210Y-61639D01*
X64500Y-61929D01*
X64790Y-61639D01*
X64790Y-61781D01*
X64571Y-62000D01*
X64861Y-62290D01*
X64952Y-62267D01*
X65019Y-62074D01*
X65019Y-63950D01*
X64790Y-63950D01*
X64790Y-62361D01*
X64500Y-62071D01*
X64210Y-62361D01*
X64233Y-62452D01*
X64426Y-62519D01*
X64630Y-62508D01*
X64767Y-62452D01*
X64790Y-62361D01*
X64790Y-63950D01*
X55290Y-63950D01*
X55290Y-60861D01*
X55000Y-60571D01*
X54929Y-60642D01*
X54929Y-60500D01*
X54639Y-60210D01*
X54548Y-60233D01*
X54481Y-60426D01*
X54492Y-60630D01*
X54548Y-60767D01*
X54639Y-60790D01*
X54929Y-60500D01*
X54929Y-60642D01*
X54710Y-60861D01*
X54733Y-60952D01*
X54926Y-61019D01*
X55130Y-61008D01*
X55267Y-60952D01*
X55290Y-60861D01*
X55290Y-63950D01*
X54354Y-63950D01*
X54354Y-63370D01*
X54354Y-61510D01*
X51450Y-61510D01*
X51450Y-57988D01*
X51450Y-57550D01*
X51450Y-57450D01*
X51450Y-57012D01*
X51388Y-56950D01*
X51151Y-56951D01*
X51059Y-56989D01*
X50989Y-57059D01*
X50951Y-57150D01*
X50951Y-57249D01*
X50950Y-57388D01*
X51012Y-57450D01*
X51450Y-57450D01*
X51450Y-57550D01*
X51012Y-57550D01*
X50950Y-57612D01*
X50951Y-57751D01*
X50951Y-57850D01*
X50989Y-57941D01*
X51059Y-58011D01*
X51151Y-58049D01*
X51388Y-58050D01*
X51450Y-57988D01*
X51450Y-61510D01*
X50527Y-61510D01*
X50527Y-63370D01*
X54354Y-63370D01*
X54354Y-63950D01*
X50521Y-63950D01*
X50050Y-63479D01*
X50050Y-50521D01*
X50521Y-50050D01*
X67479Y-50050D01*
X67950Y-50521D01*
X67950Y-63479D01*
X67950Y-63479D01*
G37*
G54D17*
X67950Y-63479D02*
X67479Y-63950D01*
X66550Y-63950D01*
X66550Y-58021D01*
X66550Y-52479D01*
X66021Y-51950D01*
X65502Y-51950D01*
X65511Y-51941D01*
X65549Y-51849D01*
X65550Y-51612D01*
X65550Y-51388D01*
X65549Y-51151D01*
X65511Y-51059D01*
X65441Y-50989D01*
X65350Y-50951D01*
X65251Y-50951D01*
X65112Y-50950D01*
X65050Y-51012D01*
X65050Y-51450D01*
X65488Y-51450D01*
X65550Y-51388D01*
X65550Y-51612D01*
X65488Y-51550D01*
X65100Y-51550D01*
X65050Y-51550D01*
X64950Y-51550D01*
X64950Y-51450D01*
X64950Y-51012D01*
X64888Y-50950D01*
X64749Y-50951D01*
X64650Y-50951D01*
X64559Y-50989D01*
X64489Y-51059D01*
X64451Y-51151D01*
X64450Y-51388D01*
X64512Y-51450D01*
X64950Y-51450D01*
X64950Y-51550D01*
X64900Y-51550D01*
X64512Y-51550D01*
X64450Y-51612D01*
X64451Y-51849D01*
X64489Y-51941D01*
X64498Y-51950D01*
X55479Y-51950D01*
X51950Y-55479D01*
X51950Y-56998D01*
X51941Y-56989D01*
X51849Y-56951D01*
X51612Y-56950D01*
X51550Y-57012D01*
X51550Y-57400D01*
X51550Y-57450D01*
X51550Y-57550D01*
X51550Y-57600D01*
X51550Y-57988D01*
X51612Y-58050D01*
X51849Y-58049D01*
X51941Y-58011D01*
X51950Y-58002D01*
X51950Y-58550D01*
X58021Y-58550D01*
X58550Y-58021D01*
X58550Y-57767D01*
X58639Y-57790D01*
X58929Y-57500D01*
X58639Y-57210D01*
X58550Y-57232D01*
X58550Y-56950D01*
X55519Y-56950D01*
X55519Y-56574D01*
X55508Y-56370D01*
X55452Y-56233D01*
X55361Y-56210D01*
X55290Y-56281D01*
X55290Y-56139D01*
X55267Y-56048D01*
X55074Y-55981D01*
X54870Y-55992D01*
X54733Y-56048D01*
X54710Y-56139D01*
X55000Y-56429D01*
X55290Y-56139D01*
X55290Y-56281D01*
X55071Y-56500D01*
X55361Y-56790D01*
X55452Y-56767D01*
X55519Y-56574D01*
X55519Y-56950D01*
X55267Y-56950D01*
X55290Y-56861D01*
X55000Y-56571D01*
X54929Y-56642D01*
X54929Y-56500D01*
X54639Y-56210D01*
X54548Y-56233D01*
X54481Y-56426D01*
X54492Y-56630D01*
X54548Y-56767D01*
X54639Y-56790D01*
X54929Y-56500D01*
X54929Y-56642D01*
X54710Y-56861D01*
X54732Y-56950D01*
X54050Y-56950D01*
X54050Y-55521D01*
X56521Y-53050D01*
X62979Y-53050D01*
X63450Y-53521D01*
X63450Y-53979D01*
X62979Y-54450D01*
X59450Y-54450D01*
X59450Y-55212D01*
X59378Y-55192D01*
X59308Y-55262D01*
X59308Y-55122D01*
X59281Y-55028D01*
X59079Y-54957D01*
X58866Y-54968D01*
X58719Y-55028D01*
X58692Y-55122D01*
X59000Y-55429D01*
X59308Y-55122D01*
X59308Y-55262D01*
X59071Y-55500D01*
X59378Y-55808D01*
X59450Y-55787D01*
X59450Y-57232D01*
X59361Y-57210D01*
X59308Y-57263D01*
X59308Y-55878D01*
X59000Y-55571D01*
X58929Y-55641D01*
X58929Y-55500D01*
X58622Y-55192D01*
X58528Y-55219D01*
X58504Y-55284D01*
X58465Y-55189D01*
X58311Y-55035D01*
X58109Y-54951D01*
X57891Y-54951D01*
X57689Y-55035D01*
X57535Y-55189D01*
X57451Y-55391D01*
X57451Y-55609D01*
X57535Y-55811D01*
X57689Y-55965D01*
X57891Y-56049D01*
X58109Y-56049D01*
X58311Y-55965D01*
X58465Y-55811D01*
X58502Y-55719D01*
X58528Y-55781D01*
X58622Y-55808D01*
X58929Y-55500D01*
X58929Y-55641D01*
X58692Y-55878D01*
X58719Y-55972D01*
X58921Y-56043D01*
X59134Y-56032D01*
X59281Y-55972D01*
X59308Y-55878D01*
X59308Y-57263D01*
X59290Y-57281D01*
X59290Y-57139D01*
X59267Y-57048D01*
X59074Y-56981D01*
X58870Y-56992D01*
X58733Y-57048D01*
X58710Y-57139D01*
X59000Y-57429D01*
X59290Y-57139D01*
X59290Y-57281D01*
X59071Y-57500D01*
X59361Y-57790D01*
X59450Y-57767D01*
X59450Y-58550D01*
X66021Y-58550D01*
X66550Y-58021D01*
X66550Y-63950D01*
X66050Y-63950D01*
X66050Y-61050D01*
X66050Y-59979D01*
X65521Y-59450D01*
X59521Y-59450D01*
X59290Y-59219D01*
X59290Y-57861D01*
X59000Y-57571D01*
X58710Y-57861D01*
X58733Y-57952D01*
X58926Y-58019D01*
X59130Y-58008D01*
X59267Y-57952D01*
X59290Y-57861D01*
X59290Y-59219D01*
X59021Y-58950D01*
X55979Y-58950D01*
X55450Y-59479D01*
X55450Y-60232D01*
X55361Y-60210D01*
X55290Y-60281D01*
X55290Y-60139D01*
X55267Y-60048D01*
X55074Y-59981D01*
X54870Y-59992D01*
X54733Y-60048D01*
X54710Y-60139D01*
X55000Y-60429D01*
X55290Y-60139D01*
X55290Y-60281D01*
X55071Y-60500D01*
X55361Y-60790D01*
X55450Y-60767D01*
X55450Y-61521D01*
X55979Y-62050D01*
X56979Y-62050D01*
X57979Y-63050D01*
X63521Y-63050D01*
X64050Y-62521D01*
X64050Y-62267D01*
X64139Y-62290D01*
X64429Y-62000D01*
X64139Y-61710D01*
X64050Y-61732D01*
X64050Y-61521D01*
X64521Y-61050D01*
X66050Y-61050D01*
X66050Y-63950D01*
X65019Y-63950D01*
X65019Y-62074D01*
X65008Y-61870D01*
X64952Y-61733D01*
X64861Y-61710D01*
X64790Y-61781D01*
X64790Y-61639D01*
X64767Y-61548D01*
X64574Y-61481D01*
X64370Y-61492D01*
X64233Y-61548D01*
X64210Y-61639D01*
X64500Y-61929D01*
X64790Y-61639D01*
X64790Y-61781D01*
X64571Y-62000D01*
X64861Y-62290D01*
X64952Y-62267D01*
X65019Y-62074D01*
X65019Y-63950D01*
X64790Y-63950D01*
X64790Y-62361D01*
X64500Y-62071D01*
X64210Y-62361D01*
X64233Y-62452D01*
X64426Y-62519D01*
X64630Y-62508D01*
X64767Y-62452D01*
X64790Y-62361D01*
X64790Y-63950D01*
X55290Y-63950D01*
X55290Y-60861D01*
X55000Y-60571D01*
X54929Y-60642D01*
X54929Y-60500D01*
X54639Y-60210D01*
X54548Y-60233D01*
X54481Y-60426D01*
X54492Y-60630D01*
X54548Y-60767D01*
X54639Y-60790D01*
X54929Y-60500D01*
X54929Y-60642D01*
X54710Y-60861D01*
X54733Y-60952D01*
X54926Y-61019D01*
X55130Y-61008D01*
X55267Y-60952D01*
X55290Y-60861D01*
X55290Y-63950D01*
X54354Y-63950D01*
X54354Y-63370D01*
X54354Y-61510D01*
X51450Y-61510D01*
X51450Y-57988D01*
X51450Y-57550D01*
X51450Y-57450D01*
X51450Y-57012D01*
X51388Y-56950D01*
X51151Y-56951D01*
X51059Y-56989D01*
X50989Y-57059D01*
X50951Y-57150D01*
X50951Y-57249D01*
X50950Y-57388D01*
X51012Y-57450D01*
X51450Y-57450D01*
X51450Y-57550D01*
X51012Y-57550D01*
X50950Y-57612D01*
X50951Y-57751D01*
X50951Y-57850D01*
X50989Y-57941D01*
X51059Y-58011D01*
X51151Y-58049D01*
X51388Y-58050D01*
X51450Y-57988D01*
X51450Y-61510D01*
X50527Y-61510D01*
X50527Y-63370D01*
X54354Y-63370D01*
X54354Y-63950D01*
X50521Y-63950D01*
X50050Y-63479D01*
X50050Y-50521D01*
X50521Y-50050D01*
X67479Y-50050D01*
X67950Y-50521D01*
X67950Y-63479D01*
G54D10*
G36*
X33450Y-63479D02*
X32979Y-63950D01*
X32050Y-63950D01*
X32050Y-58021D01*
X32050Y-52479D01*
X31521Y-51950D01*
X31002Y-51950D01*
X31011Y-51941D01*
X31049Y-51849D01*
X31050Y-51612D01*
X31050Y-51388D01*
X31049Y-51151D01*
X31011Y-51059D01*
X30941Y-50989D01*
X30850Y-50951D01*
X30751Y-50951D01*
X30612Y-50950D01*
X30550Y-51012D01*
X30550Y-51450D01*
X30988Y-51450D01*
X31050Y-51388D01*
X31050Y-51612D01*
X30988Y-51550D01*
X30600Y-51550D01*
X30550Y-51550D01*
X30450Y-51550D01*
X30450Y-51450D01*
X30450Y-51012D01*
X30388Y-50950D01*
X30249Y-50951D01*
X30150Y-50951D01*
X30059Y-50989D01*
X29989Y-51059D01*
X29951Y-51151D01*
X29950Y-51388D01*
X30012Y-51450D01*
X30450Y-51450D01*
X30450Y-51550D01*
X30400Y-51550D01*
X30012Y-51550D01*
X29950Y-51612D01*
X29951Y-51849D01*
X29989Y-51941D01*
X29998Y-51950D01*
X20979Y-51950D01*
X17450Y-55479D01*
X17450Y-56998D01*
X17441Y-56989D01*
X17349Y-56951D01*
X17112Y-56950D01*
X17050Y-57012D01*
X17050Y-57400D01*
X17050Y-57450D01*
X17050Y-57550D01*
X17050Y-57600D01*
X17050Y-57988D01*
X17112Y-58050D01*
X17349Y-58049D01*
X17441Y-58011D01*
X17450Y-58002D01*
X17450Y-58550D01*
X23521Y-58550D01*
X24050Y-58021D01*
X24050Y-57767D01*
X24139Y-57790D01*
X24429Y-57500D01*
X24139Y-57210D01*
X24050Y-57232D01*
X24050Y-56950D01*
X21019Y-56950D01*
X21019Y-56574D01*
X21008Y-56370D01*
X20952Y-56233D01*
X20861Y-56210D01*
X20790Y-56281D01*
X20790Y-56139D01*
X20767Y-56048D01*
X20574Y-55981D01*
X20370Y-55992D01*
X20233Y-56048D01*
X20210Y-56139D01*
X20500Y-56429D01*
X20790Y-56139D01*
X20790Y-56281D01*
X20571Y-56500D01*
X20861Y-56790D01*
X20952Y-56767D01*
X21019Y-56574D01*
X21019Y-56950D01*
X20767Y-56950D01*
X20790Y-56861D01*
X20500Y-56571D01*
X20429Y-56642D01*
X20429Y-56500D01*
X20139Y-56210D01*
X20048Y-56233D01*
X19981Y-56426D01*
X19992Y-56630D01*
X20048Y-56767D01*
X20139Y-56790D01*
X20429Y-56500D01*
X20429Y-56642D01*
X20210Y-56861D01*
X20232Y-56950D01*
X19550Y-56950D01*
X19550Y-55521D01*
X22021Y-53050D01*
X28479Y-53050D01*
X28950Y-53521D01*
X28950Y-53979D01*
X28479Y-54450D01*
X24950Y-54450D01*
X24950Y-55212D01*
X24878Y-55192D01*
X24808Y-55262D01*
X24808Y-55122D01*
X24781Y-55028D01*
X24579Y-54957D01*
X24366Y-54968D01*
X24219Y-55028D01*
X24192Y-55122D01*
X24500Y-55429D01*
X24808Y-55122D01*
X24808Y-55262D01*
X24571Y-55500D01*
X24878Y-55808D01*
X24950Y-55787D01*
X24950Y-57232D01*
X24861Y-57210D01*
X24808Y-57263D01*
X24808Y-55878D01*
X24500Y-55571D01*
X24429Y-55641D01*
X24429Y-55500D01*
X24122Y-55192D01*
X24028Y-55219D01*
X24004Y-55284D01*
X23965Y-55189D01*
X23811Y-55035D01*
X23609Y-54951D01*
X23391Y-54951D01*
X23189Y-55035D01*
X23035Y-55189D01*
X22951Y-55391D01*
X22951Y-55609D01*
X23035Y-55811D01*
X23189Y-55965D01*
X23391Y-56049D01*
X23609Y-56049D01*
X23811Y-55965D01*
X23965Y-55811D01*
X24002Y-55719D01*
X24028Y-55781D01*
X24122Y-55808D01*
X24429Y-55500D01*
X24429Y-55641D01*
X24192Y-55878D01*
X24219Y-55972D01*
X24421Y-56043D01*
X24634Y-56032D01*
X24781Y-55972D01*
X24808Y-55878D01*
X24808Y-57263D01*
X24790Y-57281D01*
X24790Y-57139D01*
X24767Y-57048D01*
X24574Y-56981D01*
X24370Y-56992D01*
X24233Y-57048D01*
X24210Y-57139D01*
X24500Y-57429D01*
X24790Y-57139D01*
X24790Y-57281D01*
X24571Y-57500D01*
X24861Y-57790D01*
X24950Y-57767D01*
X24950Y-58550D01*
X31521Y-58550D01*
X32050Y-58021D01*
X32050Y-63950D01*
X31550Y-63950D01*
X31550Y-61050D01*
X31550Y-59979D01*
X31021Y-59450D01*
X25021Y-59450D01*
X24790Y-59219D01*
X24790Y-57861D01*
X24500Y-57571D01*
X24210Y-57861D01*
X24233Y-57952D01*
X24426Y-58019D01*
X24630Y-58008D01*
X24767Y-57952D01*
X24790Y-57861D01*
X24790Y-59219D01*
X24521Y-58950D01*
X21479Y-58950D01*
X20950Y-59479D01*
X20950Y-60232D01*
X20861Y-60210D01*
X20790Y-60281D01*
X20790Y-60139D01*
X20767Y-60048D01*
X20574Y-59981D01*
X20370Y-59992D01*
X20233Y-60048D01*
X20210Y-60139D01*
X20500Y-60429D01*
X20790Y-60139D01*
X20790Y-60281D01*
X20571Y-60500D01*
X20861Y-60790D01*
X20950Y-60767D01*
X20950Y-61521D01*
X21479Y-62050D01*
X22479Y-62050D01*
X23479Y-63050D01*
X29021Y-63050D01*
X29550Y-62521D01*
X29550Y-62267D01*
X29639Y-62290D01*
X29929Y-62000D01*
X29639Y-61710D01*
X29550Y-61732D01*
X29550Y-61521D01*
X30021Y-61050D01*
X31550Y-61050D01*
X31550Y-63950D01*
X30519Y-63950D01*
X30519Y-62074D01*
X30508Y-61870D01*
X30452Y-61733D01*
X30361Y-61710D01*
X30290Y-61781D01*
X30290Y-61639D01*
X30267Y-61548D01*
X30074Y-61481D01*
X29870Y-61492D01*
X29733Y-61548D01*
X29710Y-61639D01*
X30000Y-61929D01*
X30290Y-61639D01*
X30290Y-61781D01*
X30071Y-62000D01*
X30361Y-62290D01*
X30452Y-62267D01*
X30519Y-62074D01*
X30519Y-63950D01*
X30290Y-63950D01*
X30290Y-62361D01*
X30000Y-62071D01*
X29710Y-62361D01*
X29733Y-62452D01*
X29926Y-62519D01*
X30130Y-62508D01*
X30267Y-62452D01*
X30290Y-62361D01*
X30290Y-63950D01*
X20790Y-63950D01*
X20790Y-60861D01*
X20500Y-60571D01*
X20429Y-60642D01*
X20429Y-60500D01*
X20139Y-60210D01*
X20048Y-60233D01*
X19981Y-60426D01*
X19992Y-60630D01*
X20048Y-60767D01*
X20139Y-60790D01*
X20429Y-60500D01*
X20429Y-60642D01*
X20210Y-60861D01*
X20233Y-60952D01*
X20426Y-61019D01*
X20630Y-61008D01*
X20767Y-60952D01*
X20790Y-60861D01*
X20790Y-63950D01*
X19854Y-63950D01*
X19854Y-63370D01*
X19854Y-61510D01*
X16950Y-61510D01*
X16950Y-57988D01*
X16950Y-57550D01*
X16950Y-57450D01*
X16950Y-57012D01*
X16888Y-56950D01*
X16651Y-56951D01*
X16559Y-56989D01*
X16489Y-57059D01*
X16451Y-57150D01*
X16451Y-57249D01*
X16450Y-57388D01*
X16512Y-57450D01*
X16950Y-57450D01*
X16950Y-57550D01*
X16512Y-57550D01*
X16450Y-57612D01*
X16451Y-57751D01*
X16451Y-57850D01*
X16489Y-57941D01*
X16559Y-58011D01*
X16651Y-58049D01*
X16888Y-58050D01*
X16950Y-57988D01*
X16950Y-61510D01*
X16027Y-61510D01*
X16027Y-63370D01*
X19854Y-63370D01*
X19854Y-63950D01*
X16021Y-63950D01*
X15550Y-63479D01*
X15550Y-50521D01*
X16021Y-50050D01*
X32979Y-50050D01*
X33450Y-50521D01*
X33450Y-63479D01*
X33450Y-63479D01*
G37*
G54D17*
X33450Y-63479D02*
X32979Y-63950D01*
X32050Y-63950D01*
X32050Y-58021D01*
X32050Y-52479D01*
X31521Y-51950D01*
X31002Y-51950D01*
X31011Y-51941D01*
X31049Y-51849D01*
X31050Y-51612D01*
X31050Y-51388D01*
X31049Y-51151D01*
X31011Y-51059D01*
X30941Y-50989D01*
X30850Y-50951D01*
X30751Y-50951D01*
X30612Y-50950D01*
X30550Y-51012D01*
X30550Y-51450D01*
X30988Y-51450D01*
X31050Y-51388D01*
X31050Y-51612D01*
X30988Y-51550D01*
X30600Y-51550D01*
X30550Y-51550D01*
X30450Y-51550D01*
X30450Y-51450D01*
X30450Y-51012D01*
X30388Y-50950D01*
X30249Y-50951D01*
X30150Y-50951D01*
X30059Y-50989D01*
X29989Y-51059D01*
X29951Y-51151D01*
X29950Y-51388D01*
X30012Y-51450D01*
X30450Y-51450D01*
X30450Y-51550D01*
X30400Y-51550D01*
X30012Y-51550D01*
X29950Y-51612D01*
X29951Y-51849D01*
X29989Y-51941D01*
X29998Y-51950D01*
X20979Y-51950D01*
X17450Y-55479D01*
X17450Y-56998D01*
X17441Y-56989D01*
X17349Y-56951D01*
X17112Y-56950D01*
X17050Y-57012D01*
X17050Y-57400D01*
X17050Y-57450D01*
X17050Y-57550D01*
X17050Y-57600D01*
X17050Y-57988D01*
X17112Y-58050D01*
X17349Y-58049D01*
X17441Y-58011D01*
X17450Y-58002D01*
X17450Y-58550D01*
X23521Y-58550D01*
X24050Y-58021D01*
X24050Y-57767D01*
X24139Y-57790D01*
X24429Y-57500D01*
X24139Y-57210D01*
X24050Y-57232D01*
X24050Y-56950D01*
X21019Y-56950D01*
X21019Y-56574D01*
X21008Y-56370D01*
X20952Y-56233D01*
X20861Y-56210D01*
X20790Y-56281D01*
X20790Y-56139D01*
X20767Y-56048D01*
X20574Y-55981D01*
X20370Y-55992D01*
X20233Y-56048D01*
X20210Y-56139D01*
X20500Y-56429D01*
X20790Y-56139D01*
X20790Y-56281D01*
X20571Y-56500D01*
X20861Y-56790D01*
X20952Y-56767D01*
X21019Y-56574D01*
X21019Y-56950D01*
X20767Y-56950D01*
X20790Y-56861D01*
X20500Y-56571D01*
X20429Y-56642D01*
X20429Y-56500D01*
X20139Y-56210D01*
X20048Y-56233D01*
X19981Y-56426D01*
X19992Y-56630D01*
X20048Y-56767D01*
X20139Y-56790D01*
X20429Y-56500D01*
X20429Y-56642D01*
X20210Y-56861D01*
X20232Y-56950D01*
X19550Y-56950D01*
X19550Y-55521D01*
X22021Y-53050D01*
X28479Y-53050D01*
X28950Y-53521D01*
X28950Y-53979D01*
X28479Y-54450D01*
X24950Y-54450D01*
X24950Y-55212D01*
X24878Y-55192D01*
X24808Y-55262D01*
X24808Y-55122D01*
X24781Y-55028D01*
X24579Y-54957D01*
X24366Y-54968D01*
X24219Y-55028D01*
X24192Y-55122D01*
X24500Y-55429D01*
X24808Y-55122D01*
X24808Y-55262D01*
X24571Y-55500D01*
X24878Y-55808D01*
X24950Y-55787D01*
X24950Y-57232D01*
X24861Y-57210D01*
X24808Y-57263D01*
X24808Y-55878D01*
X24500Y-55571D01*
X24429Y-55641D01*
X24429Y-55500D01*
X24122Y-55192D01*
X24028Y-55219D01*
X24004Y-55284D01*
X23965Y-55189D01*
X23811Y-55035D01*
X23609Y-54951D01*
X23391Y-54951D01*
X23189Y-55035D01*
X23035Y-55189D01*
X22951Y-55391D01*
X22951Y-55609D01*
X23035Y-55811D01*
X23189Y-55965D01*
X23391Y-56049D01*
X23609Y-56049D01*
X23811Y-55965D01*
X23965Y-55811D01*
X24002Y-55719D01*
X24028Y-55781D01*
X24122Y-55808D01*
X24429Y-55500D01*
X24429Y-55641D01*
X24192Y-55878D01*
X24219Y-55972D01*
X24421Y-56043D01*
X24634Y-56032D01*
X24781Y-55972D01*
X24808Y-55878D01*
X24808Y-57263D01*
X24790Y-57281D01*
X24790Y-57139D01*
X24767Y-57048D01*
X24574Y-56981D01*
X24370Y-56992D01*
X24233Y-57048D01*
X24210Y-57139D01*
X24500Y-57429D01*
X24790Y-57139D01*
X24790Y-57281D01*
X24571Y-57500D01*
X24861Y-57790D01*
X24950Y-57767D01*
X24950Y-58550D01*
X31521Y-58550D01*
X32050Y-58021D01*
X32050Y-63950D01*
X31550Y-63950D01*
X31550Y-61050D01*
X31550Y-59979D01*
X31021Y-59450D01*
X25021Y-59450D01*
X24790Y-59219D01*
X24790Y-57861D01*
X24500Y-57571D01*
X24210Y-57861D01*
X24233Y-57952D01*
X24426Y-58019D01*
X24630Y-58008D01*
X24767Y-57952D01*
X24790Y-57861D01*
X24790Y-59219D01*
X24521Y-58950D01*
X21479Y-58950D01*
X20950Y-59479D01*
X20950Y-60232D01*
X20861Y-60210D01*
X20790Y-60281D01*
X20790Y-60139D01*
X20767Y-60048D01*
X20574Y-59981D01*
X20370Y-59992D01*
X20233Y-60048D01*
X20210Y-60139D01*
X20500Y-60429D01*
X20790Y-60139D01*
X20790Y-60281D01*
X20571Y-60500D01*
X20861Y-60790D01*
X20950Y-60767D01*
X20950Y-61521D01*
X21479Y-62050D01*
X22479Y-62050D01*
X23479Y-63050D01*
X29021Y-63050D01*
X29550Y-62521D01*
X29550Y-62267D01*
X29639Y-62290D01*
X29929Y-62000D01*
X29639Y-61710D01*
X29550Y-61732D01*
X29550Y-61521D01*
X30021Y-61050D01*
X31550Y-61050D01*
X31550Y-63950D01*
X30519Y-63950D01*
X30519Y-62074D01*
X30508Y-61870D01*
X30452Y-61733D01*
X30361Y-61710D01*
X30290Y-61781D01*
X30290Y-61639D01*
X30267Y-61548D01*
X30074Y-61481D01*
X29870Y-61492D01*
X29733Y-61548D01*
X29710Y-61639D01*
X30000Y-61929D01*
X30290Y-61639D01*
X30290Y-61781D01*
X30071Y-62000D01*
X30361Y-62290D01*
X30452Y-62267D01*
X30519Y-62074D01*
X30519Y-63950D01*
X30290Y-63950D01*
X30290Y-62361D01*
X30000Y-62071D01*
X29710Y-62361D01*
X29733Y-62452D01*
X29926Y-62519D01*
X30130Y-62508D01*
X30267Y-62452D01*
X30290Y-62361D01*
X30290Y-63950D01*
X20790Y-63950D01*
X20790Y-60861D01*
X20500Y-60571D01*
X20429Y-60642D01*
X20429Y-60500D01*
X20139Y-60210D01*
X20048Y-60233D01*
X19981Y-60426D01*
X19992Y-60630D01*
X20048Y-60767D01*
X20139Y-60790D01*
X20429Y-60500D01*
X20429Y-60642D01*
X20210Y-60861D01*
X20233Y-60952D01*
X20426Y-61019D01*
X20630Y-61008D01*
X20767Y-60952D01*
X20790Y-60861D01*
X20790Y-63950D01*
X19854Y-63950D01*
X19854Y-63370D01*
X19854Y-61510D01*
X16950Y-61510D01*
X16950Y-57988D01*
X16950Y-57550D01*
X16950Y-57450D01*
X16950Y-57012D01*
X16888Y-56950D01*
X16651Y-56951D01*
X16559Y-56989D01*
X16489Y-57059D01*
X16451Y-57150D01*
X16451Y-57249D01*
X16450Y-57388D01*
X16512Y-57450D01*
X16950Y-57450D01*
X16950Y-57550D01*
X16512Y-57550D01*
X16450Y-57612D01*
X16451Y-57751D01*
X16451Y-57850D01*
X16489Y-57941D01*
X16559Y-58011D01*
X16651Y-58049D01*
X16888Y-58050D01*
X16950Y-57988D01*
X16950Y-61510D01*
X16027Y-61510D01*
X16027Y-63370D01*
X19854Y-63370D01*
X19854Y-63950D01*
X16021Y-63950D01*
X15550Y-63479D01*
X15550Y-50521D01*
X16021Y-50050D01*
X32979Y-50050D01*
X33450Y-50521D01*
X33450Y-63479D01*
G54D10*
G36*
X100950Y-63979D02*
X100479Y-64450D01*
X99550Y-64450D01*
X99550Y-58521D01*
X99550Y-52979D01*
X99021Y-52450D01*
X98502Y-52450D01*
X98511Y-52441D01*
X98549Y-52349D01*
X98550Y-52112D01*
X98550Y-51888D01*
X98549Y-51651D01*
X98511Y-51559D01*
X98441Y-51489D01*
X98350Y-51451D01*
X98251Y-51451D01*
X98112Y-51450D01*
X98050Y-51512D01*
X98050Y-51950D01*
X98488Y-51950D01*
X98550Y-51888D01*
X98550Y-52112D01*
X98488Y-52050D01*
X98100Y-52050D01*
X98050Y-52050D01*
X97950Y-52050D01*
X97950Y-51950D01*
X97950Y-51512D01*
X97888Y-51450D01*
X97749Y-51451D01*
X97650Y-51451D01*
X97559Y-51489D01*
X97489Y-51559D01*
X97451Y-51651D01*
X97450Y-51888D01*
X97512Y-51950D01*
X97950Y-51950D01*
X97950Y-52050D01*
X97900Y-52050D01*
X97512Y-52050D01*
X97450Y-52112D01*
X97451Y-52349D01*
X97489Y-52441D01*
X97498Y-52450D01*
X88479Y-52450D01*
X84950Y-55979D01*
X84950Y-57498D01*
X84941Y-57489D01*
X84849Y-57451D01*
X84612Y-57450D01*
X84550Y-57512D01*
X84550Y-57900D01*
X84550Y-57950D01*
X84550Y-58050D01*
X84550Y-58100D01*
X84550Y-58488D01*
X84612Y-58550D01*
X84849Y-58549D01*
X84941Y-58511D01*
X84950Y-58502D01*
X84950Y-59050D01*
X91021Y-59050D01*
X91550Y-58521D01*
X91550Y-58267D01*
X91639Y-58290D01*
X91929Y-58000D01*
X91639Y-57710D01*
X91550Y-57732D01*
X91550Y-57450D01*
X88519Y-57450D01*
X88519Y-57074D01*
X88508Y-56870D01*
X88452Y-56733D01*
X88361Y-56710D01*
X88290Y-56781D01*
X88290Y-56639D01*
X88267Y-56548D01*
X88074Y-56481D01*
X87870Y-56492D01*
X87733Y-56548D01*
X87710Y-56639D01*
X88000Y-56929D01*
X88290Y-56639D01*
X88290Y-56781D01*
X88071Y-57000D01*
X88361Y-57290D01*
X88452Y-57267D01*
X88519Y-57074D01*
X88519Y-57450D01*
X88267Y-57450D01*
X88290Y-57361D01*
X88000Y-57071D01*
X87929Y-57142D01*
X87929Y-57000D01*
X87639Y-56710D01*
X87548Y-56733D01*
X87481Y-56926D01*
X87492Y-57130D01*
X87548Y-57267D01*
X87639Y-57290D01*
X87929Y-57000D01*
X87929Y-57142D01*
X87710Y-57361D01*
X87732Y-57450D01*
X87050Y-57450D01*
X87050Y-56021D01*
X89521Y-53550D01*
X95979Y-53550D01*
X96450Y-54021D01*
X96450Y-54479D01*
X95979Y-54950D01*
X92450Y-54950D01*
X92450Y-55712D01*
X92378Y-55692D01*
X92308Y-55762D01*
X92308Y-55622D01*
X92281Y-55528D01*
X92079Y-55457D01*
X91866Y-55468D01*
X91719Y-55528D01*
X91692Y-55622D01*
X92000Y-55929D01*
X92308Y-55622D01*
X92308Y-55762D01*
X92071Y-56000D01*
X92378Y-56308D01*
X92450Y-56287D01*
X92450Y-57732D01*
X92361Y-57710D01*
X92308Y-57763D01*
X92308Y-56378D01*
X92000Y-56071D01*
X91929Y-56141D01*
X91929Y-56000D01*
X91622Y-55692D01*
X91528Y-55719D01*
X91504Y-55784D01*
X91465Y-55689D01*
X91311Y-55535D01*
X91109Y-55451D01*
X90891Y-55451D01*
X90689Y-55535D01*
X90535Y-55689D01*
X90451Y-55891D01*
X90451Y-56109D01*
X90535Y-56311D01*
X90689Y-56465D01*
X90891Y-56549D01*
X91109Y-56549D01*
X91311Y-56465D01*
X91465Y-56311D01*
X91502Y-56219D01*
X91528Y-56281D01*
X91622Y-56308D01*
X91929Y-56000D01*
X91929Y-56141D01*
X91692Y-56378D01*
X91719Y-56472D01*
X91921Y-56543D01*
X92134Y-56532D01*
X92281Y-56472D01*
X92308Y-56378D01*
X92308Y-57763D01*
X92290Y-57781D01*
X92290Y-57639D01*
X92267Y-57548D01*
X92074Y-57481D01*
X91870Y-57492D01*
X91733Y-57548D01*
X91710Y-57639D01*
X92000Y-57929D01*
X92290Y-57639D01*
X92290Y-57781D01*
X92071Y-58000D01*
X92361Y-58290D01*
X92450Y-58267D01*
X92450Y-59050D01*
X99021Y-59050D01*
X99550Y-58521D01*
X99550Y-64450D01*
X99050Y-64450D01*
X99050Y-61550D01*
X99050Y-60479D01*
X98521Y-59950D01*
X92521Y-59950D01*
X92290Y-59719D01*
X92290Y-58361D01*
X92000Y-58071D01*
X91710Y-58361D01*
X91733Y-58452D01*
X91926Y-58519D01*
X92130Y-58508D01*
X92267Y-58452D01*
X92290Y-58361D01*
X92290Y-59719D01*
X92021Y-59450D01*
X88979Y-59450D01*
X88450Y-59979D01*
X88450Y-60732D01*
X88361Y-60710D01*
X88290Y-60781D01*
X88290Y-60639D01*
X88267Y-60548D01*
X88074Y-60481D01*
X87870Y-60492D01*
X87733Y-60548D01*
X87710Y-60639D01*
X88000Y-60929D01*
X88290Y-60639D01*
X88290Y-60781D01*
X88071Y-61000D01*
X88361Y-61290D01*
X88450Y-61267D01*
X88450Y-62021D01*
X88979Y-62550D01*
X89979Y-62550D01*
X90979Y-63550D01*
X96521Y-63550D01*
X97050Y-63021D01*
X97050Y-62767D01*
X97139Y-62790D01*
X97429Y-62500D01*
X97139Y-62210D01*
X97050Y-62232D01*
X97050Y-62021D01*
X97521Y-61550D01*
X99050Y-61550D01*
X99050Y-64450D01*
X98019Y-64450D01*
X98019Y-62574D01*
X98008Y-62370D01*
X97952Y-62233D01*
X97861Y-62210D01*
X97790Y-62281D01*
X97790Y-62139D01*
X97767Y-62048D01*
X97574Y-61981D01*
X97370Y-61992D01*
X97233Y-62048D01*
X97210Y-62139D01*
X97500Y-62429D01*
X97790Y-62139D01*
X97790Y-62281D01*
X97571Y-62500D01*
X97861Y-62790D01*
X97952Y-62767D01*
X98019Y-62574D01*
X98019Y-64450D01*
X97790Y-64450D01*
X97790Y-62861D01*
X97500Y-62571D01*
X97210Y-62861D01*
X97233Y-62952D01*
X97426Y-63019D01*
X97630Y-63008D01*
X97767Y-62952D01*
X97790Y-62861D01*
X97790Y-64450D01*
X88290Y-64450D01*
X88290Y-61361D01*
X88000Y-61071D01*
X87929Y-61142D01*
X87929Y-61000D01*
X87639Y-60710D01*
X87548Y-60733D01*
X87481Y-60926D01*
X87492Y-61130D01*
X87548Y-61267D01*
X87639Y-61290D01*
X87929Y-61000D01*
X87929Y-61142D01*
X87710Y-61361D01*
X87733Y-61452D01*
X87926Y-61519D01*
X88130Y-61508D01*
X88267Y-61452D01*
X88290Y-61361D01*
X88290Y-64450D01*
X87354Y-64450D01*
X87354Y-63870D01*
X87354Y-62010D01*
X84450Y-62010D01*
X84450Y-58488D01*
X84450Y-58050D01*
X84450Y-57950D01*
X84450Y-57512D01*
X84388Y-57450D01*
X84151Y-57451D01*
X84059Y-57489D01*
X83989Y-57559D01*
X83951Y-57650D01*
X83951Y-57749D01*
X83950Y-57888D01*
X84012Y-57950D01*
X84450Y-57950D01*
X84450Y-58050D01*
X84012Y-58050D01*
X83950Y-58112D01*
X83951Y-58251D01*
X83951Y-58350D01*
X83989Y-58441D01*
X84059Y-58511D01*
X84151Y-58549D01*
X84388Y-58550D01*
X84450Y-58488D01*
X84450Y-62010D01*
X83527Y-62010D01*
X83527Y-63870D01*
X87354Y-63870D01*
X87354Y-64450D01*
X83521Y-64450D01*
X83050Y-63979D01*
X83050Y-51021D01*
X83521Y-50550D01*
X100479Y-50550D01*
X100950Y-51021D01*
X100950Y-63979D01*
X100950Y-63979D01*
G37*
G54D17*
X100950Y-63979D02*
X100479Y-64450D01*
X99550Y-64450D01*
X99550Y-58521D01*
X99550Y-52979D01*
X99021Y-52450D01*
X98502Y-52450D01*
X98511Y-52441D01*
X98549Y-52349D01*
X98550Y-52112D01*
X98550Y-51888D01*
X98549Y-51651D01*
X98511Y-51559D01*
X98441Y-51489D01*
X98350Y-51451D01*
X98251Y-51451D01*
X98112Y-51450D01*
X98050Y-51512D01*
X98050Y-51950D01*
X98488Y-51950D01*
X98550Y-51888D01*
X98550Y-52112D01*
X98488Y-52050D01*
X98100Y-52050D01*
X98050Y-52050D01*
X97950Y-52050D01*
X97950Y-51950D01*
X97950Y-51512D01*
X97888Y-51450D01*
X97749Y-51451D01*
X97650Y-51451D01*
X97559Y-51489D01*
X97489Y-51559D01*
X97451Y-51651D01*
X97450Y-51888D01*
X97512Y-51950D01*
X97950Y-51950D01*
X97950Y-52050D01*
X97900Y-52050D01*
X97512Y-52050D01*
X97450Y-52112D01*
X97451Y-52349D01*
X97489Y-52441D01*
X97498Y-52450D01*
X88479Y-52450D01*
X84950Y-55979D01*
X84950Y-57498D01*
X84941Y-57489D01*
X84849Y-57451D01*
X84612Y-57450D01*
X84550Y-57512D01*
X84550Y-57900D01*
X84550Y-57950D01*
X84550Y-58050D01*
X84550Y-58100D01*
X84550Y-58488D01*
X84612Y-58550D01*
X84849Y-58549D01*
X84941Y-58511D01*
X84950Y-58502D01*
X84950Y-59050D01*
X91021Y-59050D01*
X91550Y-58521D01*
X91550Y-58267D01*
X91639Y-58290D01*
X91929Y-58000D01*
X91639Y-57710D01*
X91550Y-57732D01*
X91550Y-57450D01*
X88519Y-57450D01*
X88519Y-57074D01*
X88508Y-56870D01*
X88452Y-56733D01*
X88361Y-56710D01*
X88290Y-56781D01*
X88290Y-56639D01*
X88267Y-56548D01*
X88074Y-56481D01*
X87870Y-56492D01*
X87733Y-56548D01*
X87710Y-56639D01*
X88000Y-56929D01*
X88290Y-56639D01*
X88290Y-56781D01*
X88071Y-57000D01*
X88361Y-57290D01*
X88452Y-57267D01*
X88519Y-57074D01*
X88519Y-57450D01*
X88267Y-57450D01*
X88290Y-57361D01*
X88000Y-57071D01*
X87929Y-57142D01*
X87929Y-57000D01*
X87639Y-56710D01*
X87548Y-56733D01*
X87481Y-56926D01*
X87492Y-57130D01*
X87548Y-57267D01*
X87639Y-57290D01*
X87929Y-57000D01*
X87929Y-57142D01*
X87710Y-57361D01*
X87732Y-57450D01*
X87050Y-57450D01*
X87050Y-56021D01*
X89521Y-53550D01*
X95979Y-53550D01*
X96450Y-54021D01*
X96450Y-54479D01*
X95979Y-54950D01*
X92450Y-54950D01*
X92450Y-55712D01*
X92378Y-55692D01*
X92308Y-55762D01*
X92308Y-55622D01*
X92281Y-55528D01*
X92079Y-55457D01*
X91866Y-55468D01*
X91719Y-55528D01*
X91692Y-55622D01*
X92000Y-55929D01*
X92308Y-55622D01*
X92308Y-55762D01*
X92071Y-56000D01*
X92378Y-56308D01*
X92450Y-56287D01*
X92450Y-57732D01*
X92361Y-57710D01*
X92308Y-57763D01*
X92308Y-56378D01*
X92000Y-56071D01*
X91929Y-56141D01*
X91929Y-56000D01*
X91622Y-55692D01*
X91528Y-55719D01*
X91504Y-55784D01*
X91465Y-55689D01*
X91311Y-55535D01*
X91109Y-55451D01*
X90891Y-55451D01*
X90689Y-55535D01*
X90535Y-55689D01*
X90451Y-55891D01*
X90451Y-56109D01*
X90535Y-56311D01*
X90689Y-56465D01*
X90891Y-56549D01*
X91109Y-56549D01*
X91311Y-56465D01*
X91465Y-56311D01*
X91502Y-56219D01*
X91528Y-56281D01*
X91622Y-56308D01*
X91929Y-56000D01*
X91929Y-56141D01*
X91692Y-56378D01*
X91719Y-56472D01*
X91921Y-56543D01*
X92134Y-56532D01*
X92281Y-56472D01*
X92308Y-56378D01*
X92308Y-57763D01*
X92290Y-57781D01*
X92290Y-57639D01*
X92267Y-57548D01*
X92074Y-57481D01*
X91870Y-57492D01*
X91733Y-57548D01*
X91710Y-57639D01*
X92000Y-57929D01*
X92290Y-57639D01*
X92290Y-57781D01*
X92071Y-58000D01*
X92361Y-58290D01*
X92450Y-58267D01*
X92450Y-59050D01*
X99021Y-59050D01*
X99550Y-58521D01*
X99550Y-64450D01*
X99050Y-64450D01*
X99050Y-61550D01*
X99050Y-60479D01*
X98521Y-59950D01*
X92521Y-59950D01*
X92290Y-59719D01*
X92290Y-58361D01*
X92000Y-58071D01*
X91710Y-58361D01*
X91733Y-58452D01*
X91926Y-58519D01*
X92130Y-58508D01*
X92267Y-58452D01*
X92290Y-58361D01*
X92290Y-59719D01*
X92021Y-59450D01*
X88979Y-59450D01*
X88450Y-59979D01*
X88450Y-60732D01*
X88361Y-60710D01*
X88290Y-60781D01*
X88290Y-60639D01*
X88267Y-60548D01*
X88074Y-60481D01*
X87870Y-60492D01*
X87733Y-60548D01*
X87710Y-60639D01*
X88000Y-60929D01*
X88290Y-60639D01*
X88290Y-60781D01*
X88071Y-61000D01*
X88361Y-61290D01*
X88450Y-61267D01*
X88450Y-62021D01*
X88979Y-62550D01*
X89979Y-62550D01*
X90979Y-63550D01*
X96521Y-63550D01*
X97050Y-63021D01*
X97050Y-62767D01*
X97139Y-62790D01*
X97429Y-62500D01*
X97139Y-62210D01*
X97050Y-62232D01*
X97050Y-62021D01*
X97521Y-61550D01*
X99050Y-61550D01*
X99050Y-64450D01*
X98019Y-64450D01*
X98019Y-62574D01*
X98008Y-62370D01*
X97952Y-62233D01*
X97861Y-62210D01*
X97790Y-62281D01*
X97790Y-62139D01*
X97767Y-62048D01*
X97574Y-61981D01*
X97370Y-61992D01*
X97233Y-62048D01*
X97210Y-62139D01*
X97500Y-62429D01*
X97790Y-62139D01*
X97790Y-62281D01*
X97571Y-62500D01*
X97861Y-62790D01*
X97952Y-62767D01*
X98019Y-62574D01*
X98019Y-64450D01*
X97790Y-64450D01*
X97790Y-62861D01*
X97500Y-62571D01*
X97210Y-62861D01*
X97233Y-62952D01*
X97426Y-63019D01*
X97630Y-63008D01*
X97767Y-62952D01*
X97790Y-62861D01*
X97790Y-64450D01*
X88290Y-64450D01*
X88290Y-61361D01*
X88000Y-61071D01*
X87929Y-61142D01*
X87929Y-61000D01*
X87639Y-60710D01*
X87548Y-60733D01*
X87481Y-60926D01*
X87492Y-61130D01*
X87548Y-61267D01*
X87639Y-61290D01*
X87929Y-61000D01*
X87929Y-61142D01*
X87710Y-61361D01*
X87733Y-61452D01*
X87926Y-61519D01*
X88130Y-61508D01*
X88267Y-61452D01*
X88290Y-61361D01*
X88290Y-64450D01*
X87354Y-64450D01*
X87354Y-63870D01*
X87354Y-62010D01*
X84450Y-62010D01*
X84450Y-58488D01*
X84450Y-58050D01*
X84450Y-57950D01*
X84450Y-57512D01*
X84388Y-57450D01*
X84151Y-57451D01*
X84059Y-57489D01*
X83989Y-57559D01*
X83951Y-57650D01*
X83951Y-57749D01*
X83950Y-57888D01*
X84012Y-57950D01*
X84450Y-57950D01*
X84450Y-58050D01*
X84012Y-58050D01*
X83950Y-58112D01*
X83951Y-58251D01*
X83951Y-58350D01*
X83989Y-58441D01*
X84059Y-58511D01*
X84151Y-58549D01*
X84388Y-58550D01*
X84450Y-58488D01*
X84450Y-62010D01*
X83527Y-62010D01*
X83527Y-63870D01*
X87354Y-63870D01*
X87354Y-64450D01*
X83521Y-64450D01*
X83050Y-63979D01*
X83050Y-51021D01*
X83521Y-50550D01*
X100479Y-50550D01*
X100950Y-51021D01*
X100950Y-63979D01*
M02*
