G04 (created by PCBNEW-RS274X (2011-05-25)-stable) date lun 21 nov 2011 16:39:51 UYST*
G01*
G70*
G90*
%MOIN*%
G04 Gerber Fmt 3.4, Leading zero omitted, Abs format*
%FSLAX34Y34*%
G04 APERTURE LIST*
%ADD10C,0.006000*%
%ADD11C,0.012000*%
%ADD12C,0.015000*%
%ADD13C,0.008000*%
%ADD14C,0.011300*%
G04 APERTURE END LIST*
G54D10*
X84000Y-58500D02*
X84000Y-57500D01*
X84000Y-57500D02*
X86000Y-57500D01*
X86000Y-57500D02*
X86000Y-58500D01*
X86000Y-58500D02*
X84000Y-58500D01*
G54D11*
X95500Y-56500D02*
X95500Y-55500D01*
X90500Y-55500D02*
X90500Y-56500D01*
X95500Y-56500D02*
X90500Y-56500D01*
X90500Y-55500D02*
X95500Y-55500D01*
X98500Y-51500D02*
X97500Y-51500D01*
X97500Y-56500D02*
X98500Y-56500D01*
X98500Y-51500D02*
X98500Y-56500D01*
X97500Y-56500D02*
X97500Y-51500D01*
X87500Y-58480D02*
X87500Y-56500D01*
X87500Y-56500D02*
X88500Y-56500D01*
X88500Y-56500D02*
X88500Y-58500D01*
X88500Y-58500D02*
X87500Y-58500D01*
X87750Y-58500D02*
X87500Y-58250D01*
X89480Y-61500D02*
X87500Y-61500D01*
X87500Y-61500D02*
X87500Y-60500D01*
X87500Y-60500D02*
X89500Y-60500D01*
X89500Y-60500D02*
X89500Y-61500D01*
X89500Y-61250D02*
X89250Y-61500D01*
X96020Y-62000D02*
X98000Y-62000D01*
X98000Y-62000D02*
X98000Y-63000D01*
X98000Y-63000D02*
X96000Y-63000D01*
X96000Y-63000D02*
X96000Y-62000D01*
X96000Y-62250D02*
X96250Y-62000D01*
X93520Y-62000D02*
X95500Y-62000D01*
X95500Y-62000D02*
X95500Y-63000D01*
X95500Y-63000D02*
X93500Y-63000D01*
X93500Y-63000D02*
X93500Y-62000D01*
X93500Y-62250D02*
X93750Y-62000D01*
X91020Y-62000D02*
X93000Y-62000D01*
X93000Y-62000D02*
X93000Y-63000D01*
X93000Y-63000D02*
X91000Y-63000D01*
X91000Y-63000D02*
X91000Y-62000D01*
X91000Y-62250D02*
X91250Y-62000D01*
G54D12*
X90000Y-59000D02*
X90000Y-59000D01*
X90000Y-59000D02*
X90500Y-59000D01*
X90500Y-59000D02*
X90500Y-60000D01*
X90500Y-60000D02*
X90000Y-60000D01*
X90000Y-58500D02*
X99000Y-58500D01*
X99000Y-58500D02*
X99000Y-60500D01*
X99000Y-60500D02*
X90000Y-60500D01*
X90000Y-60500D02*
X90000Y-58500D01*
G54D10*
X16500Y-58000D02*
X16500Y-57000D01*
X16500Y-57000D02*
X18500Y-57000D01*
X18500Y-57000D02*
X18500Y-58000D01*
X18500Y-58000D02*
X16500Y-58000D01*
G54D11*
X28000Y-56000D02*
X28000Y-55000D01*
X23000Y-55000D02*
X23000Y-56000D01*
X28000Y-56000D02*
X23000Y-56000D01*
X23000Y-55000D02*
X28000Y-55000D01*
X31000Y-51000D02*
X30000Y-51000D01*
X30000Y-56000D02*
X31000Y-56000D01*
X31000Y-51000D02*
X31000Y-56000D01*
X30000Y-56000D02*
X30000Y-51000D01*
X20000Y-57980D02*
X20000Y-56000D01*
X20000Y-56000D02*
X21000Y-56000D01*
X21000Y-56000D02*
X21000Y-58000D01*
X21000Y-58000D02*
X20000Y-58000D01*
X20250Y-58000D02*
X20000Y-57750D01*
X21980Y-61000D02*
X20000Y-61000D01*
X20000Y-61000D02*
X20000Y-60000D01*
X20000Y-60000D02*
X22000Y-60000D01*
X22000Y-60000D02*
X22000Y-61000D01*
X22000Y-60750D02*
X21750Y-61000D01*
X28520Y-61500D02*
X30500Y-61500D01*
X30500Y-61500D02*
X30500Y-62500D01*
X30500Y-62500D02*
X28500Y-62500D01*
X28500Y-62500D02*
X28500Y-61500D01*
X28500Y-61750D02*
X28750Y-61500D01*
X26020Y-61500D02*
X28000Y-61500D01*
X28000Y-61500D02*
X28000Y-62500D01*
X28000Y-62500D02*
X26000Y-62500D01*
X26000Y-62500D02*
X26000Y-61500D01*
X26000Y-61750D02*
X26250Y-61500D01*
X23520Y-61500D02*
X25500Y-61500D01*
X25500Y-61500D02*
X25500Y-62500D01*
X25500Y-62500D02*
X23500Y-62500D01*
X23500Y-62500D02*
X23500Y-61500D01*
X23500Y-61750D02*
X23750Y-61500D01*
G54D12*
X22500Y-58500D02*
X22500Y-58500D01*
X22500Y-58500D02*
X23000Y-58500D01*
X23000Y-58500D02*
X23000Y-59500D01*
X23000Y-59500D02*
X22500Y-59500D01*
X22500Y-58000D02*
X31500Y-58000D01*
X31500Y-58000D02*
X31500Y-60000D01*
X31500Y-60000D02*
X22500Y-60000D01*
X22500Y-60000D02*
X22500Y-58000D01*
X57000Y-58500D02*
X57000Y-58500D01*
X57000Y-58500D02*
X57500Y-58500D01*
X57500Y-58500D02*
X57500Y-59500D01*
X57500Y-59500D02*
X57000Y-59500D01*
X57000Y-58000D02*
X66000Y-58000D01*
X66000Y-58000D02*
X66000Y-60000D01*
X66000Y-60000D02*
X57000Y-60000D01*
X57000Y-60000D02*
X57000Y-58000D01*
G54D11*
X58020Y-61500D02*
X60000Y-61500D01*
X60000Y-61500D02*
X60000Y-62500D01*
X60000Y-62500D02*
X58000Y-62500D01*
X58000Y-62500D02*
X58000Y-61500D01*
X58000Y-61750D02*
X58250Y-61500D01*
X60520Y-61500D02*
X62500Y-61500D01*
X62500Y-61500D02*
X62500Y-62500D01*
X62500Y-62500D02*
X60500Y-62500D01*
X60500Y-62500D02*
X60500Y-61500D01*
X60500Y-61750D02*
X60750Y-61500D01*
X63020Y-61500D02*
X65000Y-61500D01*
X65000Y-61500D02*
X65000Y-62500D01*
X65000Y-62500D02*
X63000Y-62500D01*
X63000Y-62500D02*
X63000Y-61500D01*
X63000Y-61750D02*
X63250Y-61500D01*
X56480Y-61000D02*
X54500Y-61000D01*
X54500Y-61000D02*
X54500Y-60000D01*
X54500Y-60000D02*
X56500Y-60000D01*
X56500Y-60000D02*
X56500Y-61000D01*
X56500Y-60750D02*
X56250Y-61000D01*
X54500Y-57980D02*
X54500Y-56000D01*
X54500Y-56000D02*
X55500Y-56000D01*
X55500Y-56000D02*
X55500Y-58000D01*
X55500Y-58000D02*
X54500Y-58000D01*
X54750Y-58000D02*
X54500Y-57750D01*
X65500Y-51000D02*
X64500Y-51000D01*
X64500Y-56000D02*
X65500Y-56000D01*
X65500Y-51000D02*
X65500Y-56000D01*
X64500Y-56000D02*
X64500Y-51000D01*
X62500Y-56000D02*
X62500Y-55000D01*
X57500Y-55000D02*
X57500Y-56000D01*
X62500Y-56000D02*
X57500Y-56000D01*
X57500Y-55000D02*
X62500Y-55000D01*
G54D10*
X51000Y-58000D02*
X51000Y-57000D01*
X51000Y-57000D02*
X53000Y-57000D01*
X53000Y-57000D02*
X53000Y-58000D01*
X53000Y-58000D02*
X51000Y-58000D01*
X51000Y-38000D02*
X51000Y-37000D01*
X51000Y-37000D02*
X53000Y-37000D01*
X53000Y-37000D02*
X53000Y-38000D01*
X53000Y-38000D02*
X51000Y-38000D01*
G54D11*
X62500Y-36000D02*
X62500Y-35000D01*
X57500Y-35000D02*
X57500Y-36000D01*
X62500Y-36000D02*
X57500Y-36000D01*
X57500Y-35000D02*
X62500Y-35000D01*
X65500Y-31000D02*
X64500Y-31000D01*
X64500Y-36000D02*
X65500Y-36000D01*
X65500Y-31000D02*
X65500Y-36000D01*
X64500Y-36000D02*
X64500Y-31000D01*
X54500Y-37980D02*
X54500Y-36000D01*
X54500Y-36000D02*
X55500Y-36000D01*
X55500Y-36000D02*
X55500Y-38000D01*
X55500Y-38000D02*
X54500Y-38000D01*
X54750Y-38000D02*
X54500Y-37750D01*
X56480Y-41000D02*
X54500Y-41000D01*
X54500Y-41000D02*
X54500Y-40000D01*
X54500Y-40000D02*
X56500Y-40000D01*
X56500Y-40000D02*
X56500Y-41000D01*
X56500Y-40750D02*
X56250Y-41000D01*
X63020Y-41500D02*
X65000Y-41500D01*
X65000Y-41500D02*
X65000Y-42500D01*
X65000Y-42500D02*
X63000Y-42500D01*
X63000Y-42500D02*
X63000Y-41500D01*
X63000Y-41750D02*
X63250Y-41500D01*
X60520Y-41500D02*
X62500Y-41500D01*
X62500Y-41500D02*
X62500Y-42500D01*
X62500Y-42500D02*
X60500Y-42500D01*
X60500Y-42500D02*
X60500Y-41500D01*
X60500Y-41750D02*
X60750Y-41500D01*
X58020Y-41500D02*
X60000Y-41500D01*
X60000Y-41500D02*
X60000Y-42500D01*
X60000Y-42500D02*
X58000Y-42500D01*
X58000Y-42500D02*
X58000Y-41500D01*
X58000Y-41750D02*
X58250Y-41500D01*
G54D12*
X57000Y-38500D02*
X57000Y-38500D01*
X57000Y-38500D02*
X57500Y-38500D01*
X57500Y-38500D02*
X57500Y-39500D01*
X57500Y-39500D02*
X57000Y-39500D01*
X57000Y-38000D02*
X66000Y-38000D01*
X66000Y-38000D02*
X66000Y-40000D01*
X66000Y-40000D02*
X57000Y-40000D01*
X57000Y-40000D02*
X57000Y-38000D01*
X22500Y-38500D02*
X22500Y-38500D01*
X22500Y-38500D02*
X23000Y-38500D01*
X23000Y-38500D02*
X23000Y-39500D01*
X23000Y-39500D02*
X22500Y-39500D01*
X22500Y-38000D02*
X31500Y-38000D01*
X31500Y-38000D02*
X31500Y-40000D01*
X31500Y-40000D02*
X22500Y-40000D01*
X22500Y-40000D02*
X22500Y-38000D01*
G54D11*
X23520Y-41500D02*
X25500Y-41500D01*
X25500Y-41500D02*
X25500Y-42500D01*
X25500Y-42500D02*
X23500Y-42500D01*
X23500Y-42500D02*
X23500Y-41500D01*
X23500Y-41750D02*
X23750Y-41500D01*
X26020Y-41500D02*
X28000Y-41500D01*
X28000Y-41500D02*
X28000Y-42500D01*
X28000Y-42500D02*
X26000Y-42500D01*
X26000Y-42500D02*
X26000Y-41500D01*
X26000Y-41750D02*
X26250Y-41500D01*
X28520Y-41500D02*
X30500Y-41500D01*
X30500Y-41500D02*
X30500Y-42500D01*
X30500Y-42500D02*
X28500Y-42500D01*
X28500Y-42500D02*
X28500Y-41500D01*
X28500Y-41750D02*
X28750Y-41500D01*
X21980Y-41000D02*
X20000Y-41000D01*
X20000Y-41000D02*
X20000Y-40000D01*
X20000Y-40000D02*
X22000Y-40000D01*
X22000Y-40000D02*
X22000Y-41000D01*
X22000Y-40750D02*
X21750Y-41000D01*
X20000Y-37980D02*
X20000Y-36000D01*
X20000Y-36000D02*
X21000Y-36000D01*
X21000Y-36000D02*
X21000Y-38000D01*
X21000Y-38000D02*
X20000Y-38000D01*
X20250Y-38000D02*
X20000Y-37750D01*
X31000Y-31000D02*
X30000Y-31000D01*
X30000Y-36000D02*
X31000Y-36000D01*
X31000Y-31000D02*
X31000Y-36000D01*
X30000Y-36000D02*
X30000Y-31000D01*
X28000Y-36000D02*
X28000Y-35000D01*
X23000Y-35000D02*
X23000Y-36000D01*
X28000Y-36000D02*
X23000Y-36000D01*
X23000Y-35000D02*
X28000Y-35000D01*
G54D10*
X16500Y-38000D02*
X16500Y-37000D01*
X16500Y-37000D02*
X18500Y-37000D01*
X18500Y-37000D02*
X18500Y-38000D01*
X18500Y-38000D02*
X16500Y-38000D01*
G54D12*
X90000Y-39000D02*
X90000Y-39000D01*
X90000Y-39000D02*
X90500Y-39000D01*
X90500Y-39000D02*
X90500Y-40000D01*
X90500Y-40000D02*
X90000Y-40000D01*
X90000Y-38500D02*
X99000Y-38500D01*
X99000Y-38500D02*
X99000Y-40500D01*
X99000Y-40500D02*
X90000Y-40500D01*
X90000Y-40500D02*
X90000Y-38500D01*
G54D11*
X91020Y-42000D02*
X93000Y-42000D01*
X93000Y-42000D02*
X93000Y-43000D01*
X93000Y-43000D02*
X91000Y-43000D01*
X91000Y-43000D02*
X91000Y-42000D01*
X91000Y-42250D02*
X91250Y-42000D01*
X93520Y-42000D02*
X95500Y-42000D01*
X95500Y-42000D02*
X95500Y-43000D01*
X95500Y-43000D02*
X93500Y-43000D01*
X93500Y-43000D02*
X93500Y-42000D01*
X93500Y-42250D02*
X93750Y-42000D01*
X96020Y-42000D02*
X98000Y-42000D01*
X98000Y-42000D02*
X98000Y-43000D01*
X98000Y-43000D02*
X96000Y-43000D01*
X96000Y-43000D02*
X96000Y-42000D01*
X96000Y-42250D02*
X96250Y-42000D01*
X89480Y-41500D02*
X87500Y-41500D01*
X87500Y-41500D02*
X87500Y-40500D01*
X87500Y-40500D02*
X89500Y-40500D01*
X89500Y-40500D02*
X89500Y-41500D01*
X89500Y-41250D02*
X89250Y-41500D01*
X87500Y-38480D02*
X87500Y-36500D01*
X87500Y-36500D02*
X88500Y-36500D01*
X88500Y-36500D02*
X88500Y-38500D01*
X88500Y-38500D02*
X87500Y-38500D01*
X87750Y-38500D02*
X87500Y-38250D01*
X98500Y-31500D02*
X97500Y-31500D01*
X97500Y-36500D02*
X98500Y-36500D01*
X98500Y-31500D02*
X98500Y-36500D01*
X97500Y-36500D02*
X97500Y-31500D01*
X95500Y-36500D02*
X95500Y-35500D01*
X90500Y-35500D02*
X90500Y-36500D01*
X95500Y-36500D02*
X90500Y-36500D01*
X90500Y-35500D02*
X95500Y-35500D01*
G54D10*
X84000Y-38500D02*
X84000Y-37500D01*
X84000Y-37500D02*
X86000Y-37500D01*
X86000Y-37500D02*
X86000Y-38500D01*
X86000Y-38500D02*
X84000Y-38500D01*
X84000Y-20000D02*
X84000Y-19000D01*
X84000Y-19000D02*
X86000Y-19000D01*
X86000Y-19000D02*
X86000Y-20000D01*
X86000Y-20000D02*
X84000Y-20000D01*
G54D11*
X95500Y-18000D02*
X95500Y-17000D01*
X90500Y-17000D02*
X90500Y-18000D01*
X95500Y-18000D02*
X90500Y-18000D01*
X90500Y-17000D02*
X95500Y-17000D01*
X98500Y-13000D02*
X97500Y-13000D01*
X97500Y-18000D02*
X98500Y-18000D01*
X98500Y-13000D02*
X98500Y-18000D01*
X97500Y-18000D02*
X97500Y-13000D01*
X87500Y-19980D02*
X87500Y-18000D01*
X87500Y-18000D02*
X88500Y-18000D01*
X88500Y-18000D02*
X88500Y-20000D01*
X88500Y-20000D02*
X87500Y-20000D01*
X87750Y-20000D02*
X87500Y-19750D01*
X89480Y-23000D02*
X87500Y-23000D01*
X87500Y-23000D02*
X87500Y-22000D01*
X87500Y-22000D02*
X89500Y-22000D01*
X89500Y-22000D02*
X89500Y-23000D01*
X89500Y-22750D02*
X89250Y-23000D01*
X96020Y-23500D02*
X98000Y-23500D01*
X98000Y-23500D02*
X98000Y-24500D01*
X98000Y-24500D02*
X96000Y-24500D01*
X96000Y-24500D02*
X96000Y-23500D01*
X96000Y-23750D02*
X96250Y-23500D01*
X93520Y-23500D02*
X95500Y-23500D01*
X95500Y-23500D02*
X95500Y-24500D01*
X95500Y-24500D02*
X93500Y-24500D01*
X93500Y-24500D02*
X93500Y-23500D01*
X93500Y-23750D02*
X93750Y-23500D01*
X91020Y-23500D02*
X93000Y-23500D01*
X93000Y-23500D02*
X93000Y-24500D01*
X93000Y-24500D02*
X91000Y-24500D01*
X91000Y-24500D02*
X91000Y-23500D01*
X91000Y-23750D02*
X91250Y-23500D01*
G54D12*
X90000Y-20500D02*
X90000Y-20500D01*
X90000Y-20500D02*
X90500Y-20500D01*
X90500Y-20500D02*
X90500Y-21500D01*
X90500Y-21500D02*
X90000Y-21500D01*
X90000Y-20000D02*
X99000Y-20000D01*
X99000Y-20000D02*
X99000Y-22000D01*
X99000Y-22000D02*
X90000Y-22000D01*
X90000Y-22000D02*
X90000Y-20000D01*
G54D10*
X16500Y-19500D02*
X16500Y-18500D01*
X16500Y-18500D02*
X18500Y-18500D01*
X18500Y-18500D02*
X18500Y-19500D01*
X18500Y-19500D02*
X16500Y-19500D01*
G54D11*
X28000Y-17500D02*
X28000Y-16500D01*
X23000Y-16500D02*
X23000Y-17500D01*
X28000Y-17500D02*
X23000Y-17500D01*
X23000Y-16500D02*
X28000Y-16500D01*
X31000Y-12500D02*
X30000Y-12500D01*
X30000Y-17500D02*
X31000Y-17500D01*
X31000Y-12500D02*
X31000Y-17500D01*
X30000Y-17500D02*
X30000Y-12500D01*
X20000Y-19480D02*
X20000Y-17500D01*
X20000Y-17500D02*
X21000Y-17500D01*
X21000Y-17500D02*
X21000Y-19500D01*
X21000Y-19500D02*
X20000Y-19500D01*
X20250Y-19500D02*
X20000Y-19250D01*
X21980Y-22500D02*
X20000Y-22500D01*
X20000Y-22500D02*
X20000Y-21500D01*
X20000Y-21500D02*
X22000Y-21500D01*
X22000Y-21500D02*
X22000Y-22500D01*
X22000Y-22250D02*
X21750Y-22500D01*
X28520Y-23000D02*
X30500Y-23000D01*
X30500Y-23000D02*
X30500Y-24000D01*
X30500Y-24000D02*
X28500Y-24000D01*
X28500Y-24000D02*
X28500Y-23000D01*
X28500Y-23250D02*
X28750Y-23000D01*
X26020Y-23000D02*
X28000Y-23000D01*
X28000Y-23000D02*
X28000Y-24000D01*
X28000Y-24000D02*
X26000Y-24000D01*
X26000Y-24000D02*
X26000Y-23000D01*
X26000Y-23250D02*
X26250Y-23000D01*
X23520Y-23000D02*
X25500Y-23000D01*
X25500Y-23000D02*
X25500Y-24000D01*
X25500Y-24000D02*
X23500Y-24000D01*
X23500Y-24000D02*
X23500Y-23000D01*
X23500Y-23250D02*
X23750Y-23000D01*
G54D12*
X22500Y-20000D02*
X22500Y-20000D01*
X22500Y-20000D02*
X23000Y-20000D01*
X23000Y-20000D02*
X23000Y-21000D01*
X23000Y-21000D02*
X22500Y-21000D01*
X22500Y-19500D02*
X31500Y-19500D01*
X31500Y-19500D02*
X31500Y-21500D01*
X31500Y-21500D02*
X22500Y-21500D01*
X22500Y-21500D02*
X22500Y-19500D01*
X57000Y-20000D02*
X57000Y-20000D01*
X57000Y-20000D02*
X57500Y-20000D01*
X57500Y-20000D02*
X57500Y-21000D01*
X57500Y-21000D02*
X57000Y-21000D01*
X57000Y-19500D02*
X66000Y-19500D01*
X66000Y-19500D02*
X66000Y-21500D01*
X66000Y-21500D02*
X57000Y-21500D01*
X57000Y-21500D02*
X57000Y-19500D01*
G54D11*
X58020Y-23000D02*
X60000Y-23000D01*
X60000Y-23000D02*
X60000Y-24000D01*
X60000Y-24000D02*
X58000Y-24000D01*
X58000Y-24000D02*
X58000Y-23000D01*
X58000Y-23250D02*
X58250Y-23000D01*
X60520Y-23000D02*
X62500Y-23000D01*
X62500Y-23000D02*
X62500Y-24000D01*
X62500Y-24000D02*
X60500Y-24000D01*
X60500Y-24000D02*
X60500Y-23000D01*
X60500Y-23250D02*
X60750Y-23000D01*
X63020Y-23000D02*
X65000Y-23000D01*
X65000Y-23000D02*
X65000Y-24000D01*
X65000Y-24000D02*
X63000Y-24000D01*
X63000Y-24000D02*
X63000Y-23000D01*
X63000Y-23250D02*
X63250Y-23000D01*
X56480Y-22500D02*
X54500Y-22500D01*
X54500Y-22500D02*
X54500Y-21500D01*
X54500Y-21500D02*
X56500Y-21500D01*
X56500Y-21500D02*
X56500Y-22500D01*
X56500Y-22250D02*
X56250Y-22500D01*
X54500Y-19480D02*
X54500Y-17500D01*
X54500Y-17500D02*
X55500Y-17500D01*
X55500Y-17500D02*
X55500Y-19500D01*
X55500Y-19500D02*
X54500Y-19500D01*
X54750Y-19500D02*
X54500Y-19250D01*
X65500Y-12500D02*
X64500Y-12500D01*
X64500Y-17500D02*
X65500Y-17500D01*
X65500Y-12500D02*
X65500Y-17500D01*
X64500Y-17500D02*
X64500Y-12500D01*
X62500Y-17500D02*
X62500Y-16500D01*
X57500Y-16500D02*
X57500Y-17500D01*
X62500Y-17500D02*
X57500Y-17500D01*
X57500Y-16500D02*
X62500Y-16500D01*
G54D10*
X51000Y-19500D02*
X51000Y-18500D01*
X51000Y-18500D02*
X53000Y-18500D01*
X53000Y-18500D02*
X53000Y-19500D01*
X53000Y-19500D02*
X51000Y-19500D01*
X84778Y-57371D02*
X84778Y-57071D01*
X84893Y-57071D01*
X84921Y-57086D01*
X84936Y-57100D01*
X84950Y-57129D01*
X84950Y-57171D01*
X84936Y-57200D01*
X84921Y-57214D01*
X84893Y-57229D01*
X84778Y-57229D01*
X85050Y-57071D02*
X85236Y-57071D01*
X85136Y-57186D01*
X85178Y-57186D01*
X85207Y-57200D01*
X85221Y-57214D01*
X85236Y-57243D01*
X85236Y-57314D01*
X85221Y-57343D01*
X85207Y-57357D01*
X85178Y-57371D01*
X85093Y-57371D01*
X85064Y-57357D01*
X85050Y-57343D01*
G54D13*
X92705Y-57162D02*
X92705Y-56762D01*
X92858Y-56762D01*
X92896Y-56781D01*
X92915Y-56800D01*
X92934Y-56838D01*
X92934Y-56895D01*
X92915Y-56933D01*
X92896Y-56952D01*
X92858Y-56971D01*
X92705Y-56971D01*
X93086Y-56800D02*
X93105Y-56781D01*
X93143Y-56762D01*
X93239Y-56762D01*
X93277Y-56781D01*
X93296Y-56800D01*
X93315Y-56838D01*
X93315Y-56876D01*
X93296Y-56933D01*
X93067Y-57162D01*
X93315Y-57162D01*
X99162Y-54295D02*
X98762Y-54295D01*
X98762Y-54142D01*
X98781Y-54104D01*
X98800Y-54085D01*
X98838Y-54066D01*
X98895Y-54066D01*
X98933Y-54085D01*
X98952Y-54104D01*
X98971Y-54142D01*
X98971Y-54295D01*
X99162Y-53685D02*
X99162Y-53914D01*
X99162Y-53800D02*
X98762Y-53800D01*
X98819Y-53838D01*
X98857Y-53876D01*
X98876Y-53914D01*
X87224Y-57466D02*
X87243Y-57485D01*
X87262Y-57542D01*
X87262Y-57580D01*
X87243Y-57638D01*
X87205Y-57676D01*
X87167Y-57695D01*
X87090Y-57714D01*
X87033Y-57714D01*
X86957Y-57695D01*
X86919Y-57676D01*
X86881Y-57638D01*
X86862Y-57580D01*
X86862Y-57542D01*
X86881Y-57485D01*
X86900Y-57466D01*
X86862Y-57104D02*
X86862Y-57295D01*
X87052Y-57314D01*
X87033Y-57295D01*
X87014Y-57257D01*
X87014Y-57161D01*
X87033Y-57123D01*
X87052Y-57104D01*
X87090Y-57085D01*
X87186Y-57085D01*
X87224Y-57104D01*
X87243Y-57123D01*
X87262Y-57161D01*
X87262Y-57257D01*
X87243Y-57295D01*
X87224Y-57314D01*
X88334Y-62024D02*
X88315Y-62043D01*
X88258Y-62062D01*
X88220Y-62062D01*
X88162Y-62043D01*
X88124Y-62005D01*
X88105Y-61967D01*
X88086Y-61890D01*
X88086Y-61833D01*
X88105Y-61757D01*
X88124Y-61719D01*
X88162Y-61681D01*
X88220Y-61662D01*
X88258Y-61662D01*
X88315Y-61681D01*
X88334Y-61700D01*
X88677Y-61795D02*
X88677Y-62062D01*
X88581Y-61643D02*
X88486Y-61929D01*
X88734Y-61929D01*
X97034Y-61724D02*
X97015Y-61743D01*
X96958Y-61762D01*
X96920Y-61762D01*
X96862Y-61743D01*
X96824Y-61705D01*
X96805Y-61667D01*
X96786Y-61590D01*
X96786Y-61533D01*
X96805Y-61457D01*
X96824Y-61419D01*
X96862Y-61381D01*
X96920Y-61362D01*
X96958Y-61362D01*
X97015Y-61381D01*
X97034Y-61400D01*
X97167Y-61362D02*
X97415Y-61362D01*
X97281Y-61514D01*
X97339Y-61514D01*
X97377Y-61533D01*
X97396Y-61552D01*
X97415Y-61590D01*
X97415Y-61686D01*
X97396Y-61724D01*
X97377Y-61743D01*
X97339Y-61762D01*
X97224Y-61762D01*
X97186Y-61743D01*
X97167Y-61724D01*
X94534Y-61724D02*
X94515Y-61743D01*
X94458Y-61762D01*
X94420Y-61762D01*
X94362Y-61743D01*
X94324Y-61705D01*
X94305Y-61667D01*
X94286Y-61590D01*
X94286Y-61533D01*
X94305Y-61457D01*
X94324Y-61419D01*
X94362Y-61381D01*
X94420Y-61362D01*
X94458Y-61362D01*
X94515Y-61381D01*
X94534Y-61400D01*
X94686Y-61400D02*
X94705Y-61381D01*
X94743Y-61362D01*
X94839Y-61362D01*
X94877Y-61381D01*
X94896Y-61400D01*
X94915Y-61438D01*
X94915Y-61476D01*
X94896Y-61533D01*
X94667Y-61762D01*
X94915Y-61762D01*
X92034Y-61724D02*
X92015Y-61743D01*
X91958Y-61762D01*
X91920Y-61762D01*
X91862Y-61743D01*
X91824Y-61705D01*
X91805Y-61667D01*
X91786Y-61590D01*
X91786Y-61533D01*
X91805Y-61457D01*
X91824Y-61419D01*
X91862Y-61381D01*
X91920Y-61362D01*
X91958Y-61362D01*
X92015Y-61381D01*
X92034Y-61400D01*
X92415Y-61762D02*
X92186Y-61762D01*
X92300Y-61762D02*
X92300Y-61362D01*
X92262Y-61419D01*
X92224Y-61457D01*
X92186Y-61476D01*
G54D14*
X91657Y-58643D02*
X91657Y-59129D01*
X91679Y-59186D01*
X91700Y-59214D01*
X91743Y-59243D01*
X91829Y-59243D01*
X91871Y-59214D01*
X91893Y-59186D01*
X91914Y-59129D01*
X91914Y-58643D01*
X92364Y-59243D02*
X92107Y-59243D01*
X92235Y-59243D02*
X92235Y-58643D01*
X92192Y-58729D01*
X92150Y-58786D01*
X92107Y-58814D01*
X94299Y-60243D02*
X94299Y-59643D01*
X94449Y-60071D01*
X94599Y-59643D01*
X94599Y-60243D01*
X94792Y-60071D02*
X95006Y-60071D01*
X94749Y-60243D02*
X94899Y-59643D01*
X95049Y-60243D01*
X95156Y-59643D02*
X95456Y-60243D01*
X95456Y-59643D02*
X95156Y-60243D01*
X95607Y-59700D02*
X95628Y-59671D01*
X95671Y-59643D01*
X95778Y-59643D01*
X95821Y-59671D01*
X95842Y-59700D01*
X95864Y-59757D01*
X95864Y-59814D01*
X95842Y-59900D01*
X95585Y-60243D01*
X95864Y-60243D01*
X96014Y-59643D02*
X96293Y-59643D01*
X96143Y-59871D01*
X96207Y-59871D01*
X96250Y-59900D01*
X96271Y-59929D01*
X96293Y-59986D01*
X96293Y-60129D01*
X96271Y-60186D01*
X96250Y-60214D01*
X96207Y-60243D01*
X96079Y-60243D01*
X96036Y-60214D01*
X96014Y-60186D01*
X96465Y-59700D02*
X96486Y-59671D01*
X96529Y-59643D01*
X96636Y-59643D01*
X96679Y-59671D01*
X96700Y-59700D01*
X96722Y-59757D01*
X96722Y-59814D01*
X96700Y-59900D01*
X96443Y-60243D01*
X96722Y-60243D01*
G54D10*
X17278Y-56871D02*
X17278Y-56571D01*
X17393Y-56571D01*
X17421Y-56586D01*
X17436Y-56600D01*
X17450Y-56629D01*
X17450Y-56671D01*
X17436Y-56700D01*
X17421Y-56714D01*
X17393Y-56729D01*
X17278Y-56729D01*
X17550Y-56571D02*
X17736Y-56571D01*
X17636Y-56686D01*
X17678Y-56686D01*
X17707Y-56700D01*
X17721Y-56714D01*
X17736Y-56743D01*
X17736Y-56814D01*
X17721Y-56843D01*
X17707Y-56857D01*
X17678Y-56871D01*
X17593Y-56871D01*
X17564Y-56857D01*
X17550Y-56843D01*
G54D13*
X25205Y-56662D02*
X25205Y-56262D01*
X25358Y-56262D01*
X25396Y-56281D01*
X25415Y-56300D01*
X25434Y-56338D01*
X25434Y-56395D01*
X25415Y-56433D01*
X25396Y-56452D01*
X25358Y-56471D01*
X25205Y-56471D01*
X25586Y-56300D02*
X25605Y-56281D01*
X25643Y-56262D01*
X25739Y-56262D01*
X25777Y-56281D01*
X25796Y-56300D01*
X25815Y-56338D01*
X25815Y-56376D01*
X25796Y-56433D01*
X25567Y-56662D01*
X25815Y-56662D01*
X31662Y-53795D02*
X31262Y-53795D01*
X31262Y-53642D01*
X31281Y-53604D01*
X31300Y-53585D01*
X31338Y-53566D01*
X31395Y-53566D01*
X31433Y-53585D01*
X31452Y-53604D01*
X31471Y-53642D01*
X31471Y-53795D01*
X31662Y-53185D02*
X31662Y-53414D01*
X31662Y-53300D02*
X31262Y-53300D01*
X31319Y-53338D01*
X31357Y-53376D01*
X31376Y-53414D01*
X19724Y-56966D02*
X19743Y-56985D01*
X19762Y-57042D01*
X19762Y-57080D01*
X19743Y-57138D01*
X19705Y-57176D01*
X19667Y-57195D01*
X19590Y-57214D01*
X19533Y-57214D01*
X19457Y-57195D01*
X19419Y-57176D01*
X19381Y-57138D01*
X19362Y-57080D01*
X19362Y-57042D01*
X19381Y-56985D01*
X19400Y-56966D01*
X19362Y-56604D02*
X19362Y-56795D01*
X19552Y-56814D01*
X19533Y-56795D01*
X19514Y-56757D01*
X19514Y-56661D01*
X19533Y-56623D01*
X19552Y-56604D01*
X19590Y-56585D01*
X19686Y-56585D01*
X19724Y-56604D01*
X19743Y-56623D01*
X19762Y-56661D01*
X19762Y-56757D01*
X19743Y-56795D01*
X19724Y-56814D01*
X20834Y-61524D02*
X20815Y-61543D01*
X20758Y-61562D01*
X20720Y-61562D01*
X20662Y-61543D01*
X20624Y-61505D01*
X20605Y-61467D01*
X20586Y-61390D01*
X20586Y-61333D01*
X20605Y-61257D01*
X20624Y-61219D01*
X20662Y-61181D01*
X20720Y-61162D01*
X20758Y-61162D01*
X20815Y-61181D01*
X20834Y-61200D01*
X21177Y-61295D02*
X21177Y-61562D01*
X21081Y-61143D02*
X20986Y-61429D01*
X21234Y-61429D01*
X29534Y-61224D02*
X29515Y-61243D01*
X29458Y-61262D01*
X29420Y-61262D01*
X29362Y-61243D01*
X29324Y-61205D01*
X29305Y-61167D01*
X29286Y-61090D01*
X29286Y-61033D01*
X29305Y-60957D01*
X29324Y-60919D01*
X29362Y-60881D01*
X29420Y-60862D01*
X29458Y-60862D01*
X29515Y-60881D01*
X29534Y-60900D01*
X29667Y-60862D02*
X29915Y-60862D01*
X29781Y-61014D01*
X29839Y-61014D01*
X29877Y-61033D01*
X29896Y-61052D01*
X29915Y-61090D01*
X29915Y-61186D01*
X29896Y-61224D01*
X29877Y-61243D01*
X29839Y-61262D01*
X29724Y-61262D01*
X29686Y-61243D01*
X29667Y-61224D01*
X27034Y-61224D02*
X27015Y-61243D01*
X26958Y-61262D01*
X26920Y-61262D01*
X26862Y-61243D01*
X26824Y-61205D01*
X26805Y-61167D01*
X26786Y-61090D01*
X26786Y-61033D01*
X26805Y-60957D01*
X26824Y-60919D01*
X26862Y-60881D01*
X26920Y-60862D01*
X26958Y-60862D01*
X27015Y-60881D01*
X27034Y-60900D01*
X27186Y-60900D02*
X27205Y-60881D01*
X27243Y-60862D01*
X27339Y-60862D01*
X27377Y-60881D01*
X27396Y-60900D01*
X27415Y-60938D01*
X27415Y-60976D01*
X27396Y-61033D01*
X27167Y-61262D01*
X27415Y-61262D01*
X24534Y-61224D02*
X24515Y-61243D01*
X24458Y-61262D01*
X24420Y-61262D01*
X24362Y-61243D01*
X24324Y-61205D01*
X24305Y-61167D01*
X24286Y-61090D01*
X24286Y-61033D01*
X24305Y-60957D01*
X24324Y-60919D01*
X24362Y-60881D01*
X24420Y-60862D01*
X24458Y-60862D01*
X24515Y-60881D01*
X24534Y-60900D01*
X24915Y-61262D02*
X24686Y-61262D01*
X24800Y-61262D02*
X24800Y-60862D01*
X24762Y-60919D01*
X24724Y-60957D01*
X24686Y-60976D01*
G54D14*
X24157Y-58143D02*
X24157Y-58629D01*
X24179Y-58686D01*
X24200Y-58714D01*
X24243Y-58743D01*
X24329Y-58743D01*
X24371Y-58714D01*
X24393Y-58686D01*
X24414Y-58629D01*
X24414Y-58143D01*
X24864Y-58743D02*
X24607Y-58743D01*
X24735Y-58743D02*
X24735Y-58143D01*
X24692Y-58229D01*
X24650Y-58286D01*
X24607Y-58314D01*
X26799Y-59743D02*
X26799Y-59143D01*
X26949Y-59571D01*
X27099Y-59143D01*
X27099Y-59743D01*
X27292Y-59571D02*
X27506Y-59571D01*
X27249Y-59743D02*
X27399Y-59143D01*
X27549Y-59743D01*
X27656Y-59143D02*
X27956Y-59743D01*
X27956Y-59143D02*
X27656Y-59743D01*
X28107Y-59200D02*
X28128Y-59171D01*
X28171Y-59143D01*
X28278Y-59143D01*
X28321Y-59171D01*
X28342Y-59200D01*
X28364Y-59257D01*
X28364Y-59314D01*
X28342Y-59400D01*
X28085Y-59743D01*
X28364Y-59743D01*
X28514Y-59143D02*
X28793Y-59143D01*
X28643Y-59371D01*
X28707Y-59371D01*
X28750Y-59400D01*
X28771Y-59429D01*
X28793Y-59486D01*
X28793Y-59629D01*
X28771Y-59686D01*
X28750Y-59714D01*
X28707Y-59743D01*
X28579Y-59743D01*
X28536Y-59714D01*
X28514Y-59686D01*
X28965Y-59200D02*
X28986Y-59171D01*
X29029Y-59143D01*
X29136Y-59143D01*
X29179Y-59171D01*
X29200Y-59200D01*
X29222Y-59257D01*
X29222Y-59314D01*
X29200Y-59400D01*
X28943Y-59743D01*
X29222Y-59743D01*
X58657Y-58143D02*
X58657Y-58629D01*
X58679Y-58686D01*
X58700Y-58714D01*
X58743Y-58743D01*
X58829Y-58743D01*
X58871Y-58714D01*
X58893Y-58686D01*
X58914Y-58629D01*
X58914Y-58143D01*
X59364Y-58743D02*
X59107Y-58743D01*
X59235Y-58743D02*
X59235Y-58143D01*
X59192Y-58229D01*
X59150Y-58286D01*
X59107Y-58314D01*
X61299Y-59743D02*
X61299Y-59143D01*
X61449Y-59571D01*
X61599Y-59143D01*
X61599Y-59743D01*
X61792Y-59571D02*
X62006Y-59571D01*
X61749Y-59743D02*
X61899Y-59143D01*
X62049Y-59743D01*
X62156Y-59143D02*
X62456Y-59743D01*
X62456Y-59143D02*
X62156Y-59743D01*
X62607Y-59200D02*
X62628Y-59171D01*
X62671Y-59143D01*
X62778Y-59143D01*
X62821Y-59171D01*
X62842Y-59200D01*
X62864Y-59257D01*
X62864Y-59314D01*
X62842Y-59400D01*
X62585Y-59743D01*
X62864Y-59743D01*
X63014Y-59143D02*
X63293Y-59143D01*
X63143Y-59371D01*
X63207Y-59371D01*
X63250Y-59400D01*
X63271Y-59429D01*
X63293Y-59486D01*
X63293Y-59629D01*
X63271Y-59686D01*
X63250Y-59714D01*
X63207Y-59743D01*
X63079Y-59743D01*
X63036Y-59714D01*
X63014Y-59686D01*
X63465Y-59200D02*
X63486Y-59171D01*
X63529Y-59143D01*
X63636Y-59143D01*
X63679Y-59171D01*
X63700Y-59200D01*
X63722Y-59257D01*
X63722Y-59314D01*
X63700Y-59400D01*
X63443Y-59743D01*
X63722Y-59743D01*
G54D13*
X59034Y-61224D02*
X59015Y-61243D01*
X58958Y-61262D01*
X58920Y-61262D01*
X58862Y-61243D01*
X58824Y-61205D01*
X58805Y-61167D01*
X58786Y-61090D01*
X58786Y-61033D01*
X58805Y-60957D01*
X58824Y-60919D01*
X58862Y-60881D01*
X58920Y-60862D01*
X58958Y-60862D01*
X59015Y-60881D01*
X59034Y-60900D01*
X59415Y-61262D02*
X59186Y-61262D01*
X59300Y-61262D02*
X59300Y-60862D01*
X59262Y-60919D01*
X59224Y-60957D01*
X59186Y-60976D01*
X61534Y-61224D02*
X61515Y-61243D01*
X61458Y-61262D01*
X61420Y-61262D01*
X61362Y-61243D01*
X61324Y-61205D01*
X61305Y-61167D01*
X61286Y-61090D01*
X61286Y-61033D01*
X61305Y-60957D01*
X61324Y-60919D01*
X61362Y-60881D01*
X61420Y-60862D01*
X61458Y-60862D01*
X61515Y-60881D01*
X61534Y-60900D01*
X61686Y-60900D02*
X61705Y-60881D01*
X61743Y-60862D01*
X61839Y-60862D01*
X61877Y-60881D01*
X61896Y-60900D01*
X61915Y-60938D01*
X61915Y-60976D01*
X61896Y-61033D01*
X61667Y-61262D01*
X61915Y-61262D01*
X64034Y-61224D02*
X64015Y-61243D01*
X63958Y-61262D01*
X63920Y-61262D01*
X63862Y-61243D01*
X63824Y-61205D01*
X63805Y-61167D01*
X63786Y-61090D01*
X63786Y-61033D01*
X63805Y-60957D01*
X63824Y-60919D01*
X63862Y-60881D01*
X63920Y-60862D01*
X63958Y-60862D01*
X64015Y-60881D01*
X64034Y-60900D01*
X64167Y-60862D02*
X64415Y-60862D01*
X64281Y-61014D01*
X64339Y-61014D01*
X64377Y-61033D01*
X64396Y-61052D01*
X64415Y-61090D01*
X64415Y-61186D01*
X64396Y-61224D01*
X64377Y-61243D01*
X64339Y-61262D01*
X64224Y-61262D01*
X64186Y-61243D01*
X64167Y-61224D01*
X55334Y-61524D02*
X55315Y-61543D01*
X55258Y-61562D01*
X55220Y-61562D01*
X55162Y-61543D01*
X55124Y-61505D01*
X55105Y-61467D01*
X55086Y-61390D01*
X55086Y-61333D01*
X55105Y-61257D01*
X55124Y-61219D01*
X55162Y-61181D01*
X55220Y-61162D01*
X55258Y-61162D01*
X55315Y-61181D01*
X55334Y-61200D01*
X55677Y-61295D02*
X55677Y-61562D01*
X55581Y-61143D02*
X55486Y-61429D01*
X55734Y-61429D01*
X54224Y-56966D02*
X54243Y-56985D01*
X54262Y-57042D01*
X54262Y-57080D01*
X54243Y-57138D01*
X54205Y-57176D01*
X54167Y-57195D01*
X54090Y-57214D01*
X54033Y-57214D01*
X53957Y-57195D01*
X53919Y-57176D01*
X53881Y-57138D01*
X53862Y-57080D01*
X53862Y-57042D01*
X53881Y-56985D01*
X53900Y-56966D01*
X53862Y-56604D02*
X53862Y-56795D01*
X54052Y-56814D01*
X54033Y-56795D01*
X54014Y-56757D01*
X54014Y-56661D01*
X54033Y-56623D01*
X54052Y-56604D01*
X54090Y-56585D01*
X54186Y-56585D01*
X54224Y-56604D01*
X54243Y-56623D01*
X54262Y-56661D01*
X54262Y-56757D01*
X54243Y-56795D01*
X54224Y-56814D01*
X66162Y-53795D02*
X65762Y-53795D01*
X65762Y-53642D01*
X65781Y-53604D01*
X65800Y-53585D01*
X65838Y-53566D01*
X65895Y-53566D01*
X65933Y-53585D01*
X65952Y-53604D01*
X65971Y-53642D01*
X65971Y-53795D01*
X66162Y-53185D02*
X66162Y-53414D01*
X66162Y-53300D02*
X65762Y-53300D01*
X65819Y-53338D01*
X65857Y-53376D01*
X65876Y-53414D01*
X59705Y-56662D02*
X59705Y-56262D01*
X59858Y-56262D01*
X59896Y-56281D01*
X59915Y-56300D01*
X59934Y-56338D01*
X59934Y-56395D01*
X59915Y-56433D01*
X59896Y-56452D01*
X59858Y-56471D01*
X59705Y-56471D01*
X60086Y-56300D02*
X60105Y-56281D01*
X60143Y-56262D01*
X60239Y-56262D01*
X60277Y-56281D01*
X60296Y-56300D01*
X60315Y-56338D01*
X60315Y-56376D01*
X60296Y-56433D01*
X60067Y-56662D01*
X60315Y-56662D01*
G54D10*
X51778Y-56871D02*
X51778Y-56571D01*
X51893Y-56571D01*
X51921Y-56586D01*
X51936Y-56600D01*
X51950Y-56629D01*
X51950Y-56671D01*
X51936Y-56700D01*
X51921Y-56714D01*
X51893Y-56729D01*
X51778Y-56729D01*
X52050Y-56571D02*
X52236Y-56571D01*
X52136Y-56686D01*
X52178Y-56686D01*
X52207Y-56700D01*
X52221Y-56714D01*
X52236Y-56743D01*
X52236Y-56814D01*
X52221Y-56843D01*
X52207Y-56857D01*
X52178Y-56871D01*
X52093Y-56871D01*
X52064Y-56857D01*
X52050Y-56843D01*
X51778Y-36871D02*
X51778Y-36571D01*
X51893Y-36571D01*
X51921Y-36586D01*
X51936Y-36600D01*
X51950Y-36629D01*
X51950Y-36671D01*
X51936Y-36700D01*
X51921Y-36714D01*
X51893Y-36729D01*
X51778Y-36729D01*
X52050Y-36571D02*
X52236Y-36571D01*
X52136Y-36686D01*
X52178Y-36686D01*
X52207Y-36700D01*
X52221Y-36714D01*
X52236Y-36743D01*
X52236Y-36814D01*
X52221Y-36843D01*
X52207Y-36857D01*
X52178Y-36871D01*
X52093Y-36871D01*
X52064Y-36857D01*
X52050Y-36843D01*
G54D13*
X59705Y-36662D02*
X59705Y-36262D01*
X59858Y-36262D01*
X59896Y-36281D01*
X59915Y-36300D01*
X59934Y-36338D01*
X59934Y-36395D01*
X59915Y-36433D01*
X59896Y-36452D01*
X59858Y-36471D01*
X59705Y-36471D01*
X60086Y-36300D02*
X60105Y-36281D01*
X60143Y-36262D01*
X60239Y-36262D01*
X60277Y-36281D01*
X60296Y-36300D01*
X60315Y-36338D01*
X60315Y-36376D01*
X60296Y-36433D01*
X60067Y-36662D01*
X60315Y-36662D01*
X66162Y-33795D02*
X65762Y-33795D01*
X65762Y-33642D01*
X65781Y-33604D01*
X65800Y-33585D01*
X65838Y-33566D01*
X65895Y-33566D01*
X65933Y-33585D01*
X65952Y-33604D01*
X65971Y-33642D01*
X65971Y-33795D01*
X66162Y-33185D02*
X66162Y-33414D01*
X66162Y-33300D02*
X65762Y-33300D01*
X65819Y-33338D01*
X65857Y-33376D01*
X65876Y-33414D01*
X54224Y-36966D02*
X54243Y-36985D01*
X54262Y-37042D01*
X54262Y-37080D01*
X54243Y-37138D01*
X54205Y-37176D01*
X54167Y-37195D01*
X54090Y-37214D01*
X54033Y-37214D01*
X53957Y-37195D01*
X53919Y-37176D01*
X53881Y-37138D01*
X53862Y-37080D01*
X53862Y-37042D01*
X53881Y-36985D01*
X53900Y-36966D01*
X53862Y-36604D02*
X53862Y-36795D01*
X54052Y-36814D01*
X54033Y-36795D01*
X54014Y-36757D01*
X54014Y-36661D01*
X54033Y-36623D01*
X54052Y-36604D01*
X54090Y-36585D01*
X54186Y-36585D01*
X54224Y-36604D01*
X54243Y-36623D01*
X54262Y-36661D01*
X54262Y-36757D01*
X54243Y-36795D01*
X54224Y-36814D01*
X55334Y-41524D02*
X55315Y-41543D01*
X55258Y-41562D01*
X55220Y-41562D01*
X55162Y-41543D01*
X55124Y-41505D01*
X55105Y-41467D01*
X55086Y-41390D01*
X55086Y-41333D01*
X55105Y-41257D01*
X55124Y-41219D01*
X55162Y-41181D01*
X55220Y-41162D01*
X55258Y-41162D01*
X55315Y-41181D01*
X55334Y-41200D01*
X55677Y-41295D02*
X55677Y-41562D01*
X55581Y-41143D02*
X55486Y-41429D01*
X55734Y-41429D01*
X64034Y-41224D02*
X64015Y-41243D01*
X63958Y-41262D01*
X63920Y-41262D01*
X63862Y-41243D01*
X63824Y-41205D01*
X63805Y-41167D01*
X63786Y-41090D01*
X63786Y-41033D01*
X63805Y-40957D01*
X63824Y-40919D01*
X63862Y-40881D01*
X63920Y-40862D01*
X63958Y-40862D01*
X64015Y-40881D01*
X64034Y-40900D01*
X64167Y-40862D02*
X64415Y-40862D01*
X64281Y-41014D01*
X64339Y-41014D01*
X64377Y-41033D01*
X64396Y-41052D01*
X64415Y-41090D01*
X64415Y-41186D01*
X64396Y-41224D01*
X64377Y-41243D01*
X64339Y-41262D01*
X64224Y-41262D01*
X64186Y-41243D01*
X64167Y-41224D01*
X61534Y-41224D02*
X61515Y-41243D01*
X61458Y-41262D01*
X61420Y-41262D01*
X61362Y-41243D01*
X61324Y-41205D01*
X61305Y-41167D01*
X61286Y-41090D01*
X61286Y-41033D01*
X61305Y-40957D01*
X61324Y-40919D01*
X61362Y-40881D01*
X61420Y-40862D01*
X61458Y-40862D01*
X61515Y-40881D01*
X61534Y-40900D01*
X61686Y-40900D02*
X61705Y-40881D01*
X61743Y-40862D01*
X61839Y-40862D01*
X61877Y-40881D01*
X61896Y-40900D01*
X61915Y-40938D01*
X61915Y-40976D01*
X61896Y-41033D01*
X61667Y-41262D01*
X61915Y-41262D01*
X59034Y-41224D02*
X59015Y-41243D01*
X58958Y-41262D01*
X58920Y-41262D01*
X58862Y-41243D01*
X58824Y-41205D01*
X58805Y-41167D01*
X58786Y-41090D01*
X58786Y-41033D01*
X58805Y-40957D01*
X58824Y-40919D01*
X58862Y-40881D01*
X58920Y-40862D01*
X58958Y-40862D01*
X59015Y-40881D01*
X59034Y-40900D01*
X59415Y-41262D02*
X59186Y-41262D01*
X59300Y-41262D02*
X59300Y-40862D01*
X59262Y-40919D01*
X59224Y-40957D01*
X59186Y-40976D01*
G54D14*
X58657Y-38143D02*
X58657Y-38629D01*
X58679Y-38686D01*
X58700Y-38714D01*
X58743Y-38743D01*
X58829Y-38743D01*
X58871Y-38714D01*
X58893Y-38686D01*
X58914Y-38629D01*
X58914Y-38143D01*
X59364Y-38743D02*
X59107Y-38743D01*
X59235Y-38743D02*
X59235Y-38143D01*
X59192Y-38229D01*
X59150Y-38286D01*
X59107Y-38314D01*
X61299Y-39743D02*
X61299Y-39143D01*
X61449Y-39571D01*
X61599Y-39143D01*
X61599Y-39743D01*
X61792Y-39571D02*
X62006Y-39571D01*
X61749Y-39743D02*
X61899Y-39143D01*
X62049Y-39743D01*
X62156Y-39143D02*
X62456Y-39743D01*
X62456Y-39143D02*
X62156Y-39743D01*
X62607Y-39200D02*
X62628Y-39171D01*
X62671Y-39143D01*
X62778Y-39143D01*
X62821Y-39171D01*
X62842Y-39200D01*
X62864Y-39257D01*
X62864Y-39314D01*
X62842Y-39400D01*
X62585Y-39743D01*
X62864Y-39743D01*
X63014Y-39143D02*
X63293Y-39143D01*
X63143Y-39371D01*
X63207Y-39371D01*
X63250Y-39400D01*
X63271Y-39429D01*
X63293Y-39486D01*
X63293Y-39629D01*
X63271Y-39686D01*
X63250Y-39714D01*
X63207Y-39743D01*
X63079Y-39743D01*
X63036Y-39714D01*
X63014Y-39686D01*
X63465Y-39200D02*
X63486Y-39171D01*
X63529Y-39143D01*
X63636Y-39143D01*
X63679Y-39171D01*
X63700Y-39200D01*
X63722Y-39257D01*
X63722Y-39314D01*
X63700Y-39400D01*
X63443Y-39743D01*
X63722Y-39743D01*
X24157Y-38143D02*
X24157Y-38629D01*
X24179Y-38686D01*
X24200Y-38714D01*
X24243Y-38743D01*
X24329Y-38743D01*
X24371Y-38714D01*
X24393Y-38686D01*
X24414Y-38629D01*
X24414Y-38143D01*
X24864Y-38743D02*
X24607Y-38743D01*
X24735Y-38743D02*
X24735Y-38143D01*
X24692Y-38229D01*
X24650Y-38286D01*
X24607Y-38314D01*
X26799Y-39743D02*
X26799Y-39143D01*
X26949Y-39571D01*
X27099Y-39143D01*
X27099Y-39743D01*
X27292Y-39571D02*
X27506Y-39571D01*
X27249Y-39743D02*
X27399Y-39143D01*
X27549Y-39743D01*
X27656Y-39143D02*
X27956Y-39743D01*
X27956Y-39143D02*
X27656Y-39743D01*
X28107Y-39200D02*
X28128Y-39171D01*
X28171Y-39143D01*
X28278Y-39143D01*
X28321Y-39171D01*
X28342Y-39200D01*
X28364Y-39257D01*
X28364Y-39314D01*
X28342Y-39400D01*
X28085Y-39743D01*
X28364Y-39743D01*
X28514Y-39143D02*
X28793Y-39143D01*
X28643Y-39371D01*
X28707Y-39371D01*
X28750Y-39400D01*
X28771Y-39429D01*
X28793Y-39486D01*
X28793Y-39629D01*
X28771Y-39686D01*
X28750Y-39714D01*
X28707Y-39743D01*
X28579Y-39743D01*
X28536Y-39714D01*
X28514Y-39686D01*
X28965Y-39200D02*
X28986Y-39171D01*
X29029Y-39143D01*
X29136Y-39143D01*
X29179Y-39171D01*
X29200Y-39200D01*
X29222Y-39257D01*
X29222Y-39314D01*
X29200Y-39400D01*
X28943Y-39743D01*
X29222Y-39743D01*
G54D13*
X24534Y-41224D02*
X24515Y-41243D01*
X24458Y-41262D01*
X24420Y-41262D01*
X24362Y-41243D01*
X24324Y-41205D01*
X24305Y-41167D01*
X24286Y-41090D01*
X24286Y-41033D01*
X24305Y-40957D01*
X24324Y-40919D01*
X24362Y-40881D01*
X24420Y-40862D01*
X24458Y-40862D01*
X24515Y-40881D01*
X24534Y-40900D01*
X24915Y-41262D02*
X24686Y-41262D01*
X24800Y-41262D02*
X24800Y-40862D01*
X24762Y-40919D01*
X24724Y-40957D01*
X24686Y-40976D01*
X27034Y-41224D02*
X27015Y-41243D01*
X26958Y-41262D01*
X26920Y-41262D01*
X26862Y-41243D01*
X26824Y-41205D01*
X26805Y-41167D01*
X26786Y-41090D01*
X26786Y-41033D01*
X26805Y-40957D01*
X26824Y-40919D01*
X26862Y-40881D01*
X26920Y-40862D01*
X26958Y-40862D01*
X27015Y-40881D01*
X27034Y-40900D01*
X27186Y-40900D02*
X27205Y-40881D01*
X27243Y-40862D01*
X27339Y-40862D01*
X27377Y-40881D01*
X27396Y-40900D01*
X27415Y-40938D01*
X27415Y-40976D01*
X27396Y-41033D01*
X27167Y-41262D01*
X27415Y-41262D01*
X29534Y-41224D02*
X29515Y-41243D01*
X29458Y-41262D01*
X29420Y-41262D01*
X29362Y-41243D01*
X29324Y-41205D01*
X29305Y-41167D01*
X29286Y-41090D01*
X29286Y-41033D01*
X29305Y-40957D01*
X29324Y-40919D01*
X29362Y-40881D01*
X29420Y-40862D01*
X29458Y-40862D01*
X29515Y-40881D01*
X29534Y-40900D01*
X29667Y-40862D02*
X29915Y-40862D01*
X29781Y-41014D01*
X29839Y-41014D01*
X29877Y-41033D01*
X29896Y-41052D01*
X29915Y-41090D01*
X29915Y-41186D01*
X29896Y-41224D01*
X29877Y-41243D01*
X29839Y-41262D01*
X29724Y-41262D01*
X29686Y-41243D01*
X29667Y-41224D01*
X20834Y-41524D02*
X20815Y-41543D01*
X20758Y-41562D01*
X20720Y-41562D01*
X20662Y-41543D01*
X20624Y-41505D01*
X20605Y-41467D01*
X20586Y-41390D01*
X20586Y-41333D01*
X20605Y-41257D01*
X20624Y-41219D01*
X20662Y-41181D01*
X20720Y-41162D01*
X20758Y-41162D01*
X20815Y-41181D01*
X20834Y-41200D01*
X21177Y-41295D02*
X21177Y-41562D01*
X21081Y-41143D02*
X20986Y-41429D01*
X21234Y-41429D01*
X19724Y-36966D02*
X19743Y-36985D01*
X19762Y-37042D01*
X19762Y-37080D01*
X19743Y-37138D01*
X19705Y-37176D01*
X19667Y-37195D01*
X19590Y-37214D01*
X19533Y-37214D01*
X19457Y-37195D01*
X19419Y-37176D01*
X19381Y-37138D01*
X19362Y-37080D01*
X19362Y-37042D01*
X19381Y-36985D01*
X19400Y-36966D01*
X19362Y-36604D02*
X19362Y-36795D01*
X19552Y-36814D01*
X19533Y-36795D01*
X19514Y-36757D01*
X19514Y-36661D01*
X19533Y-36623D01*
X19552Y-36604D01*
X19590Y-36585D01*
X19686Y-36585D01*
X19724Y-36604D01*
X19743Y-36623D01*
X19762Y-36661D01*
X19762Y-36757D01*
X19743Y-36795D01*
X19724Y-36814D01*
X31662Y-33795D02*
X31262Y-33795D01*
X31262Y-33642D01*
X31281Y-33604D01*
X31300Y-33585D01*
X31338Y-33566D01*
X31395Y-33566D01*
X31433Y-33585D01*
X31452Y-33604D01*
X31471Y-33642D01*
X31471Y-33795D01*
X31662Y-33185D02*
X31662Y-33414D01*
X31662Y-33300D02*
X31262Y-33300D01*
X31319Y-33338D01*
X31357Y-33376D01*
X31376Y-33414D01*
X25205Y-36662D02*
X25205Y-36262D01*
X25358Y-36262D01*
X25396Y-36281D01*
X25415Y-36300D01*
X25434Y-36338D01*
X25434Y-36395D01*
X25415Y-36433D01*
X25396Y-36452D01*
X25358Y-36471D01*
X25205Y-36471D01*
X25586Y-36300D02*
X25605Y-36281D01*
X25643Y-36262D01*
X25739Y-36262D01*
X25777Y-36281D01*
X25796Y-36300D01*
X25815Y-36338D01*
X25815Y-36376D01*
X25796Y-36433D01*
X25567Y-36662D01*
X25815Y-36662D01*
G54D10*
X17278Y-36871D02*
X17278Y-36571D01*
X17393Y-36571D01*
X17421Y-36586D01*
X17436Y-36600D01*
X17450Y-36629D01*
X17450Y-36671D01*
X17436Y-36700D01*
X17421Y-36714D01*
X17393Y-36729D01*
X17278Y-36729D01*
X17550Y-36571D02*
X17736Y-36571D01*
X17636Y-36686D01*
X17678Y-36686D01*
X17707Y-36700D01*
X17721Y-36714D01*
X17736Y-36743D01*
X17736Y-36814D01*
X17721Y-36843D01*
X17707Y-36857D01*
X17678Y-36871D01*
X17593Y-36871D01*
X17564Y-36857D01*
X17550Y-36843D01*
G54D14*
X91657Y-38643D02*
X91657Y-39129D01*
X91679Y-39186D01*
X91700Y-39214D01*
X91743Y-39243D01*
X91829Y-39243D01*
X91871Y-39214D01*
X91893Y-39186D01*
X91914Y-39129D01*
X91914Y-38643D01*
X92364Y-39243D02*
X92107Y-39243D01*
X92235Y-39243D02*
X92235Y-38643D01*
X92192Y-38729D01*
X92150Y-38786D01*
X92107Y-38814D01*
X94299Y-40243D02*
X94299Y-39643D01*
X94449Y-40071D01*
X94599Y-39643D01*
X94599Y-40243D01*
X94792Y-40071D02*
X95006Y-40071D01*
X94749Y-40243D02*
X94899Y-39643D01*
X95049Y-40243D01*
X95156Y-39643D02*
X95456Y-40243D01*
X95456Y-39643D02*
X95156Y-40243D01*
X95607Y-39700D02*
X95628Y-39671D01*
X95671Y-39643D01*
X95778Y-39643D01*
X95821Y-39671D01*
X95842Y-39700D01*
X95864Y-39757D01*
X95864Y-39814D01*
X95842Y-39900D01*
X95585Y-40243D01*
X95864Y-40243D01*
X96014Y-39643D02*
X96293Y-39643D01*
X96143Y-39871D01*
X96207Y-39871D01*
X96250Y-39900D01*
X96271Y-39929D01*
X96293Y-39986D01*
X96293Y-40129D01*
X96271Y-40186D01*
X96250Y-40214D01*
X96207Y-40243D01*
X96079Y-40243D01*
X96036Y-40214D01*
X96014Y-40186D01*
X96465Y-39700D02*
X96486Y-39671D01*
X96529Y-39643D01*
X96636Y-39643D01*
X96679Y-39671D01*
X96700Y-39700D01*
X96722Y-39757D01*
X96722Y-39814D01*
X96700Y-39900D01*
X96443Y-40243D01*
X96722Y-40243D01*
G54D13*
X92034Y-41724D02*
X92015Y-41743D01*
X91958Y-41762D01*
X91920Y-41762D01*
X91862Y-41743D01*
X91824Y-41705D01*
X91805Y-41667D01*
X91786Y-41590D01*
X91786Y-41533D01*
X91805Y-41457D01*
X91824Y-41419D01*
X91862Y-41381D01*
X91920Y-41362D01*
X91958Y-41362D01*
X92015Y-41381D01*
X92034Y-41400D01*
X92415Y-41762D02*
X92186Y-41762D01*
X92300Y-41762D02*
X92300Y-41362D01*
X92262Y-41419D01*
X92224Y-41457D01*
X92186Y-41476D01*
X94534Y-41724D02*
X94515Y-41743D01*
X94458Y-41762D01*
X94420Y-41762D01*
X94362Y-41743D01*
X94324Y-41705D01*
X94305Y-41667D01*
X94286Y-41590D01*
X94286Y-41533D01*
X94305Y-41457D01*
X94324Y-41419D01*
X94362Y-41381D01*
X94420Y-41362D01*
X94458Y-41362D01*
X94515Y-41381D01*
X94534Y-41400D01*
X94686Y-41400D02*
X94705Y-41381D01*
X94743Y-41362D01*
X94839Y-41362D01*
X94877Y-41381D01*
X94896Y-41400D01*
X94915Y-41438D01*
X94915Y-41476D01*
X94896Y-41533D01*
X94667Y-41762D01*
X94915Y-41762D01*
X97034Y-41724D02*
X97015Y-41743D01*
X96958Y-41762D01*
X96920Y-41762D01*
X96862Y-41743D01*
X96824Y-41705D01*
X96805Y-41667D01*
X96786Y-41590D01*
X96786Y-41533D01*
X96805Y-41457D01*
X96824Y-41419D01*
X96862Y-41381D01*
X96920Y-41362D01*
X96958Y-41362D01*
X97015Y-41381D01*
X97034Y-41400D01*
X97167Y-41362D02*
X97415Y-41362D01*
X97281Y-41514D01*
X97339Y-41514D01*
X97377Y-41533D01*
X97396Y-41552D01*
X97415Y-41590D01*
X97415Y-41686D01*
X97396Y-41724D01*
X97377Y-41743D01*
X97339Y-41762D01*
X97224Y-41762D01*
X97186Y-41743D01*
X97167Y-41724D01*
X88334Y-42024D02*
X88315Y-42043D01*
X88258Y-42062D01*
X88220Y-42062D01*
X88162Y-42043D01*
X88124Y-42005D01*
X88105Y-41967D01*
X88086Y-41890D01*
X88086Y-41833D01*
X88105Y-41757D01*
X88124Y-41719D01*
X88162Y-41681D01*
X88220Y-41662D01*
X88258Y-41662D01*
X88315Y-41681D01*
X88334Y-41700D01*
X88677Y-41795D02*
X88677Y-42062D01*
X88581Y-41643D02*
X88486Y-41929D01*
X88734Y-41929D01*
X87224Y-37466D02*
X87243Y-37485D01*
X87262Y-37542D01*
X87262Y-37580D01*
X87243Y-37638D01*
X87205Y-37676D01*
X87167Y-37695D01*
X87090Y-37714D01*
X87033Y-37714D01*
X86957Y-37695D01*
X86919Y-37676D01*
X86881Y-37638D01*
X86862Y-37580D01*
X86862Y-37542D01*
X86881Y-37485D01*
X86900Y-37466D01*
X86862Y-37104D02*
X86862Y-37295D01*
X87052Y-37314D01*
X87033Y-37295D01*
X87014Y-37257D01*
X87014Y-37161D01*
X87033Y-37123D01*
X87052Y-37104D01*
X87090Y-37085D01*
X87186Y-37085D01*
X87224Y-37104D01*
X87243Y-37123D01*
X87262Y-37161D01*
X87262Y-37257D01*
X87243Y-37295D01*
X87224Y-37314D01*
X99162Y-34295D02*
X98762Y-34295D01*
X98762Y-34142D01*
X98781Y-34104D01*
X98800Y-34085D01*
X98838Y-34066D01*
X98895Y-34066D01*
X98933Y-34085D01*
X98952Y-34104D01*
X98971Y-34142D01*
X98971Y-34295D01*
X99162Y-33685D02*
X99162Y-33914D01*
X99162Y-33800D02*
X98762Y-33800D01*
X98819Y-33838D01*
X98857Y-33876D01*
X98876Y-33914D01*
X92705Y-37162D02*
X92705Y-36762D01*
X92858Y-36762D01*
X92896Y-36781D01*
X92915Y-36800D01*
X92934Y-36838D01*
X92934Y-36895D01*
X92915Y-36933D01*
X92896Y-36952D01*
X92858Y-36971D01*
X92705Y-36971D01*
X93086Y-36800D02*
X93105Y-36781D01*
X93143Y-36762D01*
X93239Y-36762D01*
X93277Y-36781D01*
X93296Y-36800D01*
X93315Y-36838D01*
X93315Y-36876D01*
X93296Y-36933D01*
X93067Y-37162D01*
X93315Y-37162D01*
G54D10*
X84778Y-37371D02*
X84778Y-37071D01*
X84893Y-37071D01*
X84921Y-37086D01*
X84936Y-37100D01*
X84950Y-37129D01*
X84950Y-37171D01*
X84936Y-37200D01*
X84921Y-37214D01*
X84893Y-37229D01*
X84778Y-37229D01*
X85050Y-37071D02*
X85236Y-37071D01*
X85136Y-37186D01*
X85178Y-37186D01*
X85207Y-37200D01*
X85221Y-37214D01*
X85236Y-37243D01*
X85236Y-37314D01*
X85221Y-37343D01*
X85207Y-37357D01*
X85178Y-37371D01*
X85093Y-37371D01*
X85064Y-37357D01*
X85050Y-37343D01*
X84778Y-18871D02*
X84778Y-18571D01*
X84893Y-18571D01*
X84921Y-18586D01*
X84936Y-18600D01*
X84950Y-18629D01*
X84950Y-18671D01*
X84936Y-18700D01*
X84921Y-18714D01*
X84893Y-18729D01*
X84778Y-18729D01*
X85050Y-18571D02*
X85236Y-18571D01*
X85136Y-18686D01*
X85178Y-18686D01*
X85207Y-18700D01*
X85221Y-18714D01*
X85236Y-18743D01*
X85236Y-18814D01*
X85221Y-18843D01*
X85207Y-18857D01*
X85178Y-18871D01*
X85093Y-18871D01*
X85064Y-18857D01*
X85050Y-18843D01*
G54D13*
X92705Y-18662D02*
X92705Y-18262D01*
X92858Y-18262D01*
X92896Y-18281D01*
X92915Y-18300D01*
X92934Y-18338D01*
X92934Y-18395D01*
X92915Y-18433D01*
X92896Y-18452D01*
X92858Y-18471D01*
X92705Y-18471D01*
X93086Y-18300D02*
X93105Y-18281D01*
X93143Y-18262D01*
X93239Y-18262D01*
X93277Y-18281D01*
X93296Y-18300D01*
X93315Y-18338D01*
X93315Y-18376D01*
X93296Y-18433D01*
X93067Y-18662D01*
X93315Y-18662D01*
X99162Y-15795D02*
X98762Y-15795D01*
X98762Y-15642D01*
X98781Y-15604D01*
X98800Y-15585D01*
X98838Y-15566D01*
X98895Y-15566D01*
X98933Y-15585D01*
X98952Y-15604D01*
X98971Y-15642D01*
X98971Y-15795D01*
X99162Y-15185D02*
X99162Y-15414D01*
X99162Y-15300D02*
X98762Y-15300D01*
X98819Y-15338D01*
X98857Y-15376D01*
X98876Y-15414D01*
X87224Y-18966D02*
X87243Y-18985D01*
X87262Y-19042D01*
X87262Y-19080D01*
X87243Y-19138D01*
X87205Y-19176D01*
X87167Y-19195D01*
X87090Y-19214D01*
X87033Y-19214D01*
X86957Y-19195D01*
X86919Y-19176D01*
X86881Y-19138D01*
X86862Y-19080D01*
X86862Y-19042D01*
X86881Y-18985D01*
X86900Y-18966D01*
X86862Y-18604D02*
X86862Y-18795D01*
X87052Y-18814D01*
X87033Y-18795D01*
X87014Y-18757D01*
X87014Y-18661D01*
X87033Y-18623D01*
X87052Y-18604D01*
X87090Y-18585D01*
X87186Y-18585D01*
X87224Y-18604D01*
X87243Y-18623D01*
X87262Y-18661D01*
X87262Y-18757D01*
X87243Y-18795D01*
X87224Y-18814D01*
X88334Y-23524D02*
X88315Y-23543D01*
X88258Y-23562D01*
X88220Y-23562D01*
X88162Y-23543D01*
X88124Y-23505D01*
X88105Y-23467D01*
X88086Y-23390D01*
X88086Y-23333D01*
X88105Y-23257D01*
X88124Y-23219D01*
X88162Y-23181D01*
X88220Y-23162D01*
X88258Y-23162D01*
X88315Y-23181D01*
X88334Y-23200D01*
X88677Y-23295D02*
X88677Y-23562D01*
X88581Y-23143D02*
X88486Y-23429D01*
X88734Y-23429D01*
X97034Y-23224D02*
X97015Y-23243D01*
X96958Y-23262D01*
X96920Y-23262D01*
X96862Y-23243D01*
X96824Y-23205D01*
X96805Y-23167D01*
X96786Y-23090D01*
X96786Y-23033D01*
X96805Y-22957D01*
X96824Y-22919D01*
X96862Y-22881D01*
X96920Y-22862D01*
X96958Y-22862D01*
X97015Y-22881D01*
X97034Y-22900D01*
X97167Y-22862D02*
X97415Y-22862D01*
X97281Y-23014D01*
X97339Y-23014D01*
X97377Y-23033D01*
X97396Y-23052D01*
X97415Y-23090D01*
X97415Y-23186D01*
X97396Y-23224D01*
X97377Y-23243D01*
X97339Y-23262D01*
X97224Y-23262D01*
X97186Y-23243D01*
X97167Y-23224D01*
X94534Y-23224D02*
X94515Y-23243D01*
X94458Y-23262D01*
X94420Y-23262D01*
X94362Y-23243D01*
X94324Y-23205D01*
X94305Y-23167D01*
X94286Y-23090D01*
X94286Y-23033D01*
X94305Y-22957D01*
X94324Y-22919D01*
X94362Y-22881D01*
X94420Y-22862D01*
X94458Y-22862D01*
X94515Y-22881D01*
X94534Y-22900D01*
X94686Y-22900D02*
X94705Y-22881D01*
X94743Y-22862D01*
X94839Y-22862D01*
X94877Y-22881D01*
X94896Y-22900D01*
X94915Y-22938D01*
X94915Y-22976D01*
X94896Y-23033D01*
X94667Y-23262D01*
X94915Y-23262D01*
X92034Y-23224D02*
X92015Y-23243D01*
X91958Y-23262D01*
X91920Y-23262D01*
X91862Y-23243D01*
X91824Y-23205D01*
X91805Y-23167D01*
X91786Y-23090D01*
X91786Y-23033D01*
X91805Y-22957D01*
X91824Y-22919D01*
X91862Y-22881D01*
X91920Y-22862D01*
X91958Y-22862D01*
X92015Y-22881D01*
X92034Y-22900D01*
X92415Y-23262D02*
X92186Y-23262D01*
X92300Y-23262D02*
X92300Y-22862D01*
X92262Y-22919D01*
X92224Y-22957D01*
X92186Y-22976D01*
G54D14*
X91657Y-20143D02*
X91657Y-20629D01*
X91679Y-20686D01*
X91700Y-20714D01*
X91743Y-20743D01*
X91829Y-20743D01*
X91871Y-20714D01*
X91893Y-20686D01*
X91914Y-20629D01*
X91914Y-20143D01*
X92364Y-20743D02*
X92107Y-20743D01*
X92235Y-20743D02*
X92235Y-20143D01*
X92192Y-20229D01*
X92150Y-20286D01*
X92107Y-20314D01*
X94299Y-21743D02*
X94299Y-21143D01*
X94449Y-21571D01*
X94599Y-21143D01*
X94599Y-21743D01*
X94792Y-21571D02*
X95006Y-21571D01*
X94749Y-21743D02*
X94899Y-21143D01*
X95049Y-21743D01*
X95156Y-21143D02*
X95456Y-21743D01*
X95456Y-21143D02*
X95156Y-21743D01*
X95607Y-21200D02*
X95628Y-21171D01*
X95671Y-21143D01*
X95778Y-21143D01*
X95821Y-21171D01*
X95842Y-21200D01*
X95864Y-21257D01*
X95864Y-21314D01*
X95842Y-21400D01*
X95585Y-21743D01*
X95864Y-21743D01*
X96014Y-21143D02*
X96293Y-21143D01*
X96143Y-21371D01*
X96207Y-21371D01*
X96250Y-21400D01*
X96271Y-21429D01*
X96293Y-21486D01*
X96293Y-21629D01*
X96271Y-21686D01*
X96250Y-21714D01*
X96207Y-21743D01*
X96079Y-21743D01*
X96036Y-21714D01*
X96014Y-21686D01*
X96465Y-21200D02*
X96486Y-21171D01*
X96529Y-21143D01*
X96636Y-21143D01*
X96679Y-21171D01*
X96700Y-21200D01*
X96722Y-21257D01*
X96722Y-21314D01*
X96700Y-21400D01*
X96443Y-21743D01*
X96722Y-21743D01*
G54D10*
X17278Y-18371D02*
X17278Y-18071D01*
X17393Y-18071D01*
X17421Y-18086D01*
X17436Y-18100D01*
X17450Y-18129D01*
X17450Y-18171D01*
X17436Y-18200D01*
X17421Y-18214D01*
X17393Y-18229D01*
X17278Y-18229D01*
X17550Y-18071D02*
X17736Y-18071D01*
X17636Y-18186D01*
X17678Y-18186D01*
X17707Y-18200D01*
X17721Y-18214D01*
X17736Y-18243D01*
X17736Y-18314D01*
X17721Y-18343D01*
X17707Y-18357D01*
X17678Y-18371D01*
X17593Y-18371D01*
X17564Y-18357D01*
X17550Y-18343D01*
G54D13*
X25205Y-18162D02*
X25205Y-17762D01*
X25358Y-17762D01*
X25396Y-17781D01*
X25415Y-17800D01*
X25434Y-17838D01*
X25434Y-17895D01*
X25415Y-17933D01*
X25396Y-17952D01*
X25358Y-17971D01*
X25205Y-17971D01*
X25586Y-17800D02*
X25605Y-17781D01*
X25643Y-17762D01*
X25739Y-17762D01*
X25777Y-17781D01*
X25796Y-17800D01*
X25815Y-17838D01*
X25815Y-17876D01*
X25796Y-17933D01*
X25567Y-18162D01*
X25815Y-18162D01*
X31662Y-15295D02*
X31262Y-15295D01*
X31262Y-15142D01*
X31281Y-15104D01*
X31300Y-15085D01*
X31338Y-15066D01*
X31395Y-15066D01*
X31433Y-15085D01*
X31452Y-15104D01*
X31471Y-15142D01*
X31471Y-15295D01*
X31662Y-14685D02*
X31662Y-14914D01*
X31662Y-14800D02*
X31262Y-14800D01*
X31319Y-14838D01*
X31357Y-14876D01*
X31376Y-14914D01*
X19724Y-18466D02*
X19743Y-18485D01*
X19762Y-18542D01*
X19762Y-18580D01*
X19743Y-18638D01*
X19705Y-18676D01*
X19667Y-18695D01*
X19590Y-18714D01*
X19533Y-18714D01*
X19457Y-18695D01*
X19419Y-18676D01*
X19381Y-18638D01*
X19362Y-18580D01*
X19362Y-18542D01*
X19381Y-18485D01*
X19400Y-18466D01*
X19362Y-18104D02*
X19362Y-18295D01*
X19552Y-18314D01*
X19533Y-18295D01*
X19514Y-18257D01*
X19514Y-18161D01*
X19533Y-18123D01*
X19552Y-18104D01*
X19590Y-18085D01*
X19686Y-18085D01*
X19724Y-18104D01*
X19743Y-18123D01*
X19762Y-18161D01*
X19762Y-18257D01*
X19743Y-18295D01*
X19724Y-18314D01*
X20834Y-23024D02*
X20815Y-23043D01*
X20758Y-23062D01*
X20720Y-23062D01*
X20662Y-23043D01*
X20624Y-23005D01*
X20605Y-22967D01*
X20586Y-22890D01*
X20586Y-22833D01*
X20605Y-22757D01*
X20624Y-22719D01*
X20662Y-22681D01*
X20720Y-22662D01*
X20758Y-22662D01*
X20815Y-22681D01*
X20834Y-22700D01*
X21177Y-22795D02*
X21177Y-23062D01*
X21081Y-22643D02*
X20986Y-22929D01*
X21234Y-22929D01*
X29534Y-22724D02*
X29515Y-22743D01*
X29458Y-22762D01*
X29420Y-22762D01*
X29362Y-22743D01*
X29324Y-22705D01*
X29305Y-22667D01*
X29286Y-22590D01*
X29286Y-22533D01*
X29305Y-22457D01*
X29324Y-22419D01*
X29362Y-22381D01*
X29420Y-22362D01*
X29458Y-22362D01*
X29515Y-22381D01*
X29534Y-22400D01*
X29667Y-22362D02*
X29915Y-22362D01*
X29781Y-22514D01*
X29839Y-22514D01*
X29877Y-22533D01*
X29896Y-22552D01*
X29915Y-22590D01*
X29915Y-22686D01*
X29896Y-22724D01*
X29877Y-22743D01*
X29839Y-22762D01*
X29724Y-22762D01*
X29686Y-22743D01*
X29667Y-22724D01*
X27034Y-22724D02*
X27015Y-22743D01*
X26958Y-22762D01*
X26920Y-22762D01*
X26862Y-22743D01*
X26824Y-22705D01*
X26805Y-22667D01*
X26786Y-22590D01*
X26786Y-22533D01*
X26805Y-22457D01*
X26824Y-22419D01*
X26862Y-22381D01*
X26920Y-22362D01*
X26958Y-22362D01*
X27015Y-22381D01*
X27034Y-22400D01*
X27186Y-22400D02*
X27205Y-22381D01*
X27243Y-22362D01*
X27339Y-22362D01*
X27377Y-22381D01*
X27396Y-22400D01*
X27415Y-22438D01*
X27415Y-22476D01*
X27396Y-22533D01*
X27167Y-22762D01*
X27415Y-22762D01*
X24534Y-22724D02*
X24515Y-22743D01*
X24458Y-22762D01*
X24420Y-22762D01*
X24362Y-22743D01*
X24324Y-22705D01*
X24305Y-22667D01*
X24286Y-22590D01*
X24286Y-22533D01*
X24305Y-22457D01*
X24324Y-22419D01*
X24362Y-22381D01*
X24420Y-22362D01*
X24458Y-22362D01*
X24515Y-22381D01*
X24534Y-22400D01*
X24915Y-22762D02*
X24686Y-22762D01*
X24800Y-22762D02*
X24800Y-22362D01*
X24762Y-22419D01*
X24724Y-22457D01*
X24686Y-22476D01*
G54D14*
X24157Y-19643D02*
X24157Y-20129D01*
X24179Y-20186D01*
X24200Y-20214D01*
X24243Y-20243D01*
X24329Y-20243D01*
X24371Y-20214D01*
X24393Y-20186D01*
X24414Y-20129D01*
X24414Y-19643D01*
X24864Y-20243D02*
X24607Y-20243D01*
X24735Y-20243D02*
X24735Y-19643D01*
X24692Y-19729D01*
X24650Y-19786D01*
X24607Y-19814D01*
X26799Y-21243D02*
X26799Y-20643D01*
X26949Y-21071D01*
X27099Y-20643D01*
X27099Y-21243D01*
X27292Y-21071D02*
X27506Y-21071D01*
X27249Y-21243D02*
X27399Y-20643D01*
X27549Y-21243D01*
X27656Y-20643D02*
X27956Y-21243D01*
X27956Y-20643D02*
X27656Y-21243D01*
X28107Y-20700D02*
X28128Y-20671D01*
X28171Y-20643D01*
X28278Y-20643D01*
X28321Y-20671D01*
X28342Y-20700D01*
X28364Y-20757D01*
X28364Y-20814D01*
X28342Y-20900D01*
X28085Y-21243D01*
X28364Y-21243D01*
X28514Y-20643D02*
X28793Y-20643D01*
X28643Y-20871D01*
X28707Y-20871D01*
X28750Y-20900D01*
X28771Y-20929D01*
X28793Y-20986D01*
X28793Y-21129D01*
X28771Y-21186D01*
X28750Y-21214D01*
X28707Y-21243D01*
X28579Y-21243D01*
X28536Y-21214D01*
X28514Y-21186D01*
X28965Y-20700D02*
X28986Y-20671D01*
X29029Y-20643D01*
X29136Y-20643D01*
X29179Y-20671D01*
X29200Y-20700D01*
X29222Y-20757D01*
X29222Y-20814D01*
X29200Y-20900D01*
X28943Y-21243D01*
X29222Y-21243D01*
X58657Y-19643D02*
X58657Y-20129D01*
X58679Y-20186D01*
X58700Y-20214D01*
X58743Y-20243D01*
X58829Y-20243D01*
X58871Y-20214D01*
X58893Y-20186D01*
X58914Y-20129D01*
X58914Y-19643D01*
X59364Y-20243D02*
X59107Y-20243D01*
X59235Y-20243D02*
X59235Y-19643D01*
X59192Y-19729D01*
X59150Y-19786D01*
X59107Y-19814D01*
X61299Y-21243D02*
X61299Y-20643D01*
X61449Y-21071D01*
X61599Y-20643D01*
X61599Y-21243D01*
X61792Y-21071D02*
X62006Y-21071D01*
X61749Y-21243D02*
X61899Y-20643D01*
X62049Y-21243D01*
X62156Y-20643D02*
X62456Y-21243D01*
X62456Y-20643D02*
X62156Y-21243D01*
X62607Y-20700D02*
X62628Y-20671D01*
X62671Y-20643D01*
X62778Y-20643D01*
X62821Y-20671D01*
X62842Y-20700D01*
X62864Y-20757D01*
X62864Y-20814D01*
X62842Y-20900D01*
X62585Y-21243D01*
X62864Y-21243D01*
X63014Y-20643D02*
X63293Y-20643D01*
X63143Y-20871D01*
X63207Y-20871D01*
X63250Y-20900D01*
X63271Y-20929D01*
X63293Y-20986D01*
X63293Y-21129D01*
X63271Y-21186D01*
X63250Y-21214D01*
X63207Y-21243D01*
X63079Y-21243D01*
X63036Y-21214D01*
X63014Y-21186D01*
X63465Y-20700D02*
X63486Y-20671D01*
X63529Y-20643D01*
X63636Y-20643D01*
X63679Y-20671D01*
X63700Y-20700D01*
X63722Y-20757D01*
X63722Y-20814D01*
X63700Y-20900D01*
X63443Y-21243D01*
X63722Y-21243D01*
G54D13*
X59034Y-22724D02*
X59015Y-22743D01*
X58958Y-22762D01*
X58920Y-22762D01*
X58862Y-22743D01*
X58824Y-22705D01*
X58805Y-22667D01*
X58786Y-22590D01*
X58786Y-22533D01*
X58805Y-22457D01*
X58824Y-22419D01*
X58862Y-22381D01*
X58920Y-22362D01*
X58958Y-22362D01*
X59015Y-22381D01*
X59034Y-22400D01*
X59415Y-22762D02*
X59186Y-22762D01*
X59300Y-22762D02*
X59300Y-22362D01*
X59262Y-22419D01*
X59224Y-22457D01*
X59186Y-22476D01*
X61534Y-22724D02*
X61515Y-22743D01*
X61458Y-22762D01*
X61420Y-22762D01*
X61362Y-22743D01*
X61324Y-22705D01*
X61305Y-22667D01*
X61286Y-22590D01*
X61286Y-22533D01*
X61305Y-22457D01*
X61324Y-22419D01*
X61362Y-22381D01*
X61420Y-22362D01*
X61458Y-22362D01*
X61515Y-22381D01*
X61534Y-22400D01*
X61686Y-22400D02*
X61705Y-22381D01*
X61743Y-22362D01*
X61839Y-22362D01*
X61877Y-22381D01*
X61896Y-22400D01*
X61915Y-22438D01*
X61915Y-22476D01*
X61896Y-22533D01*
X61667Y-22762D01*
X61915Y-22762D01*
X64034Y-22724D02*
X64015Y-22743D01*
X63958Y-22762D01*
X63920Y-22762D01*
X63862Y-22743D01*
X63824Y-22705D01*
X63805Y-22667D01*
X63786Y-22590D01*
X63786Y-22533D01*
X63805Y-22457D01*
X63824Y-22419D01*
X63862Y-22381D01*
X63920Y-22362D01*
X63958Y-22362D01*
X64015Y-22381D01*
X64034Y-22400D01*
X64167Y-22362D02*
X64415Y-22362D01*
X64281Y-22514D01*
X64339Y-22514D01*
X64377Y-22533D01*
X64396Y-22552D01*
X64415Y-22590D01*
X64415Y-22686D01*
X64396Y-22724D01*
X64377Y-22743D01*
X64339Y-22762D01*
X64224Y-22762D01*
X64186Y-22743D01*
X64167Y-22724D01*
X55334Y-23024D02*
X55315Y-23043D01*
X55258Y-23062D01*
X55220Y-23062D01*
X55162Y-23043D01*
X55124Y-23005D01*
X55105Y-22967D01*
X55086Y-22890D01*
X55086Y-22833D01*
X55105Y-22757D01*
X55124Y-22719D01*
X55162Y-22681D01*
X55220Y-22662D01*
X55258Y-22662D01*
X55315Y-22681D01*
X55334Y-22700D01*
X55677Y-22795D02*
X55677Y-23062D01*
X55581Y-22643D02*
X55486Y-22929D01*
X55734Y-22929D01*
X54224Y-18466D02*
X54243Y-18485D01*
X54262Y-18542D01*
X54262Y-18580D01*
X54243Y-18638D01*
X54205Y-18676D01*
X54167Y-18695D01*
X54090Y-18714D01*
X54033Y-18714D01*
X53957Y-18695D01*
X53919Y-18676D01*
X53881Y-18638D01*
X53862Y-18580D01*
X53862Y-18542D01*
X53881Y-18485D01*
X53900Y-18466D01*
X53862Y-18104D02*
X53862Y-18295D01*
X54052Y-18314D01*
X54033Y-18295D01*
X54014Y-18257D01*
X54014Y-18161D01*
X54033Y-18123D01*
X54052Y-18104D01*
X54090Y-18085D01*
X54186Y-18085D01*
X54224Y-18104D01*
X54243Y-18123D01*
X54262Y-18161D01*
X54262Y-18257D01*
X54243Y-18295D01*
X54224Y-18314D01*
X66162Y-15295D02*
X65762Y-15295D01*
X65762Y-15142D01*
X65781Y-15104D01*
X65800Y-15085D01*
X65838Y-15066D01*
X65895Y-15066D01*
X65933Y-15085D01*
X65952Y-15104D01*
X65971Y-15142D01*
X65971Y-15295D01*
X66162Y-14685D02*
X66162Y-14914D01*
X66162Y-14800D02*
X65762Y-14800D01*
X65819Y-14838D01*
X65857Y-14876D01*
X65876Y-14914D01*
X59705Y-18162D02*
X59705Y-17762D01*
X59858Y-17762D01*
X59896Y-17781D01*
X59915Y-17800D01*
X59934Y-17838D01*
X59934Y-17895D01*
X59915Y-17933D01*
X59896Y-17952D01*
X59858Y-17971D01*
X59705Y-17971D01*
X60086Y-17800D02*
X60105Y-17781D01*
X60143Y-17762D01*
X60239Y-17762D01*
X60277Y-17781D01*
X60296Y-17800D01*
X60315Y-17838D01*
X60315Y-17876D01*
X60296Y-17933D01*
X60067Y-18162D01*
X60315Y-18162D01*
G54D10*
X51778Y-18371D02*
X51778Y-18071D01*
X51893Y-18071D01*
X51921Y-18086D01*
X51936Y-18100D01*
X51950Y-18129D01*
X51950Y-18171D01*
X51936Y-18200D01*
X51921Y-18214D01*
X51893Y-18229D01*
X51778Y-18229D01*
X52050Y-18071D02*
X52236Y-18071D01*
X52136Y-18186D01*
X52178Y-18186D01*
X52207Y-18200D01*
X52221Y-18214D01*
X52236Y-18243D01*
X52236Y-18314D01*
X52221Y-18343D01*
X52207Y-18357D01*
X52178Y-18371D01*
X52093Y-18371D01*
X52064Y-18357D01*
X52050Y-18343D01*
M02*
